NotoSerifTamil-Condensed.ufo
<glyph name="exclam" format="2">
  <advance width="291.7"/>
  <unicode hex="0021"/>
  <outline>
    <contour>
      <point x="124.8" y="198.9" type="line"/>
      <point x="165.9" y="198.9" type="line"/>
      <point x="198.8" y="714.0" type="line"/>
      <point x="91.9" y="714.0" type="line"/>
    </contour>
    <contour>
      <point x="145.7" y="-7.0" type="curve" smooth="yes"/>
      <point x="174.8" y="-7.0"/>
      <point x="200.3" y="8.6"/>
      <point x="200.3" y="56.8" type="curve" smooth="yes"/>
      <point x="200.3" y="105.3"/>
      <point x="174.8" y="120.6"/>
      <point x="145.7" y="120.6" type="curve" smooth="yes"/>
      <point x="114.9" y="120.6"/>
      <point x="91.1" y="105.3"/>
      <point x="91.1" y="56.8" type="curve" smooth="yes"/>
      <point x="91.1" y="8.6"/>
      <point x="114.9" y="-7.0"/>
    </contour>
  </outline>
</glyph>
<glyph name="quotedbl" format="2">
  <advance width="363.2"/>
  <unicode hex="0022"/>
  <outline>
    <contour>
      <point x="244.2" y="481.8" type="line"/>
      <point x="286.7" y="481.8" type="line"/>
      <point x="312.5" y="714.0" type="line"/>
      <point x="214.9" y="714.0" type="line"/>
    </contour>
    <contour>
      <point x="78.6" y="481.8" type="line"/>
      <point x="120.4" y="481.8" type="line"/>
      <point x="148.3" y="714.0" type="line"/>
      <point x="50.0" y="714.0" type="line"/>
    </contour>
  </outline>
</glyph>
<glyph name="numbersign" format="2">
  <advance width="477.8"/>
  <unicode hex="0023"/>
  <outline>
    <contour>
      <point x="54.5" y="0.0" type="line"/>
      <point x="111.0" y="0.0" type="line"/>
      <point x="149.7" y="206.5" type="line"/>
      <point x="264.2" y="206.5" type="line"/>
      <point x="225.5" y="0.0" type="line"/>
      <point x="282.0" y="0.0" type="line"/>
      <point x="320.7" y="206.5" type="line"/>
      <point x="432.7" y="206.5" type="line"/>
      <point x="432.7" y="259.9" type="line"/>
      <point x="331.3" y="259.9" type="line"/>
      <point x="369.0" y="459.4" type="line"/>
      <point x="464.7" y="459.4" type="line"/>
      <point x="464.7" y="514.2" type="line"/>
      <point x="379.3" y="514.2" type="line"/>
      <point x="417.0" y="714.0" type="line"/>
      <point x="359.8" y="714.0" type="line"/>
      <point x="322.8" y="514.2" type="line"/>
      <point x="208.3" y="514.2" type="line"/>
      <point x="246.0" y="714.0" type="line"/>
      <point x="188.5" y="714.0" type="line"/>
      <point x="151.8" y="514.2" type="line"/>
      <point x="44.4" y="514.2" type="line"/>
      <point x="44.4" y="459.4" type="line"/>
      <point x="140.8" y="459.4" type="line"/>
      <point x="103.5" y="259.9" type="line"/>
      <point x="12.4" y="259.9" type="line"/>
      <point x="12.4" y="206.5" type="line"/>
      <point x="93.2" y="206.5" type="line"/>
    </contour>
    <contour>
      <point x="160.3" y="259.9" type="line"/>
      <point x="198.0" y="459.4" type="line"/>
      <point x="312.5" y="459.4" type="line"/>
      <point x="274.8" y="259.9" type="line"/>
    </contour>
  </outline>
</glyph>
<glyph name="percent" format="2">
  <advance width="766.5"/>
  <unicode hex="0025"/>
  <outline>
    <contour>
      <point x="201.4" y="0.0" type="line"/>
      <point x="259.7" y="0.0" type="line"/>
      <point x="561.8" y="714.0" type="line"/>
      <point x="504.5" y="714.0" type="line"/>
    </contour>
    <contour>
      <point x="178.9" y="280.0" type="curve" smooth="yes"/>
      <point x="274.9" y="280.0"/>
      <point x="321.9" y="369.0"/>
      <point x="321.9" y="503.0" type="curve"/>
      <point x="321.9" y="637.0"/>
      <point x="274.9" y="724.0"/>
      <point x="179.9" y="724.0" type="curve" smooth="yes"/>
      <point x="78.6" y="724.0"/>
      <point x="36.6" y="637.0"/>
      <point x="36.6" y="503.0" type="curve" smooth="yes"/>
      <point x="36.6" y="369.0"/>
      <point x="78.6" y="280.0"/>
    </contour>
    <contour>
      <point x="178.9" y="317.5" type="curve" smooth="yes"/>
      <point x="129.1" y="317.5"/>
      <point x="111.9" y="384.5"/>
      <point x="111.9" y="503.0" type="curve"/>
      <point x="111.9" y="619.5"/>
      <point x="129.1" y="685.5"/>
      <point x="179.9" y="685.5" type="curve" smooth="yes"/>
      <point x="229.7" y="685.5"/>
      <point x="245.6" y="619.5"/>
      <point x="245.6" y="503.0" type="curve" smooth="yes"/>
      <point x="245.6" y="384.5"/>
      <point x="229.7" y="317.5"/>
    </contour>
    <contour>
      <point x="586.9" y="-10.0" type="curve" smooth="yes"/>
      <point x="682.9" y="-10.0"/>
      <point x="729.9" y="79.0"/>
      <point x="729.9" y="213.0" type="curve" smooth="yes"/>
      <point x="729.9" y="347.0"/>
      <point x="682.9" y="434.0"/>
      <point x="587.9" y="434.0" type="curve" smooth="yes"/>
      <point x="487.3" y="434.0"/>
      <point x="444.6" y="347.0"/>
      <point x="444.6" y="213.0" type="curve" smooth="yes"/>
      <point x="444.6" y="79.0"/>
      <point x="487.3" y="-10.0"/>
    </contour>
    <contour>
      <point x="586.9" y="27.5" type="curve" smooth="yes"/>
      <point x="537.1" y="27.5"/>
      <point x="519.9" y="94.5"/>
      <point x="519.9" y="213.0" type="curve" smooth="yes"/>
      <point x="519.9" y="329.5"/>
      <point x="537.1" y="395.5"/>
      <point x="587.2" y="395.5" type="curve" smooth="yes"/>
      <point x="637.7" y="395.5"/>
      <point x="653.6" y="329.5"/>
      <point x="653.6" y="213.0" type="curve" smooth="yes"/>
      <point x="653.6" y="94.5"/>
      <point x="637.7" y="27.5"/>
    </contour>
  </outline>
</glyph>
<glyph name="quotesingle" format="2">
  <advance width="199.0"/>
  <unicode hex="0027"/>
  <outline>
    <contour>
      <point x="78.6" y="481.8" type="line"/>
      <point x="120.4" y="481.8" type="line"/>
      <point x="148.3" y="714.0" type="line"/>
      <point x="50.0" y="714.0" type="line"/>
    </contour>
  </outline>
</glyph>
<glyph name="parenleft" format="2">
  <advance width="302.6"/>
  <unicode hex="0028"/>
  <outline>
    <contour>
      <point x="276.2" y="-127.3" type="curve"/>
      <point x="276.2" y="-82.7" type="line"/>
      <point x="160.9" y="0.30000000000000004"/>
      <point x="146.3" y="158.0"/>
      <point x="146.3" y="317.0" type="curve" smooth="yes"/>
      <point x="146.3" y="476.0"/>
      <point x="160.9" y="632.0"/>
      <point x="276.2" y="715.7" type="curve"/>
      <point x="276.2" y="758.6" type="line"/>
      <point x="113.2" y="687.7"/>
      <point x="48.6" y="559.1"/>
      <point x="48.6" y="317.0" type="curve" smooth="yes"/>
      <point x="48.6" y="73.9"/>
      <point x="113.2" y="-55.0"/>
    </contour>
  </outline>
</glyph>
<glyph name="parenright" format="2">
  <advance width="302.6"/>
  <unicode hex="0029"/>
  <outline>
    <contour>
      <point x="27.1" y="-127.3" type="line"/>
      <point x="190.1" y="-55.0"/>
      <point x="254.7" y="73.9"/>
      <point x="254.7" y="317.0" type="curve" smooth="yes"/>
      <point x="254.7" y="559.1"/>
      <point x="190.1" y="687.7"/>
      <point x="27.1" y="758.6" type="curve"/>
      <point x="27.1" y="715.7" type="line"/>
      <point x="142.4" y="632.0"/>
      <point x="157.7" y="476.0"/>
      <point x="157.7" y="317.0" type="curve" smooth="yes"/>
      <point x="157.7" y="158.0"/>
      <point x="142.4" y="0.30000000000000004"/>
      <point x="27.1" y="-82.7" type="curve"/>
    </contour>
  </outline>
</glyph>
<glyph name="asterisk" format="2">
  <advance width="413.2"/>
  <unicode hex="002A"/>
  <outline>
    <contour>
      <point x="168.3" y="375.2" type="line"/>
      <point x="244.1" y="375.2" type="line"/>
      <point x="219.6" y="538.8" type="line"/>
      <point x="346.6" y="445.8" type="line"/>
      <point x="377.4" y="517.2" type="line"/>
      <point x="240.6" y="567.6" type="line"/>
      <point x="377.4" y="618.0" type="line"/>
      <point x="346.6" y="691.1" type="line"/>
      <point x="219.6" y="596.4" type="line"/>
      <point x="244.1" y="760.0" type="line"/>
      <point x="168.3" y="760.0" type="line"/>
      <point x="190.8" y="595.4" type="line"/>
      <point x="64.8" y="693.1" type="line"/>
      <point x="34.0" y="619.0" type="line"/>
      <point x="170.5" y="567.6" type="line"/>
      <point x="34.0" y="516.2" type="line"/>
      <point x="64.8" y="443.8" type="line"/>
      <point x="189.8" y="539.5" type="line"/>
    </contour>
  </outline>
</glyph>
<glyph name="plus" format="2">
  <advance width="465.2"/>
  <unicode hex="002B"/>
  <outline>
    <contour>
      <point x="202.1" y="143.0" type="line"/>
      <point x="261.4" y="143.0" type="line"/>
      <point x="261.4" y="328.7" type="line"/>
      <point x="415.6" y="328.7" type="line"/>
      <point x="415.6" y="386.3" type="line"/>
      <point x="261.4" y="386.3" type="line"/>
      <point x="261.4" y="572.0" type="line"/>
      <point x="202.1" y="572.0" type="line"/>
      <point x="202.1" y="386.3" type="line"/>
      <point x="49.6" y="386.3" type="line"/>
      <point x="49.6" y="328.7" type="line"/>
      <point x="202.1" y="328.7" type="line"/>
    </contour>
  </outline>
</glyph>
<glyph name="comma" format="2">
  <advance width="219.9"/>
  <unicode hex="002C"/>
  <outline>
    <contour>
      <point x="31.4" y="-154.0" type="line"/>
      <point x="130.1" y="-121.1"/>
      <point x="167.4" y="-49.3"/>
      <point x="167.4" y="30.8" type="curve" smooth="yes"/>
      <point x="167.4" y="88.2"/>
      <point x="139.8" y="120.6"/>
      <point x="102.3" y="120.6" type="curve" smooth="yes"/>
      <point x="72.3" y="120.6"/>
      <point x="49.2" y="100.3"/>
      <point x="49.2" y="65.8" type="curve" smooth="yes"/>
      <point x="49.2" y="9.7"/>
      <point x="106.8" y="13.100000000000001"/>
      <point x="106.8" y="-24.8" type="curve" smooth="yes"/>
      <point x="106.8" y="-61.0"/>
      <point x="82.4" y="-95.2"/>
      <point x="31.4" y="-114.8" type="curve"/>
    </contour>
  </outline>
</glyph>
<glyph name="hyphen" format="2">
  <advance width="265.2"/>
  <unicode hex="002D"/>
  <outline>
    <contour>
      <point x="21.5" y="235.7" type="line"/>
      <point x="243.7" y="235.7" type="line"/>
      <point x="243.7" y="309.3" type="line"/>
      <point x="21.5" y="309.3" type="line"/>
    </contour>
  </outline>
</glyph>
<glyph name="period" format="2">
  <advance width="219.9"/>
  <unicode hex="002E"/>
  <outline>
    <contour>
      <point x="110.3" y="-7.0" type="curve" smooth="yes"/>
      <point x="139.4" y="-7.0"/>
      <point x="164.9" y="8.6"/>
      <point x="164.9" y="56.8" type="curve" smooth="yes"/>
      <point x="164.9" y="105.3"/>
      <point x="139.4" y="120.6"/>
      <point x="110.3" y="120.6" type="curve" smooth="yes"/>
      <point x="79.5" y="120.6"/>
      <point x="55.0" y="105.3"/>
      <point x="55.0" y="56.8" type="curve" smooth="yes"/>
      <point x="55.0" y="8.6"/>
      <point x="79.5" y="-7.0"/>
    </contour>
  </outline>
</glyph>
<glyph name="one" format="2">
  <advance width="477.1"/>
  <unicode hex="0031"/>
  <outline>
    <contour>
      <point x="84.1" y="0.0" type="line"/>
      <point x="406.3" y="0.0" type="line"/>
      <point x="406.3" y="41.3" type="line"/>
      <point x="367.8" y="41.3" type="line" smooth="yes"/>
      <point x="326.3" y="41.3"/>
      <point x="296.3" y="51.0"/>
      <point x="296.3" y="113.3" type="curve" smooth="yes"/>
      <point x="296.3" y="718.0" type="line"/>
      <point x="238.6" y="718.0" type="line"/>
      <point x="179.1" y="666.7" type="line" smooth="yes"/>
      <point x="122.9" y="617.7"/>
      <point x="87.1" y="600.4"/>
      <point x="52.7" y="590.4" type="curve"/>
      <point x="52.7" y="559.1"/>
      <point x="70.9" y="539.2"/>
      <point x="96.4" y="539.2" type="curve" smooth="yes"/>
      <point x="130.1" y="539.2"/>
      <point x="163.9" y="581.2"/>
      <point x="206.5" y="639.7" type="curve"/>
      <point x="206.5" y="113.3" type="line" smooth="yes"/>
      <point x="206.5" y="48.9"/>
      <point x="176.5" y="41.3"/>
      <point x="135.0" y="41.3" type="curve" smooth="yes"/>
      <point x="84.1" y="41.3" type="line"/>
    </contour>
  </outline>
</glyph>
<glyph name="two" format="2">
  <advance width="477.1"/>
  <unicode hex="0032"/>
  <outline>
    <contour>
      <point x="41.2" y="0.0" type="line"/>
      <point x="420.8" y="0.0" type="line"/>
      <point x="424.4" y="170.9" type="line"/>
      <point x="384.5" y="170.9" type="line"/>
      <point x="380.5" y="152.2" type="line" smooth="yes"/>
      <point x="370.8" y="107.6"/>
      <point x="357.2" y="77.9"/>
      <point x="308.4" y="77.9" type="curve" smooth="yes"/>
      <point x="111.0" y="77.9" type="line"/>
      <point x="256.9" y="261.4" type="line" smooth="yes"/>
      <point x="344.4" y="371.1"/>
      <point x="404.3" y="447.2"/>
      <point x="404.3" y="554.9" type="curve" smooth="yes"/>
      <point x="404.3" y="655.9"/>
      <point x="336.4" y="724.0"/>
      <point x="223.7" y="724.0" type="curve" smooth="yes"/>
      <point x="108.7" y="724.0"/>
      <point x="50.1" y="666.3"/>
      <point x="50.1" y="593.5" type="curve" smooth="yes"/>
      <point x="50.1" y="543.2"/>
      <point x="87.4" y="528.5"/>
      <point x="128.4" y="528.5" type="curve"/>
      <point x="128.4" y="605.4"/>
      <point x="146.0" y="674.7"/>
      <point x="223.7" y="674.7" type="curve" smooth="yes"/>
      <point x="282.5" y="674.7"/>
      <point x="310.3" y="623.7"/>
      <point x="310.3" y="545.6" type="curve" smooth="yes"/>
      <point x="310.3" y="450.1"/>
      <point x="279.9" y="383.4"/>
      <point x="187.9" y="261.8" type="curve" smooth="yes"/>
      <point x="41.2" y="68.8" type="line"/>
    </contour>
  </outline>
</glyph>
<glyph name="three" format="2">
  <advance width="477.1"/>
  <unicode hex="0033"/>
  <outline>
    <contour>
      <point x="212.7" y="-10.0" type="curve" smooth="yes"/>
      <point x="319.3" y="-10.0"/>
      <point x="431.0" y="43.0"/>
      <point x="431.0" y="198.4" type="curve" smooth="yes"/>
      <point x="431.0" y="326.9"/>
      <point x="346.6" y="369.5"/>
      <point x="277.5" y="378.9" type="curve"/>
      <point x="353.4" y="400.2"/>
      <point x="409.5" y="470.8"/>
      <point x="409.5" y="560.8" type="curve" smooth="yes"/>
      <point x="409.5" y="665.3"/>
      <point x="337.4" y="724.0"/>
      <point x="231.7" y="724.0" type="curve" smooth="yes"/>
      <point x="116.7" y="724.0"/>
      <point x="57.4" y="664.9"/>
      <point x="57.4" y="590.7" type="curve" smooth="yes"/>
      <point x="57.4" y="544.6"/>
      <point x="91.9" y="529.9"/>
      <point x="132.9" y="529.9" type="curve"/>
      <point x="132.9" y="608.9"/>
      <point x="154.7" y="674.7"/>
      <point x="226.8" y="674.7" type="curve" smooth="yes"/>
      <point x="287.7" y="674.7"/>
      <point x="315.6" y="628.7"/>
      <point x="315.6" y="550.0" type="curve" smooth="yes"/>
      <point x="315.6" y="454.3"/>
      <point x="267.6" y="395.0"/>
      <point x="192.2" y="395.0" type="curve"/>
      <point x="155.3" y="395.0" type="line"/>
      <point x="155.3" y="346.8" type="line"/>
      <point x="191.5" y="346.8" type="line" smooth="yes"/>
      <point x="286.7" y="346.8"/>
      <point x="336.8" y="290.4"/>
      <point x="336.8" y="199.4" type="curve" smooth="yes"/>
      <point x="336.8" y="85.0"/>
      <point x="278.7" y="42.6"/>
      <point x="212.3" y="42.6" type="curve" smooth="yes"/>
      <point x="144.6" y="42.6"/>
      <point x="104.2" y="95.7"/>
      <point x="104.2" y="165.0" type="curve"/>
      <point x="70.4" y="165.0"/>
      <point x="46.8" y="141.0"/>
      <point x="46.8" y="101.7" type="curve" smooth="yes"/>
      <point x="46.8" y="41.3"/>
      <point x="97.5" y="-10.0"/>
    </contour>
  </outline>
</glyph>
<glyph name="four" format="2">
  <advance width="477.1"/>
  <unicode hex="0034"/>
  <outline>
    <contour>
      <point x="180.0" y="0.0" type="line"/>
      <point x="443.2" y="0.0" type="line"/>
      <point x="443.2" y="41.3" type="line"/>
      <point x="432.3" y="41.3" type="line" smooth="yes"/>
      <point x="392.9" y="41.3"/>
      <point x="361.5" y="50.3"/>
      <point x="361.5" y="113.3" type="curve" smooth="yes"/>
      <point x="361.5" y="196.7" type="line"/>
      <point x="463.8" y="196.7" type="line"/>
      <point x="463.8" y="252.0" type="line"/>
      <point x="361.5" y="252.0" type="line"/>
      <point x="361.5" y="714.0" type="line"/>
      <point x="272.8" y="714.0" type="line"/>
      <point x="14.2" y="236.3" type="line"/>
      <point x="14.2" y="196.7" type="line"/>
      <point x="273.9" y="196.7" type="line"/>
      <point x="273.9" y="113.3" type="line" smooth="yes"/>
      <point x="273.9" y="50.3"/>
      <point x="243.2" y="41.3"/>
      <point x="203.1" y="41.3" type="curve" smooth="yes"/>
      <point x="180.0" y="41.3" type="line"/>
    </contour>
    <contour>
      <point x="76.4" y="252.0" type="line"/>
      <point x="202.1" y="487.2" type="line" smooth="yes"/>
      <point x="223.7" y="528.1"/>
      <point x="267.2" y="614.9"/>
      <point x="279.5" y="645.4" type="curve"/>
      <point x="275.2" y="583.4"/>
      <point x="273.9" y="497.8"/>
      <point x="273.9" y="439.8" type="curve" smooth="yes"/>
      <point x="273.9" y="252.0" type="line"/>
    </contour>
  </outline>
</glyph>
<glyph name="five" format="2">
  <advance width="477.1"/>
  <unicode hex="0035"/>
  <outline>
    <contour>
      <point x="208.3" y="-10.0" type="curve" smooth="yes"/>
      <point x="334.0" y="-10.0"/>
      <point x="417.4" y="84.1"/>
      <point x="417.4" y="218.0" type="curve" smooth="yes"/>
      <point x="417.4" y="358.3"/>
      <point x="333.1" y="429.0"/>
      <point x="216.7" y="429.0" type="curve" smooth="yes"/>
      <point x="175.2" y="429.0"/>
      <point x="139.3" y="420.0"/>
      <point x="119.3" y="411.6" type="curve"/>
      <point x="136.9" y="635.1" type="line"/>
      <point x="302.9" y="635.1" type="line" smooth="yes"/>
      <point x="337.9" y="635.1"/>
      <point x="340.3" y="623.5"/>
      <point x="347.8" y="587.8" type="curve" smooth="yes"/>
      <point x="352.5" y="564.1" type="line"/>
      <point x="392.4" y="564.1" type="line"/>
      <point x="388.8" y="713.0" type="line"/>
      <point x="98.2" y="713.0" type="line"/>
      <point x="69.7" y="360.4" type="line"/>
      <point x="90.2" y="351.3" type="line"/>
      <point x="112.4" y="363.0"/>
      <point x="144.9" y="376.8"/>
      <point x="197.1" y="376.8" type="curve" smooth="yes"/>
      <point x="273.0" y="376.8"/>
      <point x="322.5" y="323.0"/>
      <point x="322.5" y="218.0" type="curve" smooth="yes"/>
      <point x="322.5" y="86.8"/>
      <point x="271.3" y="43.4"/>
      <point x="202.6" y="43.4" type="curve" smooth="yes"/>
      <point x="133.5" y="43.4"/>
      <point x="100.5" y="94.4"/>
      <point x="100.5" y="153.5" type="curve"/>
      <point x="65.2" y="153.5"/>
      <point x="44.5" y="129.4"/>
      <point x="44.5" y="93.1" type="curve" smooth="yes"/>
      <point x="44.5" y="49.5"/>
      <point x="81.3" y="-10.0"/>
    </contour>
  </outline>
</glyph>
<glyph name="six" format="2">
  <advance width="477.1"/>
  <unicode hex="0036"/>
  <outline>
    <contour>
      <point x="250.3" y="-10.0" type="curve" smooth="yes"/>
      <point x="368.1" y="-10.0"/>
      <point x="435.9" y="88.0"/>
      <point x="435.9" y="229.0" type="curve" smooth="yes"/>
      <point x="435.9" y="356.3"/>
      <point x="368.1" y="433.3"/>
      <point x="266.4" y="433.3" type="curve" smooth="yes"/>
      <point x="208.4" y="433.3"/>
      <point x="169.7" y="406.2"/>
      <point x="143.0" y="379.9" type="curve"/>
      <point x="147.2" y="575.0"/>
      <point x="189.1" y="676.7"/>
      <point x="270.2" y="676.7" type="curve" smooth="yes"/>
      <point x="325.8" y="676.7"/>
      <point x="348.4" y="628.9"/>
      <point x="348.4" y="561.1" type="curve"/>
      <point x="393.5" y="561.1"/>
      <point x="417.7" y="581.0"/>
      <point x="417.7" y="619.0" type="curve" smooth="yes"/>
      <point x="417.7" y="673.0"/>
      <point x="369.3" y="724.0"/>
      <point x="272.3" y="724.0" type="curve" smooth="yes"/>
      <point x="119.8" y="724.0"/>
      <point x="49.8" y="572.4"/>
      <point x="49.8" y="346.0" type="curve" smooth="yes"/>
      <point x="49.8" y="97.0"/>
      <point x="134.8" y="-10.0"/>
    </contour>
    <contour>
      <point x="252.6" y="41.5" type="curve" smooth="yes"/>
      <point x="185.9" y="41.5"/>
      <point x="144.0" y="130.6"/>
      <point x="142.0" y="326.4" type="curve"/>
      <point x="163.4" y="352.3"/>
      <point x="198.6" y="384.4"/>
      <point x="247.8" y="384.4" type="curve" smooth="yes"/>
      <point x="310.8" y="384.4"/>
      <point x="344.4" y="333.7"/>
      <point x="344.4" y="219.0" type="curve" smooth="yes"/>
      <point x="344.4" y="95.9"/>
      <point x="311.7" y="41.5"/>
    </contour>
  </outline>
</glyph>
<glyph name="seven" format="2">
  <advance width="477.1"/>
  <unicode hex="0037"/>
  <outline>
    <contour>
      <point x="151.5" y="0.0" type="line"/>
      <point x="217.4" y="0.0" type="line"/>
      <point x="435.4" y="685.4" type="line"/>
      <point x="435.4" y="713.0" type="line"/>
      <point x="51.4" y="713.0" type="line"/>
      <point x="46.4" y="534.1" type="line"/>
      <point x="88.4" y="534.1" type="line"/>
      <point x="92.4" y="582.0" type="line" smooth="yes"/>
      <point x="95.4" y="618.5"/>
      <point x="109.5" y="635.1"/>
      <point x="140.6" y="635.1" type="curve" smooth="yes"/>
      <point x="365.8" y="635.1" type="line"/>
    </contour>
  </outline>
</glyph>
<glyph name="eight" format="2">
  <advance width="477.1"/>
  <unicode hex="0038"/>
  <outline>
    <contour>
      <point x="234.5" y="-10.0" type="curve" smooth="yes"/>
      <point x="360.9" y="-10.0"/>
      <point x="440.2" y="61.2"/>
      <point x="440.2" y="181.9" type="curve" smooth="yes"/>
      <point x="440.2" y="281.5"/>
      <point x="384.4" y="335.3"/>
      <point x="300.8" y="380.2" type="curve"/>
      <point x="369.9" y="417.4"/>
      <point x="414.8" y="465.4"/>
      <point x="414.8" y="556.2" type="curve" smooth="yes"/>
      <point x="414.8" y="654.1"/>
      <point x="352.6" y="724.0"/>
      <point x="242.3" y="724.0" type="curve" smooth="yes"/>
      <point x="113.5" y="724.0"/>
      <point x="57.1" y="643.3"/>
      <point x="57.1" y="547.1" type="curve" smooth="yes"/>
      <point x="57.1" y="459.6"/>
      <point x="103.1" y="407.1"/>
      <point x="167.9" y="365.5" type="curve"/>
      <point x="95.6" y="327.7"/>
      <point x="38.3" y="275.0"/>
      <point x="38.3" y="174.8" type="curve" smooth="yes"/>
      <point x="38.3" y="71.2"/>
      <point x="103.4" y="-10.0"/>
    </contour>
    <contour>
      <point x="237.4" y="38.1" type="curve" smooth="yes"/>
      <point x="164.5" y="38.1"/>
      <point x="124.8" y="89.9"/>
      <point x="124.8" y="175.7" type="curve" smooth="yes"/>
      <point x="124.8" y="250.7"/>
      <point x="155.7" y="306.1"/>
      <point x="208.2" y="340.8" type="curve"/>
      <point x="312.7" y="284.1"/>
      <point x="353.4" y="237.0"/>
      <point x="353.4" y="167.6" type="curve" smooth="yes"/>
      <point x="353.4" y="87.1"/>
      <point x="306.9" y="38.1"/>
    </contour>
    <contour>
      <point x="258.8" y="402.5" type="curve"/>
      <point x="185.2" y="443.5"/>
      <point x="144.1" y="482.2"/>
      <point x="144.1" y="559.1" type="curve" smooth="yes"/>
      <point x="144.1" y="628.1"/>
      <point x="177.4" y="675.6"/>
      <point x="239.1" y="675.6" type="curve" smooth="yes"/>
      <point x="307.0" y="675.6"/>
      <point x="334.2" y="617.1"/>
      <point x="334.2" y="555.4" type="curve" smooth="yes"/>
      <point x="334.2" y="484.7"/>
      <point x="315.6" y="439.5"/>
    </contour>
  </outline>
</glyph>
<glyph name="nine" format="2">
  <advance width="477.1"/>
  <unicode hex="0039"/>
  <outline>
    <contour>
      <point x="194.1" y="-11.0" type="curve"/>
      <point x="360.8" y="-11.0"/>
      <point x="428.0" y="160.5"/>
      <point x="428.0" y="388.0" type="curve"/>
      <point x="428.0" y="625.1"/>
      <point x="340.5" y="724.0"/>
      <point x="224.4" y="724.0" type="curve" smooth="yes"/>
      <point x="107.9" y="724.0"/>
      <point x="41.2" y="623.4"/>
      <point x="41.2" y="482.2" type="curve" smooth="yes"/>
      <point x="41.2" y="349.3"/>
      <point x="111.0" y="279.2"/>
      <point x="209.5" y="279.2" type="curve" smooth="yes"/>
      <point x="269.0" y="279.2"/>
      <point x="313.5" y="314.3"/>
      <point x="335.5" y="345.8" type="curve"/>
      <point x="329.9" y="141.3"/>
      <point x="289.3" y="43.3"/>
      <point x="199.3" y="43.3" type="curve" smooth="yes"/>
      <point x="140.5" y="43.3"/>
      <point x="112.5" y="80.3"/>
      <point x="97.3" y="121.6" type="curve"/>
      <point x="78.8" y="115.2"/>
      <point x="67.3" y="96.5"/>
      <point x="67.3" y="71.5" type="curve" smooth="yes"/>
      <point x="67.3" y="30.9"/>
      <point x="99.3" y="-11.0"/>
    </contour>
    <contour>
      <point x="231.5" y="331.2" type="curve" smooth="yes"/>
      <point x="165.0" y="333.3"/>
      <point x="133.7" y="382.2"/>
      <point x="133.7" y="488.0" type="curve" smooth="yes"/>
      <point x="133.7" y="606.4"/>
      <point x="166.3" y="672.5"/>
      <point x="227.2" y="672.5" type="curve" smooth="yes"/>
      <point x="293.7" y="672.5"/>
      <point x="334.2" y="593.0"/>
      <point x="337.2" y="403.8" type="curve"/>
      <point x="320.6" y="372.0"/>
      <point x="288.8" y="333.3"/>
    </contour>
  </outline>
</glyph>
<glyph name="colon" format="2">
  <advance width="239.8"/>
  <unicode hex="003A"/>
  <outline>
    <contour>
      <point x="120.2" y="407.8" type="curve" smooth="yes"/>
      <point x="149.3" y="407.8"/>
      <point x="174.8" y="422.7"/>
      <point x="174.8" y="470.9" type="curve" smooth="yes"/>
      <point x="174.8" y="519.4"/>
      <point x="149.3" y="534.0"/>
      <point x="120.2" y="534.0" type="curve" smooth="yes"/>
      <point x="89.4" y="534.0"/>
      <point x="65.6" y="519.4"/>
      <point x="65.6" y="470.9" type="curve" smooth="yes"/>
      <point x="65.6" y="422.7"/>
      <point x="89.4" y="407.8"/>
    </contour>
    <contour>
      <point x="120.2" y="-7.0" type="curve" smooth="yes"/>
      <point x="149.3" y="-7.0"/>
      <point x="174.8" y="8.6"/>
      <point x="174.8" y="56.8" type="curve" smooth="yes"/>
      <point x="174.8" y="105.3"/>
      <point x="149.3" y="120.6"/>
      <point x="120.2" y="120.6" type="curve" smooth="yes"/>
      <point x="89.4" y="120.6"/>
      <point x="65.6" y="105.3"/>
      <point x="65.6" y="56.8" type="curve" smooth="yes"/>
      <point x="65.6" y="8.6"/>
      <point x="89.4" y="-7.0"/>
    </contour>
  </outline>
</glyph>
<glyph name="semicolon" format="2">
  <advance width="239.8"/>
  <unicode hex="003B"/>
  <outline>
    <contour>
      <point x="41.7" y="-154.0" type="line"/>
      <point x="141.1" y="-121.1"/>
      <point x="178.4" y="-49.3"/>
      <point x="178.4" y="30.8" type="curve" smooth="yes"/>
      <point x="178.4" y="88.2"/>
      <point x="150.8" y="120.6"/>
      <point x="112.6" y="120.6" type="curve" smooth="yes"/>
      <point x="83.3" y="120.6"/>
      <point x="60.2" y="100.3"/>
      <point x="60.2" y="65.8" type="curve" smooth="yes"/>
      <point x="60.2" y="9.7"/>
      <point x="118.5" y="13.100000000000001"/>
      <point x="118.5" y="-24.8" type="curve" smooth="yes"/>
      <point x="118.5" y="-61.7"/>
      <point x="94.1" y="-95.2"/>
      <point x="41.7" y="-114.8" type="curve"/>
    </contour>
    <contour>
      <point x="120.2" y="407.8" type="curve" smooth="yes"/>
      <point x="150.0" y="407.8"/>
      <point x="174.8" y="422.7"/>
      <point x="174.8" y="470.9" type="curve" smooth="yes"/>
      <point x="174.8" y="519.4"/>
      <point x="150.0" y="534.0"/>
      <point x="120.2" y="534.0" type="curve" smooth="yes"/>
      <point x="89.4" y="534.0"/>
      <point x="65.6" y="519.4"/>
      <point x="65.6" y="470.9" type="curve" smooth="yes"/>
      <point x="65.6" y="422.7"/>
      <point x="89.4" y="407.8"/>
    </contour>
  </outline>
</glyph>
<glyph name="less" format="2">
  <advance width="465.2"/>
  <unicode hex="003C"/>
  <outline>
    <contour>
      <point x="415.6" y="110.7" type="line"/>
      <point x="415.6" y="177.0" type="line"/>
      <point x="130.7" y="357.0" type="line"/>
      <point x="415.6" y="539.7" type="line"/>
      <point x="415.6" y="605.3" type="line"/>
      <point x="49.6" y="375.0" type="line"/>
      <point x="49.6" y="340.0" type="line"/>
    </contour>
  </outline>
</glyph>
<glyph name="equal" format="2">
  <advance width="465.2"/>
  <unicode hex="003D"/>
  <outline>
    <contour>
      <point x="49.6" y="423.9" type="line"/>
      <point x="415.6" y="423.9" type="line"/>
      <point x="415.6" y="482.2" type="line"/>
      <point x="49.6" y="482.2" type="line"/>
    </contour>
    <contour>
      <point x="49.6" y="231.8" type="line"/>
      <point x="415.6" y="231.8" type="line"/>
      <point x="415.6" y="290.1" type="line"/>
      <point x="49.6" y="290.1" type="line"/>
    </contour>
  </outline>
</glyph>
<glyph name="question" format="2">
  <advance width="438.4"/>
  <unicode hex="003F"/>
  <outline>
    <contour>
      <point x="175.8" y="206.6" type="line"/>
      <point x="218.6" y="206.6" type="line"/>
      <point x="228.4" y="320.3" type="line"/>
      <point x="335.6" y="370.6"/>
      <point x="390.2" y="435.1"/>
      <point x="390.2" y="545.8" type="curve" smooth="yes"/>
      <point x="390.2" y="659.1"/>
      <point x="315.4" y="724.0"/>
      <point x="203.4" y="724.0" type="curve" smooth="yes"/>
      <point x="93.3" y="724.0"/>
      <point x="36.7" y="674.6"/>
      <point x="36.7" y="612.0" type="curve" smooth="yes"/>
      <point x="36.7" y="569.0"/>
      <point x="68.2" y="551.2"/>
      <point x="114.1" y="551.2" type="curve"/>
      <point x="114.1" y="623.7"/>
      <point x="137.5" y="675.7"/>
      <point x="205.1" y="675.7" type="curve" smooth="yes"/>
      <point x="267.4" y="675.7"/>
      <point x="296.6" y="622.7"/>
      <point x="296.6" y="551.6" type="curve" smooth="yes"/>
      <point x="296.6" y="466.7"/>
      <point x="265.2" y="395.8"/>
      <point x="166.7" y="348.1" type="curve"/>
    </contour>
    <contour>
      <point x="196.4" y="-7.0" type="curve" smooth="yes"/>
      <point x="226.9" y="-7.0"/>
      <point x="252.4" y="8.6"/>
      <point x="252.4" y="56.8" type="curve" smooth="yes"/>
      <point x="252.4" y="105.3"/>
      <point x="226.9" y="120.6"/>
      <point x="196.4" y="120.6" type="curve" smooth="yes"/>
      <point x="166.3" y="120.6"/>
      <point x="142.5" y="105.3"/>
      <point x="142.5" y="56.8" type="curve" smooth="yes"/>
      <point x="142.5" y="8.6"/>
      <point x="166.3" y="-7.0"/>
    </contour>
  </outline>
</glyph>
<glyph name="bracketleft" format="2">
  <advance width="315.2"/>
  <unicode hex="005B"/>
  <outline>
    <contour>
      <point x="85.3" y="-128.0" type="line"/>
      <point x="283.8" y="-128.0" type="line"/>
      <point x="283.8" y="-86.7" type="line"/>
      <point x="247.1" y="-86.7" type="line" smooth="yes"/>
      <point x="209.1" y="-86.7"/>
      <point x="177.0" y="-77.7"/>
      <point x="177.0" y="-14.7" type="curve" smooth="yes"/>
      <point x="177.0" y="646.7" type="line" smooth="yes"/>
      <point x="177.0" y="709.7"/>
      <point x="209.1" y="718.7"/>
      <point x="247.1" y="718.7" type="curve" smooth="yes"/>
      <point x="283.8" y="718.7" type="line"/>
      <point x="283.8" y="760.0" type="line"/>
      <point x="85.3" y="760.0" type="line"/>
    </contour>
  </outline>
</glyph>
<glyph name="backslash" format="2">
  <advance width="246.0"/>
  <unicode hex="005C"/>
  <outline>
    <contour>
      <point x="194.0" y="-121.0" type="line"/>
      <point x="246.0" y="-121.0" type="line"/>
      <point x="51.7" y="760.0" type="line"/>
      <point x="0.0" y="760.0" type="line"/>
    </contour>
  </outline>
</glyph>
<glyph name="bracketright" format="2">
  <advance width="315.2"/>
  <unicode hex="005D"/>
  <outline>
    <contour>
      <point x="32.1" y="-128.0" type="line"/>
      <point x="229.9" y="-128.0" type="line"/>
      <point x="229.9" y="760.0" type="line"/>
      <point x="32.1" y="760.0" type="line"/>
      <point x="32.1" y="718.7" type="line"/>
      <point x="68.1" y="718.7" type="line" smooth="yes"/>
      <point x="106.8" y="718.7"/>
      <point x="138.2" y="709.7"/>
      <point x="138.2" y="646.7" type="curve" smooth="yes"/>
      <point x="138.2" y="-14.7" type="line" smooth="yes"/>
      <point x="138.2" y="-77.7"/>
      <point x="106.8" y="-86.7"/>
      <point x="68.1" y="-86.7" type="curve" smooth="yes"/>
      <point x="32.1" y="-86.7" type="line"/>
    </contour>
  </outline>
</glyph>
<glyph name="asciicircum" format="2">
  <advance width="465.2"/>
  <unicode hex="005E"/>
  <outline>
    <contour>
      <point x="36.3" y="266.7" type="line"/>
      <point x="94.9" y="266.7" type="line"/>
      <point x="231.1" y="623.4" type="line"/>
      <point x="368.6" y="266.7" type="line"/>
      <point x="427.9" y="266.7" type="line"/>
      <point x="247.0" y="714.0" type="line"/>
      <point x="216.2" y="714.0" type="line"/>
    </contour>
  </outline>
</glyph>
<glyph name="underscore" format="2">
  <advance width="391.1"/>
  <unicode hex="005F"/>
  <outline>
    <contour>
      <point x="-4.3" y="-142.0" type="line"/>
      <point x="395.4" y="-142.0" type="line"/>
      <point x="395.4" y="-83.0" type="line"/>
      <point x="-4.3" y="-83.0" type="line"/>
    </contour>
  </outline>
</glyph>
<glyph name="braceleft" format="2">
  <advance width="367.1"/>
  <unicode hex="007B"/>
  <outline>
    <contour>
      <point x="267.2" y="-128.0" type="curve" smooth="yes"/>
      <point x="327.6" y="-128.0" type="line"/>
      <point x="327.6" y="-85.7" type="line"/>
      <point x="301.1" y="-85.7" type="line" smooth="yes"/>
      <point x="251.2" y="-85.7"/>
      <point x="232.4" y="-48.7"/>
      <point x="232.4" y="19.3" type="curve" smooth="yes"/>
      <point x="232.4" y="192.3" type="line" smooth="yes"/>
      <point x="232.4" y="259.0"/>
      <point x="202.3" y="304.7"/>
      <point x="138.2" y="317.0" type="curve"/>
      <point x="138.2" y="318.0" type="line"/>
      <point x="201.7" y="329.3"/>
      <point x="232.4" y="375.3"/>
      <point x="232.4" y="441.0" type="curve" smooth="yes"/>
      <point x="232.4" y="612.0" type="line" smooth="yes"/>
      <point x="232.4" y="681.7"/>
      <point x="251.2" y="717.7"/>
      <point x="301.1" y="717.7" type="curve" smooth="yes"/>
      <point x="327.6" y="717.7" type="line"/>
      <point x="327.6" y="760.0" type="line"/>
      <point x="267.2" y="760.0" type="line" smooth="yes"/>
      <point x="184.4" y="760.0"/>
      <point x="140.0" y="708.0"/>
      <point x="140.0" y="617.0" type="curve" smooth="yes"/>
      <point x="140.0" y="443.0" type="line" smooth="yes"/>
      <point x="140.0" y="362.0"/>
      <point x="96.4" y="339.3"/>
      <point x="39.5" y="337.3" type="curve"/>
      <point x="39.5" y="296.7" type="line"/>
      <point x="96.4" y="293.7"/>
      <point x="140.0" y="272.0"/>
      <point x="140.0" y="189.3" type="curve" smooth="yes"/>
      <point x="140.0" y="16.0" type="line" smooth="yes"/>
      <point x="140.0" y="-72.7"/>
      <point x="184.4" y="-128.0"/>
    </contour>
  </outline>
</glyph>
<glyph name="bar" format="2">
  <advance width="477.1"/>
  <unicode hex="007C"/>
  <outline>
    <contour>
      <point x="211.2" y="-240.0" type="line"/>
      <point x="264.9" y="-240.0" type="line"/>
      <point x="264.9" y="760.0" type="line"/>
      <point x="211.2" y="760.0" type="line"/>
    </contour>
  </outline>
</glyph>
<glyph name="braceright" format="2">
  <advance width="367.1"/>
  <unicode hex="007D"/>
  <outline>
    <contour>
      <point x="39.5" y="-128.0" type="line"/>
      <point x="100.6" y="-128.0" type="line" smooth="yes"/>
      <point x="183.4" y="-128.0"/>
      <point x="227.1" y="-72.7"/>
      <point x="227.1" y="16.0" type="curve" smooth="yes"/>
      <point x="227.1" y="189.3" type="line" smooth="yes"/>
      <point x="227.1" y="272.0"/>
      <point x="272.1" y="293.7"/>
      <point x="327.6" y="296.7" type="curve"/>
      <point x="327.6" y="337.3" type="line"/>
      <point x="272.1" y="339.3"/>
      <point x="227.1" y="362.0"/>
      <point x="227.1" y="443.0" type="curve" smooth="yes"/>
      <point x="227.1" y="617.0" type="line" smooth="yes"/>
      <point x="227.1" y="708.0"/>
      <point x="183.4" y="760.0"/>
      <point x="100.6" y="760.0" type="curve" smooth="yes"/>
      <point x="39.5" y="760.0" type="line"/>
      <point x="39.5" y="717.7" type="line"/>
      <point x="66.7" y="717.7" type="line" smooth="yes"/>
      <point x="117.3" y="717.7"/>
      <point x="134.7" y="681.7"/>
      <point x="134.7" y="612.0" type="curve" smooth="yes"/>
      <point x="134.7" y="441.0" type="line" smooth="yes"/>
      <point x="134.7" y="375.3"/>
      <point x="166.1" y="329.3"/>
      <point x="230.3" y="318.0" type="curve"/>
      <point x="230.3" y="317.0" type="line"/>
      <point x="164.1" y="304.7"/>
      <point x="134.7" y="259.0"/>
      <point x="134.7" y="192.3" type="curve" smooth="yes"/>
      <point x="134.7" y="19.3" type="line" smooth="yes"/>
      <point x="134.7" y="-48.7"/>
      <point x="117.3" y="-85.7"/>
      <point x="66.7" y="-85.7" type="curve" smooth="yes"/>
      <point x="39.5" y="-85.7" type="line"/>
    </contour>
  </outline>
</glyph>
<glyph name="asciitilde" format="2">
  <advance width="465.2"/>
  <unicode hex="007E"/>
  <outline>
    <contour>
      <point x="37.2" y="269.7" type="curve"/>
      <point x="92.0" y="269.7" type="line"/>
      <point x="99.0" y="349.8"/>
      <point x="113.2" y="387.8"/>
      <point x="146.6" y="387.8" type="curve" smooth="yes"/>
      <point x="170.6" y="387.8"/>
      <point x="188.3" y="367.6"/>
      <point x="217.9" y="334.1" type="curve" smooth="yes"/>
      <point x="261.9" y="283.4"/>
      <point x="288.8" y="269.7"/>
      <point x="323.9" y="269.7" type="curve" smooth="yes"/>
      <point x="401.8" y="269.7"/>
      <point x="423.2" y="365.9"/>
      <point x="429.8" y="444.0" type="curve"/>
      <point x="374.0" y="444.0" type="line"/>
      <point x="367.1" y="365.1"/>
      <point x="354.2" y="325.9"/>
      <point x="322.1" y="325.9" type="curve" smooth="yes"/>
      <point x="298.3" y="325.9"/>
      <point x="280.7" y="347.1"/>
      <point x="252.0" y="378.0" type="curve" smooth="yes"/>
      <point x="212.7" y="419.6"/>
      <point x="184.9" y="444.0"/>
      <point x="144.5" y="444.0" type="curve" smooth="yes"/>
      <point x="63.5" y="444.0"/>
      <point x="43.5" y="351.6"/>
    </contour>
  </outline>
</glyph>
<glyph name="twosuperior" format="2">
  <advance width="341.2"/>
  <unicode hex="00B2"/>
  <outline>
    <contour>
      <point x="32.9" y="387.0" type="line"/>
      <point x="296.3" y="387.0" type="line"/>
      <point x="298.6" y="508.5" type="line"/>
      <point x="273.0" y="508.5" type="line"/>
      <point x="269.0" y="487.5" type="line"/>
      <point x="265.0" y="464.8"/>
      <point x="258.1" y="446.5"/>
      <point x="232.0" y="446.5" type="curve"/>
      <point x="95.4" y="446.5" type="line"/>
      <point x="177.6" y="531.9" type="line"/>
      <point x="255.7" y="605.0"/>
      <point x="288.0" y="644.9"/>
      <point x="288.0" y="712.1" type="curve" smooth="yes"/>
      <point x="288.0" y="783.5"/>
      <point x="243.2" y="824.3"/>
      <point x="162.1" y="824.3" type="curve" smooth="yes"/>
      <point x="80.2" y="824.3"/>
      <point x="40.2" y="786.2"/>
      <point x="40.2" y="739.6" type="curve" smooth="yes"/>
      <point x="40.2" y="710.2"/>
      <point x="60.2" y="698.7"/>
      <point x="98.9" y="698.7" type="curve"/>
      <point x="98.9" y="754.5"/>
      <point x="115.9" y="788.5"/>
      <point x="157.9" y="788.5" type="curve" smooth="yes"/>
      <point x="196.0" y="788.5"/>
      <point x="213.4" y="757.2"/>
      <point x="213.4" y="709.7" type="curve" smooth="yes"/>
      <point x="213.4" y="647.6"/>
      <point x="188.1" y="601.8"/>
      <point x="138.9" y="547.4" type="curve" smooth="yes"/>
      <point x="32.9" y="431.3" type="line"/>
    </contour>
  </outline>
</glyph>
<glyph name="threesuperior" format="2">
  <advance width="341.2"/>
  <unicode hex="00B3"/>
  <outline>
    <contour>
      <point x="151.6" y="380.0" type="curve" smooth="yes"/>
      <point x="234.4" y="380.0"/>
      <point x="302.0" y="420.7"/>
      <point x="302.0" y="508.9" type="curve" smooth="yes"/>
      <point x="302.0" y="581.9"/>
      <point x="248.6" y="603.7"/>
      <point x="201.9" y="612.0" type="curve"/>
      <point x="201.9" y="615.6" type="line"/>
      <point x="247.8" y="630.9"/>
      <point x="287.8" y="664.9"/>
      <point x="287.8" y="723.6" type="curve" smooth="yes"/>
      <point x="287.8" y="785.6"/>
      <point x="242.1" y="823.3"/>
      <point x="160.8" y="823.3" type="curve" smooth="yes"/>
      <point x="78.2" y="823.3"/>
      <point x="37.6" y="783.1"/>
      <point x="37.6" y="738.6" type="curve" smooth="yes"/>
      <point x="37.6" y="707.1"/>
      <point x="59.3" y="697.0"/>
      <point x="94.8" y="697.0" type="curve"/>
      <point x="94.8" y="747.2"/>
      <point x="107.0" y="787.5"/>
      <point x="155.9" y="787.5" type="curve" smooth="yes"/>
      <point x="194.1" y="787.5"/>
      <point x="212.2" y="764.2"/>
      <point x="212.2" y="717.4" type="curve" smooth="yes"/>
      <point x="212.2" y="663.7"/>
      <point x="181.6" y="628.6"/>
      <point x="133.7" y="628.6" type="curve" smooth="yes"/>
      <point x="103.5" y="628.6" type="line"/>
      <point x="103.5" y="591.1" type="line"/>
      <point x="132.3" y="591.1" type="line" smooth="yes"/>
      <point x="196.2" y="591.1"/>
      <point x="225.0" y="560.4"/>
      <point x="225.0" y="509.9" type="curve" smooth="yes"/>
      <point x="225.0" y="445.1"/>
      <point x="193.1" y="420.1"/>
      <point x="147.9" y="420.1" type="curve" smooth="yes"/>
      <point x="92.7" y="420.1"/>
      <point x="74.1" y="464.1"/>
      <point x="74.1" y="508.9" type="curve"/>
      <point x="46.8" y="508.9"/>
      <point x="29.5" y="493.1"/>
      <point x="29.5" y="462.0" type="curve" smooth="yes"/>
      <point x="29.5" y="413.0"/>
      <point x="69.5" y="380.0"/>
    </contour>
  </outline>
</glyph>
<glyph name="multiply" format="2">
  <advance width="465.2"/>
  <unicode hex="00D7"/>
  <outline>
    <contour>
      <point x="94.8" y="150.7" type="line"/>
      <point x="234.2" y="314.6" type="line"/>
      <point x="373.6" y="150.7" type="line"/>
      <point x="416.3" y="187.8" type="line"/>
      <point x="272.0" y="358.0" type="line"/>
      <point x="416.3" y="527.5" type="line"/>
      <point x="373.6" y="564.9" type="line"/>
      <point x="234.2" y="402.1" type="line"/>
      <point x="95.5" y="565.3" type="line"/>
      <point x="52.1" y="528.2" type="line"/>
      <point x="197.1" y="358.3" type="line"/>
      <point x="52.1" y="187.4" type="line"/>
    </contour>
  </outline>
</glyph>
<glyph name="divide" format="2">
  <advance width="465.2"/>
  <unicode hex="00F7"/>
  <outline>
    <contour>
      <point x="49.6" y="328.7" type="line"/>
      <point x="415.6" y="328.7" type="line"/>
      <point x="415.6" y="386.3" type="line"/>
      <point x="49.6" y="386.3" type="line"/>
    </contour>
    <contour>
      <point x="233.1" y="113.7" type="curve" smooth="yes"/>
      <point x="258.3" y="113.7"/>
      <point x="278.5" y="127.7"/>
      <point x="278.5" y="168.0" type="curve" smooth="yes"/>
      <point x="278.5" y="209.3"/>
      <point x="258.3" y="222.3"/>
      <point x="233.1" y="222.3" type="curve" smooth="yes"/>
      <point x="206.9" y="222.3"/>
      <point x="187.0" y="209.3"/>
      <point x="187.0" y="168.0" type="curve" smooth="yes"/>
      <point x="187.0" y="127.7"/>
      <point x="206.9" y="113.7"/>
    </contour>
    <contour>
      <point x="233.1" y="492.7" type="curve" smooth="yes"/>
      <point x="258.3" y="492.7"/>
      <point x="278.5" y="506.7"/>
      <point x="278.5" y="547.0" type="curve" smooth="yes"/>
      <point x="278.5" y="588.3"/>
      <point x="258.3" y="601.3"/>
      <point x="233.1" y="601.3" type="curve" smooth="yes"/>
      <point x="206.9" y="601.3"/>
      <point x="187.0" y="588.3"/>
      <point x="187.0" y="547.0" type="curve" smooth="yes"/>
      <point x="187.0" y="506.7"/>
      <point x="206.9" y="492.7"/>
    </contour>
  </outline>
</glyph>
<glyph name="anudatta-deva" format="2">
  <unicode hex="0952"/>
  <anchor x="0.0" y="0.0" name="_bottom"/>
  <outline>
    <contour>
      <point x="-204.6" y="-530.2" type="line"/>
      <point x="204.6" y="-530.2" type="line"/>
      <point x="204.6" y="-463.2" type="line"/>
      <point x="-204.6" y="-463.2" type="line"/>
    </contour>
  </outline>
</glyph>
<glyph name="danda-deva" format="2">
  <advance width="263.7"/>
  <unicode hex="0964"/>
  <outline>
    <contour>
      <point x="86.1" y="0.0" type="line"/>
      <point x="177.6" y="0.0" type="line"/>
      <point x="177.6" y="554.0" type="line"/>
      <point x="86.1" y="554.0" type="line"/>
    </contour>
  </outline>
</glyph>
<glyph name="dbldanda-deva" format="2">
  <advance width="474.6"/>
  <unicode hex="0965"/>
  <outline>
    <contour>
      <point x="297.0" y="0.0" type="line"/>
      <point x="388.5" y="0.0" type="line"/>
      <point x="388.5" y="554.0" type="line"/>
      <point x="297.0" y="554.0" type="line"/>
    </contour>
    <contour>
      <point x="86.1" y="0.0" type="line"/>
      <point x="177.6" y="0.0" type="line"/>
      <point x="177.6" y="554.0" type="line"/>
      <point x="86.1" y="554.0" type="line"/>
    </contour>
  </outline>
</glyph>
<glyph name="anusvara-tamil" format="2">
  <unicode hex="0B82"/>
  <note>
uni0B82
</note>
  <anchor x="0.0" y="554.0" name="_top"/>
  <outline>
    <contour>
      <point x="0.0" y="633.0" type="curve" smooth="yes"/>
      <point x="63.0" y="633.0"/>
      <point x="109.1" y="675.4"/>
      <point x="109.1" y="739.1" type="curve" smooth="yes"/>
      <point x="109.1" y="802.4"/>
      <point x="63.0" y="845.5"/>
      <point x="0.0" y="845.5" type="curve" smooth="yes"/>
      <point x="-63.0" y="845.5"/>
      <point x="-109.1" y="802.4"/>
      <point x="-109.1" y="739.1" type="curve" smooth="yes"/>
      <point x="-109.1" y="675.4"/>
      <point x="-63.0" y="633.0"/>
    </contour>
    <contour>
      <point x="0.0" y="687.0" type="curve" smooth="yes"/>
      <point x="-30.0" y="687.0"/>
      <point x="-50.4" y="708.1"/>
      <point x="-50.4" y="739.1" type="curve" smooth="yes"/>
      <point x="-50.4" y="770.4"/>
      <point x="-30.0" y="791.5"/>
      <point x="0.0" y="791.5" type="curve" smooth="yes"/>
      <point x="30.0" y="791.5"/>
      <point x="50.4" y="770.4"/>
      <point x="50.4" y="739.1" type="curve" smooth="yes"/>
      <point x="50.4" y="708.1"/>
      <point x="30.0" y="687.0"/>
    </contour>
  </outline>
</glyph>
<glyph name="visarga-tamil" format="2">
  <advance width="750.8"/>
  <unicode hex="0B83"/>
  <note>
uni0B83
</note>
  <outline>
    <contour>
      <point x="552.6" y="0.0" type="curve" smooth="yes"/>
      <point x="636.1" y="0.0"/>
      <point x="695.6" y="75.0"/>
      <point x="695.6" y="185.0" type="curve" smooth="yes"/>
      <point x="695.6" y="294.0"/>
      <point x="636.8" y="369.0"/>
      <point x="553.3" y="369.0" type="curve" smooth="yes"/>
      <point x="469.0" y="369.0"/>
      <point x="414.5" y="294.0"/>
      <point x="414.5" y="185.0" type="curve" smooth="yes"/>
      <point x="414.5" y="75.0"/>
      <point x="468.3" y="0.0"/>
    </contour>
    <contour>
      <point x="192.6" y="0.0" type="curve" smooth="yes"/>
      <point x="276.1" y="0.0"/>
      <point x="335.6" y="75.0"/>
      <point x="335.6" y="185.0" type="curve" smooth="yes"/>
      <point x="335.6" y="294.0"/>
      <point x="276.8" y="369.0"/>
      <point x="193.3" y="369.0" type="curve" smooth="yes"/>
      <point x="109.7" y="369.0"/>
      <point x="55.5" y="294.0"/>
      <point x="55.5" y="185.0" type="curve" smooth="yes"/>
      <point x="55.5" y="75.0"/>
      <point x="109.0" y="0.0"/>
    </contour>
    <contour>
      <point x="374.0" y="412.0" type="curve" smooth="yes"/>
      <point x="457.5" y="412.0"/>
      <point x="517.0" y="486.0"/>
      <point x="517.0" y="596.0" type="curve" smooth="yes"/>
      <point x="517.0" y="706.0"/>
      <point x="458.2" y="780.0"/>
      <point x="374.7" y="780.0" type="curve" smooth="yes"/>
      <point x="291.1" y="780.0"/>
      <point x="236.6" y="706.0"/>
      <point x="236.6" y="596.0" type="curve" smooth="yes"/>
      <point x="236.6" y="486.0"/>
      <point x="290.4" y="412.0"/>
    </contour>
    <contour>
      <point x="182.5" y="51.8" type="curve" smooth="yes"/>
      <point x="133.2" y="51.8"/>
      <point x="102.8" y="104.1"/>
      <point x="102.8" y="185.0" type="curve" smooth="yes"/>
      <point x="102.8" y="264.2"/>
      <point x="133.2" y="316.5"/>
      <point x="182.5" y="316.5" type="curve" smooth="yes"/>
      <point x="235.4" y="316.5"/>
      <point x="265.2" y="271.9"/>
      <point x="265.2" y="185.0" type="curve" smooth="yes"/>
      <point x="265.2" y="96.8"/>
      <point x="235.4" y="51.8"/>
    </contour>
    <contour>
      <point x="363.9" y="463.5" type="curve" smooth="yes"/>
      <point x="314.6" y="463.5"/>
      <point x="284.2" y="515.8"/>
      <point x="284.2" y="596.0" type="curve" smooth="yes"/>
      <point x="284.2" y="675.9"/>
      <point x="314.6" y="728.2"/>
      <point x="363.9" y="728.2" type="curve" smooth="yes"/>
      <point x="416.8" y="728.2"/>
      <point x="446.3" y="683.2"/>
      <point x="446.3" y="596.0" type="curve" smooth="yes"/>
      <point x="446.3" y="508.8"/>
      <point x="416.8" y="463.5"/>
    </contour>
    <contour>
      <point x="542.5" y="51.8" type="curve" smooth="yes"/>
      <point x="493.2" y="51.8"/>
      <point x="462.1" y="104.1"/>
      <point x="462.1" y="185.0" type="curve" smooth="yes"/>
      <point x="462.1" y="264.2"/>
      <point x="493.2" y="316.5"/>
      <point x="542.5" y="316.5" type="curve" smooth="yes"/>
      <point x="595.4" y="316.5"/>
      <point x="625.2" y="271.9"/>
      <point x="625.2" y="185.0" type="curve" smooth="yes"/>
      <point x="625.2" y="96.8"/>
      <point x="595.4" y="51.8"/>
    </contour>
  </outline>
</glyph>
<glyph name="a-tamil" format="2">
  <advance width="1081.3"/>
  <unicode hex="0B85"/>
  <note>
uni0B85
</note>
  <anchor x="524.8" y="0.0" name="bottom"/>
  <anchor x="373.1" y="-122.0" name="nukta"/>
  <anchor x="535.1" y="554.0" name="top"/>
  <anchor x="536.5" y="554.0" name="vedic"/>
  <outline>
    <contour>
      <point x="907.5" y="-188.5" type="line"/>
      <point x="999.0" y="-188.5" type="line"/>
      <point x="999.0" y="554.0" type="line"/>
      <point x="907.5" y="554.0" type="line"/>
      <point x="907.5" y="171.0" type="line"/>
      <point x="108.4" y="171.0" type="line" smooth="yes"/>
      <point x="59.9" y="171.0"/>
      <point x="35.5" y="143.0"/>
      <point x="35.5" y="99.0" type="curve" smooth="yes"/>
      <point x="35.5" y="4.0"/>
      <point x="164.3" y="-122.0"/>
      <point x="373.1" y="-122.0" type="curve" smooth="yes"/>
      <point x="626.9" y="-122.0"/>
      <point x="788.2" y="17.0"/>
      <point x="788.2" y="250.0" type="curve" smooth="yes"/>
      <point x="788.2" y="442.0"/>
      <point x="673.6" y="559.0"/>
      <point x="522.5" y="559.0" type="curve" smooth="yes"/>
      <point x="413.6" y="559.0"/>
      <point x="334.7" y="496.0"/>
      <point x="334.7" y="385.0" type="curve" smooth="yes"/>
      <point x="334.7" y="307.0"/>
      <point x="388.7" y="247.0"/>
      <point x="465.6" y="247.0" type="curve" smooth="yes"/>
      <point x="539.9" y="247.0"/>
      <point x="590.5" y="296.0"/>
      <point x="590.5" y="377.0" type="curve" smooth="yes"/>
      <point x="590.5" y="452.0"/>
      <point x="535.2" y="513.0"/>
      <point x="476.2" y="519.0" type="curve"/>
      <point x="431.7" y="516.0" type="line"/>
      <point x="478.4" y="500.0"/>
      <point x="511.4" y="439.0"/>
      <point x="511.4" y="386.0" type="curve" smooth="yes"/>
      <point x="511.4" y="337.0"/>
      <point x="489.9" y="301.0"/>
      <point x="448.8" y="301.0" type="curve" smooth="yes"/>
      <point x="414.0" y="301.0"/>
      <point x="385.3" y="328.0"/>
      <point x="385.3" y="382.0" type="curve" smooth="yes"/>
      <point x="385.3" y="461.0"/>
      <point x="437.1" y="505.0"/>
      <point x="511.2" y="505.0" type="curve" smooth="yes"/>
      <point x="607.4" y="505.0"/>
      <point x="697.1" y="408.0"/>
      <point x="697.1" y="250.0" type="curve" smooth="yes"/>
      <point x="697.1" y="57.0"/>
      <point x="565.6" y="-68.0"/>
      <point x="368.9" y="-68.0" type="curve" smooth="yes"/>
      <point x="200.8" y="-68.0"/>
      <point x="91.7" y="29.0"/>
      <point x="91.7" y="91.0" type="curve" smooth="yes"/>
      <point x="91.7" y="107.0"/>
      <point x="98.0" y="117.0"/>
      <point x="119.4" y="117.0" type="curve" smooth="yes"/>
      <point x="907.5" y="117.0" type="line"/>
    </contour>
  </outline>
</glyph>
<glyph name="aa-tamil" format="2">
  <advance width="1222.7"/>
  <unicode hex="0B86"/>
  <note>
uni0B86
</note>
  <anchor x="590.5" y="0.0" name="bottom"/>
  <anchor x="373.1" y="-122.0" name="nukta"/>
  <anchor x="601.1" y="554.0" name="top"/>
  <anchor x="601.5" y="554.0" name="vedic"/>
  <outline>
    <contour>
      <point x="840.9" y="-419.2" type="curve" smooth="yes"/>
      <point x="1015.1" y="-419.2"/>
      <point x="1201.2" y="-301.5"/>
      <point x="1201.2" y="-101.9" type="curve" smooth="yes"/>
      <point x="1201.2" y="-6.700000000000001"/>
      <point x="1160.6" y="45.0"/>
      <point x="1092.7" y="45.0" type="curve" smooth="yes"/>
      <point x="1019.3" y="45.0"/>
      <point x="978.2" y="-20.0"/>
      <point x="972.6" y="-106.5" type="curve"/>
      <point x="993.9" y="-115.7" type="line"/>
      <point x="993.2" y="-63.2"/>
      <point x="1023.4" y="-32.5"/>
      <point x="1055.0" y="-32.5" type="curve" smooth="yes"/>
      <point x="1091.5" y="-32.5"/>
      <point x="1113.1" y="-59.3"/>
      <point x="1113.1" y="-111.3" type="curve" smooth="yes"/>
      <point x="1112.4" y="-273.6"/>
      <point x="957.1" y="-365.2"/>
      <point x="832.3" y="-365.2" type="curve" smooth="yes"/>
      <point x="757.6" y="-365.2"/>
      <point x="691.0" y="-338.9"/>
      <point x="691.0" y="-274.6" type="curve" smooth="yes"/>
      <point x="691.0" y="-229.0"/>
      <point x="723.5" y="-198.9"/>
      <point x="780.5" y="-187.4" type="curve"/>
      <point x="766.8" y="-134.4" type="line"/>
      <point x="684.8" y="-153.6"/>
      <point x="634.3" y="-201.7"/>
      <point x="634.3" y="-269.6" type="curve" smooth="yes"/>
      <point x="634.3" y="-368.8"/>
      <point x="726.2" y="-419.2"/>
    </contour>
    <component base="a-tamil"/>
  </outline>
</glyph>
<glyph name="i-tamil" format="2">
  <advance width="843.8"/>
  <unicode hex="0B87"/>
  <note>
uni0B87
</note>
  <anchor x="406.7" y="0.0" name="bottom"/>
  <anchor x="404.7" y="-267.8" name="nukta"/>
  <anchor x="417.6" y="819.2" name="top"/>
  <anchor x="412.7" y="554.0" name="vedic"/>
  <outline>
    <contour>
      <point x="200.3" y="-297.0" type="curve" smooth="yes"/>
      <point x="448.7" y="-297.0"/>
      <point x="640.7" y="-37.0"/>
      <point x="640.7" y="239.0" type="curve" smooth="yes"/>
      <point x="640.7" y="435.0"/>
      <point x="546.5" y="559.0"/>
      <point x="397.9" y="559.0" type="curve" smooth="yes"/>
      <point x="301.3" y="559.0"/>
      <point x="219.5" y="499.0"/>
      <point x="219.5" y="382.0" type="curve" smooth="yes"/>
      <point x="219.5" y="300.0"/>
      <point x="274.2" y="248.0"/>
      <point x="341.9" y="248.0" type="curve" smooth="yes"/>
      <point x="415.7" y="248.0"/>
      <point x="463.1" y="298.0"/>
      <point x="463.1" y="374.0" type="curve" smooth="yes"/>
      <point x="463.1" y="436.0"/>
      <point x="424.6" y="499.0"/>
      <point x="351.3" y="517.0" type="curve"/>
      <point x="302.8" y="512.0" type="line"/>
      <point x="352.5" y="497.0"/>
      <point x="385.0" y="440.0"/>
      <point x="385.0" y="384.0" type="curve" smooth="yes"/>
      <point x="385.0" y="336.0"/>
      <point x="364.8" y="300.6"/>
      <point x="326.4" y="300.6" type="curve" smooth="yes"/>
      <point x="290.8" y="300.6"/>
      <point x="270.1" y="334.0"/>
      <point x="270.1" y="380.0" type="curve" smooth="yes"/>
      <point x="270.1" y="460.0"/>
      <point x="316.9" y="505.0"/>
      <point x="387.6" y="505.0" type="curve" smooth="yes"/>
      <point x="495.9" y="505.0"/>
      <point x="549.6" y="403.0"/>
      <point x="549.6" y="262.0" type="curve" smooth="yes"/>
      <point x="549.6" y="0.0"/>
      <point x="431.3" y="-243.0"/>
      <point x="209.6" y="-243.0" type="curve" smooth="yes"/>
      <point x="145.0" y="-243.0"/>
      <point x="105.8" y="-211.0"/>
      <point x="105.8" y="-149.4" type="curve" smooth="yes"/>
      <point x="105.8" y="-17.6"/>
      <point x="264.2" y="57.0"/>
      <point x="398.4" y="57.0" type="curve" smooth="yes"/>
      <point x="532.1" y="57.0"/>
      <point x="698.7" y="-6.3"/>
      <point x="698.7" y="-141.1" type="curve" smooth="yes"/>
      <point x="698.7" y="-214.3"/>
      <point x="647.4" y="-243.0"/>
      <point x="577.4" y="-243.0" type="curve" smooth="yes"/>
      <point x="363.4" y="-243.0"/>
      <point x="123.6" y="82.1"/>
      <point x="123.6" y="384.7" type="curve" smooth="yes"/>
      <point x="123.6" y="641.7"/>
      <point x="258.3" y="729.9"/>
      <point x="416.9" y="729.9" type="curve" smooth="yes"/>
      <point x="625.9" y="729.9"/>
      <point x="732.3" y="576.9"/>
      <point x="732.3" y="353.6" type="curve" smooth="yes"/>
      <point x="732.3" y="86.0" type="line"/>
      <point x="788.2" y="86.0" type="line"/>
      <point x="788.2" y="353.6" type="line" smooth="yes"/>
      <point x="788.2" y="664.9"/>
      <point x="653.8" y="819.2"/>
      <point x="417.6" y="819.2" type="curve" smooth="yes"/>
      <point x="203.3" y="819.2"/>
      <point x="60.6" y="661.4"/>
      <point x="60.6" y="418.7" type="curve" smooth="yes"/>
      <point x="60.6" y="67.7"/>
      <point x="317.5" y="-297.0"/>
      <point x="601.4" y="-297.0" type="curve" smooth="yes"/>
      <point x="690.5" y="-297.0"/>
      <point x="761.7" y="-248.3"/>
      <point x="761.7" y="-155.1" type="curve" smooth="yes"/>
      <point x="761.7" y="25.1"/>
      <point x="564.8" y="110.0"/>
      <point x="398.4" y="110.0" type="curve" smooth="yes"/>
      <point x="227.9" y="110.0"/>
      <point x="44.1" y="21.6"/>
      <point x="44.1" y="-150.1" type="curve" smooth="yes"/>
      <point x="44.1" y="-243.3"/>
      <point x="109.9" y="-297.0"/>
    </contour>
  </outline>
</glyph>
<glyph name="ii-tamil" format="2">
  <advance width="653.2"/>
  <unicode hex="0B88"/>
  <note>
uni0B88
</note>
  <anchor x="343.2" y="0.0" name="bottom"/>
  <anchor x="343.9" y="0.0" name="nukta"/>
  <anchor x="345.2" y="554.0" name="top"/>
  <anchor x="345.9" y="554.0" name="vedic"/>
  <outline>
    <contour>
      <point x="81.9" y="0.0" type="line"/>
      <point x="138.7" y="0.0" type="line"/>
      <point x="138.7" y="500.0" type="line"/>
      <point x="356.3" y="500.0" type="line"/>
      <point x="356.3" y="0.0" type="line"/>
      <point x="447.8" y="0.0" type="line"/>
      <point x="447.8" y="500.0" type="line"/>
      <point x="609.2" y="500.0" type="line"/>
      <point x="609.2" y="554.0" type="line"/>
      <point x="81.9" y="554.0" type="line"/>
    </contour>
    <contour>
      <point x="246.8" y="213.1" type="curve" smooth="yes"/>
      <point x="276.1" y="213.1"/>
      <point x="298.7" y="237.1"/>
      <point x="298.7" y="264.7" type="curve" smooth="yes"/>
      <point x="298.7" y="292.0"/>
      <point x="276.1" y="315.3"/>
      <point x="246.8" y="315.3" type="curve" smooth="yes"/>
      <point x="216.8" y="315.3"/>
      <point x="194.2" y="292.0"/>
      <point x="194.2" y="264.7" type="curve" smooth="yes"/>
      <point x="194.2" y="237.1"/>
      <point x="216.8" y="213.1"/>
    </contour>
    <contour>
      <point x="555.9" y="213.1" type="curve" smooth="yes"/>
      <point x="585.5" y="213.1"/>
      <point x="607.8" y="237.1"/>
      <point x="607.8" y="264.7" type="curve" smooth="yes"/>
      <point x="607.8" y="292.0"/>
      <point x="585.5" y="315.3"/>
      <point x="555.9" y="315.3" type="curve" smooth="yes"/>
      <point x="525.9" y="315.3"/>
      <point x="503.6" y="292.0"/>
      <point x="503.6" y="264.7" type="curve" smooth="yes"/>
      <point x="503.6" y="237.1"/>
      <point x="525.9" y="213.1"/>
    </contour>
  </outline>
</glyph>
<glyph name="u-tamil" format="2">
  <advance width="830.6"/>
  <unicode hex="0B89"/>
  <note>
uni0B89
</note>
  <anchor x="446.6" y="0.0" name="bottom"/>
  <anchor x="447.3" y="0.0" name="nukta"/>
  <anchor x="450.0" y="554.0" name="top"/>
  <anchor x="449.6" y="554.0" name="vedic"/>
  <outline>
    <contour>
      <point x="137.9" y="0.0" type="curve" smooth="yes"/>
      <point x="812.7" y="0.0" type="line"/>
      <point x="812.7" y="54.0" type="line"/>
      <point x="138.3" y="54.0" type="line" smooth="yes"/>
      <point x="120.1" y="54.0"/>
      <point x="99.3" y="69.0"/>
      <point x="99.3" y="94.0" type="curve" smooth="yes"/>
      <point x="99.3" y="120.0"/>
      <point x="120.1" y="135.0"/>
      <point x="138.3" y="135.0" type="curve" smooth="yes"/>
      <point x="326.0" y="135.0" type="line" smooth="yes"/>
      <point x="451.9" y="135.0"/>
      <point x="546.8" y="200.0"/>
      <point x="546.8" y="336.0" type="curve" smooth="yes"/>
      <point x="546.8" y="481.0"/>
      <point x="441.6" y="559.0"/>
      <point x="310.3" y="559.0" type="curve" smooth="yes"/>
      <point x="198.4" y="559.0"/>
      <point x="117.3" y="492.9"/>
      <point x="117.3" y="382.9" type="curve" smooth="yes"/>
      <point x="117.3" y="304.2"/>
      <point x="166.4" y="247.0"/>
      <point x="242.3" y="247.0" type="curve" smooth="yes"/>
      <point x="314.5" y="247.0"/>
      <point x="366.5" y="293.2"/>
      <point x="366.5" y="374.9" type="curve" smooth="yes"/>
      <point x="366.5" y="449.2"/>
      <point x="314.7" y="511.6"/>
      <point x="257.1" y="519.0" type="curve"/>
      <point x="212.2" y="516.0" type="line"/>
      <point x="257.2" y="500.0"/>
      <point x="287.4" y="436.9"/>
      <point x="287.4" y="383.9" type="curve" smooth="yes"/>
      <point x="287.4" y="334.2"/>
      <point x="268.0" y="301.0"/>
      <point x="228.3" y="301.0" type="curve" smooth="yes"/>
      <point x="194.9" y="301.0"/>
      <point x="167.6" y="325.9"/>
      <point x="167.6" y="379.9" type="curve" smooth="yes"/>
      <point x="167.6" y="458.9"/>
      <point x="220.4" y="505.0"/>
      <point x="294.2" y="505.0" type="curve" smooth="yes"/>
      <point x="381.7" y="505.0"/>
      <point x="455.3" y="447.0"/>
      <point x="455.3" y="349.0" type="curve" smooth="yes"/>
      <point x="455.3" y="244.0"/>
      <point x="402.6" y="188.0"/>
      <point x="312.7" y="188.0" type="curve" smooth="yes"/>
      <point x="137.9" y="188.0" type="line" smooth="yes"/>
      <point x="85.1" y="188.0"/>
      <point x="45.5" y="154.0"/>
      <point x="45.5" y="94.0" type="curve" smooth="yes"/>
      <point x="45.5" y="35.0"/>
      <point x="85.1" y="0.0"/>
    </contour>
  </outline>
</glyph>
<glyph name="uu-tamil" format="2">
  <advance width="1406.4"/>
  <unicode hex="0B8A"/>
  <note>
uni0B8A
</note>
  <anchor x="729.6" y="0.0" name="bottom"/>
  <anchor x="729.9" y="0.0" name="nukta"/>
  <anchor x="732.9" y="554.0" name="top"/>
  <anchor x="732.6" y="554.0" name="vedic"/>
  <outline>
    <contour>
      <point x="133.7" y="0.0" type="curve" smooth="yes"/>
      <point x="1383.5" y="0.0" type="line"/>
      <point x="1383.5" y="54.0" type="line"/>
      <point x="134.1" y="54.0" type="line" smooth="yes"/>
      <point x="115.2" y="54.0"/>
      <point x="99.3" y="69.0"/>
      <point x="99.3" y="94.0" type="curve" smooth="yes"/>
      <point x="99.3" y="120.0"/>
      <point x="115.2" y="135.0"/>
      <point x="134.1" y="135.0" type="curve" smooth="yes"/>
      <point x="326.0" y="135.0" type="line" smooth="yes"/>
      <point x="451.9" y="135.0"/>
      <point x="546.8" y="200.0"/>
      <point x="546.8" y="336.0" type="curve" smooth="yes"/>
      <point x="546.8" y="481.0"/>
      <point x="441.6" y="559.0"/>
      <point x="310.3" y="559.0" type="curve" smooth="yes"/>
      <point x="198.4" y="559.0"/>
      <point x="117.3" y="492.9"/>
      <point x="117.3" y="382.9" type="curve" smooth="yes"/>
      <point x="117.3" y="304.2"/>
      <point x="166.4" y="247.0"/>
      <point x="242.3" y="247.0" type="curve" smooth="yes"/>
      <point x="314.5" y="247.0"/>
      <point x="366.5" y="293.2"/>
      <point x="366.5" y="374.9" type="curve" smooth="yes"/>
      <point x="366.5" y="449.2"/>
      <point x="314.7" y="511.6"/>
      <point x="257.1" y="519.0" type="curve"/>
      <point x="212.2" y="516.0" type="line"/>
      <point x="257.2" y="500.0"/>
      <point x="287.4" y="436.9"/>
      <point x="287.4" y="383.9" type="curve" smooth="yes"/>
      <point x="287.4" y="334.2"/>
      <point x="268.0" y="301.0"/>
      <point x="228.3" y="301.0" type="curve" smooth="yes"/>
      <point x="194.9" y="301.0"/>
      <point x="167.6" y="325.9"/>
      <point x="167.6" y="379.9" type="curve" smooth="yes"/>
      <point x="167.6" y="458.9"/>
      <point x="220.4" y="505.0"/>
      <point x="294.2" y="505.0" type="curve" smooth="yes"/>
      <point x="381.7" y="505.0"/>
      <point x="455.3" y="447.0"/>
      <point x="455.3" y="349.0" type="curve" smooth="yes"/>
      <point x="455.3" y="244.0"/>
      <point x="402.6" y="188.0"/>
      <point x="312.7" y="188.0" type="curve" smooth="yes"/>
      <point x="133.7" y="188.0" type="line" smooth="yes"/>
      <point x="80.9" y="188.0"/>
      <point x="45.5" y="154.0"/>
      <point x="45.5" y="94.0" type="curve" smooth="yes"/>
      <point x="45.5" y="35.0"/>
      <point x="80.9" y="0.0"/>
    </contour>
    <contour>
      <point x="772.9" y="103.0" type="curve" smooth="yes"/>
      <point x="859.0" y="103.0"/>
      <point x="907.3" y="163.7"/>
      <point x="907.3" y="242.0" type="curve" smooth="yes"/>
      <point x="907.3" y="338.2"/>
      <point x="853.2" y="390.0"/>
      <point x="782.8" y="390.0" type="curve" smooth="yes"/>
      <point x="719.2" y="390.0"/>
      <point x="664.1" y="334.0"/>
      <point x="654.0" y="252.0" type="curve"/>
      <point x="668.0" y="209.0" type="line"/>
      <point x="677.1" y="272.0"/>
      <point x="717.6" y="327.0"/>
      <point x="761.9" y="327.0" type="curve" smooth="yes"/>
      <point x="797.0" y="327.0"/>
      <point x="824.8" y="302.3"/>
      <point x="824.8" y="245.0" type="curve" smooth="yes"/>
      <point x="824.8" y="193.0"/>
      <point x="803.1" y="156.0"/>
      <point x="759.8" y="156.0" type="curve" smooth="yes"/>
      <point x="708.3" y="156.0"/>
      <point x="669.5" y="204.0"/>
      <point x="669.5" y="319.0" type="curve" smooth="yes"/>
      <point x="669.5" y="424.3"/>
      <point x="729.6" y="505.0"/>
      <point x="821.8" y="505.0" type="curve" smooth="yes"/>
      <point x="922.7" y="505.0"/>
      <point x="984.1" y="418.0"/>
      <point x="984.8" y="301.0" type="curve"/>
      <point x="1028.9" y="301.0" type="line"/>
      <point x="1028.2" y="458.0"/>
      <point x="953.3" y="559.0"/>
      <point x="819.8" y="559.0" type="curve" smooth="yes"/>
      <point x="693.0" y="559.0"/>
      <point x="615.4" y="453.2"/>
      <point x="615.4" y="317.0" type="curve" smooth="yes"/>
      <point x="615.4" y="181.0"/>
      <point x="678.4" y="103.0"/>
    </contour>
    <contour>
      <point x="984.8" y="107.0" type="line"/>
      <point x="1074.2" y="107.0" type="line"/>
      <point x="1074.2" y="502.0" type="line"/>
      <point x="1210.1" y="502.0" type="line"/>
      <point x="1210.1" y="107.0" type="line"/>
      <point x="1298.8" y="107.0" type="line"/>
      <point x="1298.8" y="502.0" type="line"/>
      <point x="1383.5" y="502.0" type="line"/>
      <point x="1383.5" y="554.0" type="line"/>
      <point x="995.4" y="554.0" type="line"/>
      <point x="995.4" y="379.0" type="line"/>
      <point x="984.8" y="375.0" type="line"/>
    </contour>
  </outline>
</glyph>
<glyph name="e-tamil" format="2">
  <advance width="774.9"/>
  <unicode hex="0B8E"/>
  <note>
uni0B8E
</note>
  <anchor x="404.9" y="0.0" name="bottom"/>
  <anchor x="405.9" y="0.0" name="nukta"/>
  <anchor x="407.3" y="554.0" name="top"/>
  <anchor x="407.9" y="554.0" name="vedic"/>
  <outline>
    <contour>
      <point x="231.1" y="-5.0" type="curve" smooth="yes"/>
      <point x="326.1" y="-5.0"/>
      <point x="384.1" y="57.6"/>
      <point x="384.1" y="151.4" type="curve" smooth="yes"/>
      <point x="384.1" y="244.1"/>
      <point x="331.7" y="303.0"/>
      <point x="252.4" y="303.0" type="curve" smooth="yes"/>
      <point x="162.1" y="303.0"/>
      <point x="104.6" y="217.8"/>
      <point x="101.1" y="119.5" type="curve"/>
      <point x="129.7" y="93.2" type="line"/>
      <point x="131.5" y="174.2"/>
      <point x="169.3" y="236.0"/>
      <point x="223.1" y="236.0" type="curve" smooth="yes"/>
      <point x="275.4" y="236.0"/>
      <point x="296.7" y="190.0"/>
      <point x="296.7" y="146.0" type="curve" smooth="yes"/>
      <point x="296.7" y="91.0"/>
      <point x="271.7" y="49.0"/>
      <point x="215.5" y="49.0" type="curve" smooth="yes"/>
      <point x="151.3" y="49.0"/>
      <point x="103.0" y="115.7"/>
      <point x="103.0" y="249.7" type="curve" smooth="yes"/>
      <point x="103.0" y="414.7"/>
      <point x="193.3" y="500.0"/>
      <point x="340.3" y="500.0" type="curve" smooth="yes"/>
      <point x="525.5" y="500.0" type="line"/>
      <point x="525.5" y="0.0" type="line"/>
      <point x="617.0" y="0.0" type="line"/>
      <point x="617.0" y="500.0" type="line"/>
      <point x="753.1" y="500.0" type="line"/>
      <point x="753.1" y="554.0" type="line"/>
      <point x="337.3" y="554.0" type="line" smooth="yes"/>
      <point x="168.8" y="554.0"/>
      <point x="48.5" y="450.9"/>
      <point x="48.5" y="250.7" type="curve" smooth="yes"/>
      <point x="48.5" y="83.0"/>
      <point x="127.7" y="-5.0"/>
    </contour>
  </outline>
</glyph>
<glyph name="ai-tamil" format="2">
  <advance width="823.1"/>
  <unicode hex="0B90"/>
  <note>
uni0B90
</note>
  <anchor x="415.9" y="0.0" name="bottom"/>
  <anchor x="410.4" y="-296.0" name="nukta"/>
  <anchor x="425.7" y="554.0" name="top"/>
  <anchor x="421.2" y="554.0" name="vedic"/>
  <outline>
    <contour>
      <point x="249.6" y="-296.0" type="curve" smooth="yes"/>
      <point x="338.0" y="-296.0"/>
      <point x="406.3" y="-253.6"/>
      <point x="426.2" y="-181.6" type="curve"/>
      <point x="443.7" y="-248.6"/>
      <point x="503.1" y="-296.0"/>
      <point x="591.9" y="-296.0" type="curve" smooth="yes"/>
      <point x="697.9" y="-296.0"/>
      <point x="774.9" y="-234.9"/>
      <point x="774.9" y="-99.3" type="curve" smooth="yes"/>
      <point x="774.9" y="-35.3"/>
      <point x="754.7" y="17.4"/>
      <point x="718.0" y="75.9" type="curve"/>
      <point x="673.1" y="47.1" type="line"/>
      <point x="703.2" y="0.30000000000000004"/>
      <point x="720.8" y="-45.6"/>
      <point x="720.8" y="-93.0" type="curve" smooth="yes"/>
      <point x="720.8" y="-192.3"/>
      <point x="670.4" y="-235.0"/>
      <point x="591.2" y="-235.0" type="curve" smooth="yes"/>
      <point x="514.4" y="-235.0"/>
      <point x="474.8" y="-171.0"/>
      <point x="474.8" y="-74.0" type="curve" smooth="yes"/>
      <point x="474.8" y="-41.0" type="line"/>
      <point x="382.9" y="-41.0" type="line"/>
      <point x="382.9" y="-88.0" type="line" smooth="yes"/>
      <point x="382.9" y="-188.0"/>
      <point x="337.0" y="-241.0"/>
      <point x="259.5" y="-241.0" type="curve" smooth="yes"/>
      <point x="187.7" y="-241.0"/>
      <point x="141.4" y="-197.0"/>
      <point x="141.4" y="-117.0" type="curve" smooth="yes"/>
      <point x="141.4" y="32.0"/>
      <point x="262.8" y="65.4"/>
      <point x="444.4" y="77.4" type="curve" smooth="yes"/>
      <point x="614.5" y="89.1"/>
      <point x="772.7" y="137.0"/>
      <point x="772.7" y="340.0" type="curve" smooth="yes"/>
      <point x="772.7" y="505.0"/>
      <point x="686.4" y="559.0"/>
      <point x="591.2" y="559.0" type="curve" smooth="yes"/>
      <point x="515.0" y="559.0"/>
      <point x="456.5" y="520.5"/>
      <point x="432.5" y="442.5" type="curve"/>
      <point x="404.2" y="521.5"/>
      <point x="331.7" y="559.0"/>
      <point x="253.8" y="559.0" type="curve" smooth="yes"/>
      <point x="137.0" y="559.0"/>
      <point x="51.8" y="476.0"/>
      <point x="51.8" y="349.0" type="curve" smooth="yes"/>
      <point x="51.8" y="238.0"/>
      <point x="109.9" y="156.0"/>
      <point x="194.5" y="156.0" type="curve" smooth="yes"/>
      <point x="267.7" y="156.0"/>
      <point x="318.2" y="205.0"/>
      <point x="318.2" y="276.0" type="curve" smooth="yes"/>
      <point x="318.2" y="361.0"/>
      <point x="274.4" y="412.0"/>
      <point x="210.0" y="412.0" type="curve" smooth="yes"/>
      <point x="158.6" y="412.0"/>
      <point x="100.3" y="378.0"/>
      <point x="92.1" y="262.0" type="curve"/>
      <point x="113.5" y="224.0" type="line"/>
      <point x="118.3" y="322.0"/>
      <point x="154.9" y="349.2"/>
      <point x="187.6" y="349.2" type="curve" smooth="yes"/>
      <point x="220.9" y="349.2"/>
      <point x="239.2" y="322.6"/>
      <point x="239.2" y="279.0" type="curve" smooth="yes"/>
      <point x="239.2" y="237.7"/>
      <point x="219.1" y="210.0"/>
      <point x="185.1" y="210.0" type="curve" smooth="yes"/>
      <point x="144.6" y="210.0"/>
      <point x="107.3" y="243.0"/>
      <point x="107.3" y="344.0" type="curve" smooth="yes"/>
      <point x="107.3" y="448.0"/>
      <point x="168.6" y="505.0"/>
      <point x="242.2" y="505.0" type="curve" smooth="yes"/>
      <point x="326.6" y="505.0"/>
      <point x="382.9" y="454.1"/>
      <point x="382.9" y="340.5" type="curve" smooth="yes"/>
      <point x="382.9" y="215.0" type="line"/>
      <point x="474.8" y="215.0" type="line"/>
      <point x="474.8" y="366.5" type="line" smooth="yes"/>
      <point x="474.8" y="448.8"/>
      <point x="512.5" y="505.0"/>
      <point x="577.5" y="505.0" type="curve" smooth="yes"/>
      <point x="649.2" y="505.0"/>
      <point x="679.8" y="445.0"/>
      <point x="679.8" y="350.0" type="curve" smooth="yes"/>
      <point x="679.8" y="185.0"/>
      <point x="579.3" y="129.6"/>
      <point x="379.7" y="116.6" type="curve" smooth="yes"/>
      <point x="186.6" y="103.9"/>
      <point x="48.5" y="62.0"/>
      <point x="48.5" y="-105.0" type="curve" smooth="yes"/>
      <point x="48.5" y="-225.0"/>
      <point x="132.0" y="-296.0"/>
    </contour>
  </outline>
</glyph>
<glyph name="o-tamil" format="2">
  <advance width="834.9"/>
  <unicode hex="0B92"/>
  <note>
uni0B92
</note>
  <anchor x="427.7" y="0.0" name="bottom"/>
  <anchor x="425.7" y="-335.0" name="nukta"/>
  <anchor x="420.7" y="554.0" name="top"/>
  <anchor x="420.7" y="554.0" name="vedic"/>
  <outline>
    <contour>
      <point x="317.2" y="-307.2" type="curve" smooth="yes"/>
      <point x="480.8" y="-307.2"/>
      <point x="499.0" y="-138.3"/>
      <point x="641.1" y="-138.3" type="curve" smooth="yes"/>
      <point x="674.1" y="-138.3" type="line"/>
      <point x="674.1" y="-84.6" type="line"/>
      <point x="634.8" y="-84.6" type="line" smooth="yes"/>
      <point x="506.5" y="-84.6"/>
      <point x="421.0" y="36.400000000000006"/>
      <point x="509.3" y="193.3" type="curve"/>
      <point x="515.0" y="190.0" type="line"/>
      <point x="488.0" y="88.5"/>
      <point x="514.7" y="-5.0"/>
      <point x="626.7" y="-5.0" type="curve" smooth="yes"/>
      <point x="716.5" y="-5.0"/>
      <point x="786.7" y="72.0"/>
      <point x="786.7" y="195.4" type="curve" smooth="yes"/>
      <point x="786.7" y="419.3"/>
      <point x="620.3" y="559.0"/>
      <point x="401.6" y="559.0" type="curve" smooth="yes"/>
      <point x="208.2" y="559.0"/>
      <point x="48.5" y="423.6"/>
      <point x="48.5" y="236.8" type="curve" smooth="yes"/>
      <point x="48.5" y="75.5"/>
      <point x="128.3" y="-5.0"/>
      <point x="231.1" y="-5.0" type="curve" smooth="yes"/>
      <point x="326.1" y="-5.0"/>
      <point x="384.1" y="57.9"/>
      <point x="384.1" y="151.4" type="curve" smooth="yes"/>
      <point x="384.1" y="244.1"/>
      <point x="331.7" y="303.3"/>
      <point x="252.4" y="303.3" type="curve" smooth="yes"/>
      <point x="162.1" y="303.3"/>
      <point x="104.6" y="217.8"/>
      <point x="101.1" y="119.8" type="curve"/>
      <point x="129.7" y="93.5" type="line"/>
      <point x="130.8" y="174.5"/>
      <point x="169.3" y="236.0"/>
      <point x="223.1" y="236.0" type="curve" smooth="yes"/>
      <point x="275.4" y="236.0"/>
      <point x="296.7" y="190.3"/>
      <point x="296.7" y="146.0" type="curve" smooth="yes"/>
      <point x="296.7" y="91.3"/>
      <point x="271.7" y="49.0"/>
      <point x="215.5" y="49.0" type="curve" smooth="yes"/>
      <point x="151.6" y="49.0"/>
      <point x="103.0" y="107.8"/>
      <point x="103.0" y="235.5" type="curve" smooth="yes"/>
      <point x="103.0" y="397.8"/>
      <point x="243.9" y="505.0"/>
      <point x="401.5" y="505.0" type="curve" smooth="yes"/>
      <point x="575.5" y="505.0"/>
      <point x="696.6" y="394.0"/>
      <point x="696.6" y="205.4" type="curve" smooth="yes"/>
      <point x="696.6" y="113.0"/>
      <point x="663.4" y="49.0"/>
      <point x="609.5" y="49.0" type="curve" smooth="yes"/>
      <point x="535.6" y="49.0"/>
      <point x="535.8" y="152.9"/>
      <point x="579.9" y="253.7" type="curve"/>
      <point x="518.3" y="285.8" type="line"/>
      <point x="365.9" y="86.9"/>
      <point x="426.1" y="-60.1"/>
      <point x="533.2" y="-106.6" type="curve"/>
      <point x="533.2" y="-111.6" type="line"/>
      <point x="420.1" y="-129.0"/>
      <point x="404.4" y="-241.9"/>
      <point x="296.1" y="-241.9" type="curve" smooth="yes"/>
      <point x="253.8" y="-241.9"/>
      <point x="220.4" y="-217.2"/>
      <point x="220.4" y="-169.4" type="curve" smooth="yes"/>
      <point x="220.4" y="-135.3"/>
      <point x="234.2" y="-114.2"/>
      <point x="264.8" y="-85.9" type="curve"/>
      <point x="225.1" y="-49.1" type="line"/>
      <point x="184.0" y="-88.7"/>
      <point x="165.6" y="-119.3"/>
      <point x="165.6" y="-168.4" type="curve" smooth="yes"/>
      <point x="165.6" y="-256.0"/>
      <point x="232.1" y="-307.2"/>
    </contour>
  </outline>
</glyph>
<glyph name="oo-tamil" format="2">
  <advance width="834.9"/>
  <unicode hex="0B93"/>
  <note>
uni0B93
</note>
  <anchor x="415.1" y="0.0" name="bottom"/>
  <anchor x="413.1" y="-284.2" name="nukta"/>
  <anchor x="408.1" y="554.0" name="top"/>
  <anchor x="408.1" y="554.0" name="vedic"/>
  <outline>
    <contour>
      <point x="297.4" y="-317.9" type="curve" smooth="yes"/>
      <point x="474.6" y="-317.9"/>
      <point x="497.2" y="-138.3"/>
      <point x="635.1" y="-138.3" type="curve" smooth="yes"/>
      <point x="663.1" y="-138.3" type="line"/>
      <point x="663.1" y="-84.6" type="line"/>
      <point x="632.1" y="-84.6" type="line" smooth="yes"/>
      <point x="503.8" y="-84.6"/>
      <point x="419.6" y="36.400000000000006"/>
      <point x="509.3" y="193.3" type="curve"/>
      <point x="515.0" y="190.0" type="line"/>
      <point x="488.0" y="88.5"/>
      <point x="514.7" y="-5.0"/>
      <point x="626.7" y="-5.0" type="curve" smooth="yes"/>
      <point x="716.5" y="-5.0"/>
      <point x="786.7" y="72.0"/>
      <point x="786.7" y="195.4" type="curve" smooth="yes"/>
      <point x="786.7" y="419.3"/>
      <point x="620.3" y="559.0"/>
      <point x="401.6" y="559.0" type="curve" smooth="yes"/>
      <point x="208.2" y="559.0"/>
      <point x="48.5" y="423.6"/>
      <point x="48.5" y="236.8" type="curve" smooth="yes"/>
      <point x="48.5" y="75.5"/>
      <point x="128.3" y="-5.0"/>
      <point x="231.1" y="-5.0" type="curve" smooth="yes"/>
      <point x="326.1" y="-5.0"/>
      <point x="384.1" y="57.9"/>
      <point x="384.1" y="151.4" type="curve" smooth="yes"/>
      <point x="384.1" y="244.1"/>
      <point x="331.7" y="303.3"/>
      <point x="252.4" y="303.3" type="curve" smooth="yes"/>
      <point x="162.1" y="303.3"/>
      <point x="104.6" y="217.8"/>
      <point x="101.1" y="119.8" type="curve"/>
      <point x="129.7" y="93.5" type="line"/>
      <point x="130.8" y="174.5"/>
      <point x="169.3" y="236.0"/>
      <point x="223.1" y="236.0" type="curve" smooth="yes"/>
      <point x="275.4" y="236.0"/>
      <point x="296.7" y="190.3"/>
      <point x="296.7" y="146.0" type="curve" smooth="yes"/>
      <point x="296.7" y="91.3"/>
      <point x="271.7" y="49.0"/>
      <point x="215.5" y="49.0" type="curve" smooth="yes"/>
      <point x="151.6" y="49.0"/>
      <point x="103.0" y="107.8"/>
      <point x="103.0" y="235.5" type="curve" smooth="yes"/>
      <point x="103.0" y="397.8"/>
      <point x="243.9" y="505.0"/>
      <point x="401.5" y="505.0" type="curve" smooth="yes"/>
      <point x="575.5" y="505.0"/>
      <point x="696.6" y="394.0"/>
      <point x="696.6" y="205.4" type="curve" smooth="yes"/>
      <point x="696.6" y="113.0"/>
      <point x="663.4" y="49.0"/>
      <point x="609.5" y="49.0" type="curve" smooth="yes"/>
      <point x="535.6" y="49.0"/>
      <point x="535.8" y="152.9"/>
      <point x="579.9" y="253.7" type="curve"/>
      <point x="518.3" y="285.8" type="line"/>
      <point x="364.5" y="86.9"/>
      <point x="423.1" y="-60.1"/>
      <point x="530.2" y="-106.6" type="curve"/>
      <point x="530.2" y="-111.6" type="line"/>
      <point x="417.4" y="-130.5"/>
      <point x="401.3" y="-255.4"/>
      <point x="273.6" y="-255.4" type="curve" smooth="yes"/>
      <point x="223.2" y="-255.4"/>
      <point x="193.4" y="-226.9"/>
      <point x="193.4" y="-186.8" type="curve" smooth="yes"/>
      <point x="193.4" y="-152.9"/>
      <point x="222.3" y="-129.2"/>
      <point x="253.0" y="-129.2" type="curve" smooth="yes"/>
      <point x="284.8" y="-129.2"/>
      <point x="310.7" y="-145.5"/>
      <point x="322.0" y="-179.5" type="curve"/>
      <point x="349.7" y="-167.5"/>
      <point x="369.3" y="-142.0"/>
      <point x="369.3" y="-118.0" type="curve" smooth="yes"/>
      <point x="369.3" y="-76.9"/>
      <point x="328.4" y="-53.5"/>
      <point x="281.9" y="-53.5" type="curve" smooth="yes"/>
      <point x="213.9" y="-53.5"/>
      <point x="144.2" y="-101.3"/>
      <point x="144.2" y="-182.8" type="curve" smooth="yes"/>
      <point x="144.2" y="-269.8"/>
      <point x="212.8" y="-317.9"/>
    </contour>
  </outline>
</glyph>
<glyph name="au-tamil" format="2">
  <advance width="1852.0"/>
  <unicode hex="0B94"/>
  <note>
uni0B94
</note>
  <anchor x="949.9" y="0.0" name="bottom"/>
  <anchor x="1018.3" y="0.0" name="nukta"/>
  <anchor x="942.9" y="554.0" name="top"/>
  <anchor x="942.9" y="554.0" name="vedic"/>
  <outline>
    <contour>
      <point x="1046.8" y="-4.7" type="curve" smooth="yes"/>
      <point x="1140.8" y="-4.7"/>
      <point x="1199.8" y="57.9"/>
      <point x="1199.8" y="151.4" type="curve" smooth="yes"/>
      <point x="1199.8" y="244.1"/>
      <point x="1147.1" y="303.3"/>
      <point x="1067.1" y="303.3" type="curve" smooth="yes"/>
      <point x="977.8" y="303.3"/>
      <point x="920.3" y="217.8"/>
      <point x="916.1" y="119.8" type="curve"/>
      <point x="944.7" y="93.5" type="line"/>
      <point x="946.5" y="174.5"/>
      <point x="985.0" y="236.0"/>
      <point x="1037.8" y="236.0" type="curve" smooth="yes"/>
      <point x="1090.4" y="236.0"/>
      <point x="1111.7" y="190.3"/>
      <point x="1111.7" y="146.0" type="curve" smooth="yes"/>
      <point x="1111.7" y="91.3"/>
      <point x="1087.4" y="49.0"/>
      <point x="1031.2" y="49.0" type="curve" smooth="yes"/>
      <point x="966.0" y="49.0"/>
      <point x="918.7" y="115.7"/>
      <point x="918.7" y="249.7" type="curve" smooth="yes"/>
      <point x="918.7" y="415.0"/>
      <point x="999.9" y="505.0"/>
      <point x="1131.5" y="505.0" type="curve" smooth="yes"/>
      <point x="1252.3" y="505.0"/>
      <point x="1338.7" y="430.5"/>
      <point x="1338.7" y="275.3" type="curve"/>
      <point x="1393.0" y="280.0" type="line"/>
      <point x="1383.1" y="472.5"/>
      <point x="1277.9" y="559.0"/>
      <point x="1128.0" y="559.0" type="curve" smooth="yes"/>
      <point x="973.1" y="559.0"/>
      <point x="863.9" y="454.0"/>
      <point x="863.9" y="250.7" type="curve" smooth="yes"/>
      <point x="863.9" y="83.0"/>
      <point x="943.4" y="-4.7"/>
    </contour>
    <contour>
      <point x="1339.4" y="0.0" type="line"/>
      <point x="1429.9" y="0.0" type="line"/>
      <point x="1429.9" y="500.0" type="line"/>
      <point x="1603.3" y="500.0" type="line"/>
      <point x="1603.3" y="0.0" type="line"/>
      <point x="1693.4" y="0.0" type="line"/>
      <point x="1693.4" y="500.0" type="line"/>
      <point x="1830.2" y="500.0" type="line"/>
      <point x="1830.2" y="554.0" type="line"/>
      <point x="1352.5" y="554.0" type="line"/>
      <point x="1352.5" y="387.0" type="line"/>
      <point x="1339.4" y="382.0" type="line"/>
    </contour>
    <component base="o-tamil"/>
  </outline>
</glyph>
<glyph name="tta-tamil" format="2">
  <advance width="746.5"/>
  <unicode hex="0B9F"/>
  <note>
uni0B9F
</note>
  <anchor x="396.7" y="0.0" name="bottom"/>
  <anchor x="396.7" y="0.0" name="nukta"/>
  <anchor x="413.2" y="554.0" name="top"/>
  <anchor x="405.8" y="554.0" name="vedic"/>
  <outline>
    <contour>
      <point x="81.9" y="0.0" type="line"/>
      <point x="729.7" y="0.0" type="line"/>
      <point x="729.7" y="54.0" type="line"/>
      <point x="173.1" y="54.0" type="line"/>
      <point x="173.1" y="554.0" type="line"/>
      <point x="81.9" y="554.0" type="line"/>
    </contour>
  </outline>
</glyph>
<glyph name="nna-tamil" format="2">
  <advance width="1454.9"/>
  <unicode hex="0BA3"/>
  <note>
uni0BA3
</note>
  <anchor x="777.7" y="0.0" name="bottom"/>
  <anchor x="1321.3" y="554.0" name="imatra"/>
  <anchor x="776.3" y="0.0" name="nukta"/>
  <anchor x="768.7" y="554.0" name="top"/>
  <anchor x="751.0" y="554.0" name="vedic"/>
  <outline>
    <contour>
      <point x="586.4" y="-5.0" type="curve" smooth="yes"/>
      <point x="679.5" y="-5.0"/>
      <point x="742.7" y="65.8"/>
      <point x="742.7" y="187.0" type="curve" smooth="yes"/>
      <point x="742.7" y="404.3"/>
      <point x="590.8" y="559.0"/>
      <point x="371.7" y="559.0" type="curve" smooth="yes"/>
      <point x="196.8" y="559.0"/>
      <point x="48.5" y="452.0"/>
      <point x="48.5" y="245.9" type="curve" smooth="yes"/>
      <point x="48.5" y="81.2"/>
      <point x="128.5" y="-4.7"/>
      <point x="230.0" y="-4.7" type="curve" smooth="yes"/>
      <point x="324.7" y="-4.7"/>
      <point x="383.4" y="57.9"/>
      <point x="383.4" y="151.4" type="curve" smooth="yes"/>
      <point x="383.4" y="244.1"/>
      <point x="331.0" y="303.3"/>
      <point x="251.0" y="303.3" type="curve" smooth="yes"/>
      <point x="161.7" y="303.3"/>
      <point x="104.9" y="217.8"/>
      <point x="101.4" y="119.8" type="curve"/>
      <point x="130.0" y="93.5" type="line"/>
      <point x="131.8" y="174.5"/>
      <point x="168.9" y="236.0"/>
      <point x="221.7" y="236.0" type="curve" smooth="yes"/>
      <point x="274.3" y="236.0"/>
      <point x="295.6" y="190.3"/>
      <point x="295.6" y="146.0" type="curve" smooth="yes"/>
      <point x="295.6" y="91.3"/>
      <point x="271.3" y="49.0"/>
      <point x="215.1" y="49.0" type="curve" smooth="yes"/>
      <point x="150.8" y="49.0"/>
      <point x="103.0" y="113.9"/>
      <point x="103.0" y="244.3" type="curve" smooth="yes"/>
      <point x="103.0" y="414.7"/>
      <point x="218.6" y="505.0"/>
      <point x="364.0" y="505.0" type="curve" smooth="yes"/>
      <point x="533.8" y="505.0"/>
      <point x="650.3" y="392.0"/>
      <point x="650.3" y="187.3" type="curve" smooth="yes"/>
      <point x="650.3" y="99.0"/>
      <point x="623.9" y="49.0"/>
      <point x="572.6" y="49.0" type="curve" smooth="yes"/>
      <point x="524.0" y="49.0"/>
      <point x="497.2" y="96.1"/>
      <point x="497.2" y="185.3" type="curve" smooth="yes"/>
      <point x="497.2" y="352.6"/>
      <point x="586.2" y="505.0"/>
      <point x="761.0" y="505.0" type="curve" smooth="yes"/>
      <point x="926.3" y="505.0"/>
      <point x="1021.1" y="368.1"/>
      <point x="1021.1" y="184.0" type="curve" smooth="yes"/>
      <point x="1021.1" y="94.8"/>
      <point x="991.8" y="49.0"/>
      <point x="942.6" y="49.0" type="curve" smooth="yes"/>
      <point x="894.0" y="49.0"/>
      <point x="867.3" y="98.2"/>
      <point x="867.3" y="186.2" type="curve" smooth="yes"/>
      <point x="867.3" y="357.6"/>
      <point x="966.6" y="500.0"/>
      <point x="1146.8" y="500.0" type="curve" smooth="yes"/>
      <point x="1433.1" y="500.0" type="line"/>
      <point x="1433.1" y="554.0" type="line"/>
      <point x="1146.1" y="554.0" type="line" smooth="yes"/>
      <point x="939.0" y="554.0"/>
      <point x="813.4" y="399.0"/>
      <point x="813.4" y="189.0" type="curve" smooth="yes"/>
      <point x="813.4" y="65.7"/>
      <point x="863.0" y="-5.0"/>
      <point x="956.1" y="-5.0" type="curve" smooth="yes"/>
      <point x="1046.8" y="-5.0"/>
      <point x="1113.5" y="62.5"/>
      <point x="1113.5" y="183.4" type="curve" smooth="yes"/>
      <point x="1113.5" y="386.9"/>
      <point x="986.4" y="559.0"/>
      <point x="768.7" y="559.0" type="curve" smooth="yes"/>
      <point x="563.7" y="559.0"/>
      <point x="442.6" y="389.3"/>
      <point x="442.6" y="189.3" type="curve" smooth="yes"/>
      <point x="442.6" y="65.1"/>
      <point x="492.7" y="-5.0"/>
    </contour>
    <contour>
      <point x="1205.5" y="0.0" type="line"/>
      <point x="1297.0" y="0.0" type="line"/>
      <point x="1297.0" y="529.0" type="line"/>
      <point x="1205.5" y="529.0" type="line"/>
    </contour>
  </outline>
</glyph>
<glyph name="na-tamil" format="2">
  <advance width="671.3"/>
  <unicode hex="0BA8"/>
  <note>
uni0BA8
</note>
  <anchor x="330.0" y="0.0" name="bottom"/>
  <anchor x="467.0" y="554.0" name="imatra"/>
  <anchor x="354.2" y="-181.0" name="nukta"/>
  <anchor x="333.1" y="554.0" name="top"/>
  <anchor x="343.4" y="554.0" name="vedic"/>
  <outline>
    <contour>
      <point x="153.4" y="-249.0" type="curve"/>
      <point x="153.4" y="-180.0"/>
      <point x="169.9" y="-139.3"/>
      <point x="250.3" y="-139.3" type="curve" smooth="yes"/>
      <point x="326.8" y="-139.3" type="line" smooth="yes"/>
      <point x="498.0" y="-139.3"/>
      <point x="620.3" y="-62.0"/>
      <point x="620.3" y="143.0" type="curve" smooth="yes"/>
      <point x="620.3" y="275.0"/>
      <point x="561.6" y="345.0"/>
      <point x="477.0" y="345.0" type="curve" smooth="yes"/>
      <point x="417.6" y="345.0"/>
      <point x="388.4" y="309.7"/>
      <point x="377.3" y="283.9" type="curve"/>
      <point x="377.3" y="500.0" type="line"/>
      <point x="520.5" y="500.0" type="line"/>
      <point x="520.5" y="554.0" type="line"/>
      <point x="89.4" y="554.0" type="line"/>
      <point x="89.4" y="0.0" type="line"/>
      <point x="146.2" y="0.0" type="line"/>
      <point x="146.2" y="500.0" type="line"/>
      <point x="286.1" y="500.0" type="line"/>
      <point x="286.1" y="0.0" type="line"/>
      <point x="377.3" y="0.0" type="line"/>
      <point x="377.3" y="196.3" type="line" smooth="yes"/>
      <point x="377.3" y="240.9"/>
      <point x="400.8" y="280.4"/>
      <point x="445.4" y="280.4" type="curve" smooth="yes"/>
      <point x="492.6" y="280.4"/>
      <point x="527.1" y="239.0"/>
      <point x="527.1" y="132.0" type="curve" smooth="yes"/>
      <point x="527.1" y="-30.0"/>
      <point x="464.2" y="-91.7"/>
      <point x="311.7" y="-91.7" type="curve" smooth="yes"/>
      <point x="215.6" y="-91.7" type="line" smooth="yes"/>
      <point x="140.9" y="-91.7"/>
      <point x="72.1" y="-108.0"/>
      <point x="72.1" y="-179.0" type="curve" smooth="yes"/>
      <point x="72.1" y="-225.0"/>
      <point x="102.4" y="-249.0"/>
    </contour>
  </outline>
</glyph>
<glyph name="nnna-tamil" format="2">
  <advance width="1106.0"/>
  <unicode hex="0BA9"/>
  <note>
uni0BA9
</note>
  <anchor x="549.0" y="0.0" name="bottom"/>
  <anchor x="968.2" y="554.0" name="imatra"/>
  <anchor x="549.0" y="0.0" name="nukta"/>
  <anchor x="572.6" y="554.0" name="top"/>
  <anchor x="569.7" y="554.0" name="vedic"/>
  <outline>
    <contour>
      <point x="230.0" y="-4.7" type="curve" smooth="yes"/>
      <point x="324.7" y="-4.7"/>
      <point x="383.4" y="57.9"/>
      <point x="383.4" y="151.4" type="curve" smooth="yes"/>
      <point x="383.4" y="244.1"/>
      <point x="331.0" y="303.3"/>
      <point x="251.0" y="303.3" type="curve" smooth="yes"/>
      <point x="161.7" y="303.3"/>
      <point x="104.9" y="217.8"/>
      <point x="101.4" y="119.8" type="curve"/>
      <point x="130.0" y="93.5" type="line"/>
      <point x="131.1" y="174.5"/>
      <point x="168.9" y="236.0"/>
      <point x="221.7" y="236.0" type="curve" smooth="yes"/>
      <point x="274.3" y="236.0"/>
      <point x="295.6" y="190.3"/>
      <point x="295.6" y="146.0" type="curve" smooth="yes"/>
      <point x="295.6" y="91.3"/>
      <point x="271.3" y="49.0"/>
      <point x="215.1" y="49.0" type="curve" smooth="yes"/>
      <point x="150.8" y="49.0"/>
      <point x="103.0" y="113.9"/>
      <point x="103.0" y="244.3" type="curve" smooth="yes"/>
      <point x="103.0" y="414.7"/>
      <point x="218.6" y="505.0"/>
      <point x="364.0" y="505.0" type="curve" smooth="yes"/>
      <point x="533.8" y="505.0"/>
      <point x="651.8" y="392.0"/>
      <point x="651.8" y="187.3" type="curve" smooth="yes"/>
      <point x="651.8" y="99.0"/>
      <point x="623.3" y="49.0"/>
      <point x="572.7" y="49.0" type="curve" smooth="yes"/>
      <point x="523.4" y="49.0"/>
      <point x="498.7" y="96.1"/>
      <point x="498.7" y="185.3" type="curve" smooth="yes"/>
      <point x="498.7" y="370.8"/>
      <point x="597.4" y="500.0"/>
      <point x="775.5" y="500.0" type="curve" smooth="yes"/>
      <point x="1084.2" y="500.0" type="line"/>
      <point x="1084.2" y="554.0" type="line"/>
      <point x="780.8" y="554.0" type="line" smooth="yes"/>
      <point x="572.4" y="554.0"/>
      <point x="444.1" y="406.8"/>
      <point x="444.1" y="189.3" type="curve" smooth="yes"/>
      <point x="444.1" y="65.1"/>
      <point x="492.1" y="-5.0"/>
      <point x="585.8" y="-5.0" type="curve" smooth="yes"/>
      <point x="678.2" y="-5.0"/>
      <point x="744.2" y="65.8"/>
      <point x="744.2" y="187.0" type="curve" smooth="yes"/>
      <point x="744.2" y="407.8"/>
      <point x="590.8" y="559.0"/>
      <point x="371.7" y="559.0" type="curve" smooth="yes"/>
      <point x="196.8" y="559.0"/>
      <point x="48.5" y="452.0"/>
      <point x="48.5" y="245.9" type="curve" smooth="yes"/>
      <point x="48.5" y="81.2"/>
      <point x="128.5" y="-4.7"/>
    </contour>
    <contour>
      <point x="856.6" y="0.0" type="line"/>
      <point x="947.4" y="0.0" type="line"/>
      <point x="947.4" y="529.0" type="line"/>
      <point x="856.6" y="529.0" type="line"/>
    </contour>
  </outline>
</glyph>
<glyph name="pa-tamil" format="2">
  <advance width="745.4"/>
  <unicode hex="0BAA"/>
  <note>
uni0BAA
</note>
  <anchor x="374.8" y="0.0" name="bottom"/>
  <anchor x="656.6" y="554.0" name="imatra"/>
  <anchor x="374.8" y="0.0" name="nukta"/>
  <anchor x="373.4" y="554.0" name="top"/>
  <anchor x="374.8" y="554.0" name="vedic"/>
  <outline>
    <contour>
      <point x="81.9" y="0.0" type="line"/>
      <point x="663.1" y="0.0" type="line"/>
      <point x="663.1" y="554.0" type="line"/>
      <point x="572.3" y="554.0" type="line"/>
      <point x="572.3" y="54.0" type="line"/>
      <point x="173.1" y="54.0" type="line"/>
      <point x="173.1" y="554.0" type="line"/>
      <point x="81.9" y="554.0" type="line"/>
    </contour>
  </outline>
</glyph>
<glyph name="ya-tamil" format="2">
  <advance width="813.6"/>
  <unicode hex="0BAF"/>
  <note>
uni0BAF
</note>
  <anchor x="411.9" y="0.0" name="bottom"/>
  <anchor x="723.4" y="554.0" name="imatra"/>
  <anchor x="414.0" y="0.0" name="nukta"/>
  <anchor x="423.9" y="554.0" name="top"/>
  <anchor x="408.3" y="554.0" name="vedic"/>
  <outline>
    <contour>
      <point x="205.7" y="-5.0" type="curve" smooth="yes"/>
      <point x="271.7" y="-5.0"/>
      <point x="303.3" y="39.9"/>
      <point x="313.0" y="61.9" type="curve"/>
      <point x="313.0" y="0.0" type="line"/>
      <point x="731.3" y="0.0" type="line"/>
      <point x="731.3" y="554.0" type="line"/>
      <point x="639.8" y="554.0" type="line"/>
      <point x="639.8" y="54.0" type="line"/>
      <point x="397.9" y="54.0" type="line"/>
      <point x="397.9" y="554.0" type="line"/>
      <point x="307.0" y="554.0" type="line"/>
      <point x="307.0" y="151.6" type="line" smooth="yes"/>
      <point x="307.0" y="91.6"/>
      <point x="278.6" y="56.0"/>
      <point x="235.0" y="56.0" type="curve" smooth="yes"/>
      <point x="198.2" y="56.0"/>
      <point x="169.9" y="83.0"/>
      <point x="169.9" y="142.6" type="curve" smooth="yes"/>
      <point x="169.9" y="554.0" type="line"/>
      <point x="79.0" y="554.0" type="line"/>
      <point x="79.0" y="154.0" type="line" smooth="yes"/>
      <point x="79.0" y="45.0"/>
      <point x="127.9" y="-5.0"/>
    </contour>
  </outline>
</glyph>
<glyph name="ra-tamil" format="2">
  <advance width="549.5"/>
  <unicode hex="0BB0"/>
  <note>
uni0BB0
</note>
  <anchor x="272.3" y="0.0" name="bottom"/>
  <anchor x="462.7" y="554.0" name="imatra"/>
  <anchor x="272.3" y="-199.0" name="nukta"/>
  <anchor x="293.1" y="554.0" name="top"/>
  <anchor x="302.9" y="554.0" name="vedic"/>
  <outline>
    <contour>
      <point x="193.4" y="-214.8" type="line"/>
      <point x="391.6" y="21.7" type="line"/>
      <point x="391.6" y="500.0" type="line"/>
      <point x="527.7" y="500.0" type="line"/>
      <point x="527.7" y="554.0" type="line"/>
      <point x="81.9" y="554.0" type="line"/>
      <point x="81.9" y="0.0" type="line"/>
      <point x="140.1" y="0.0" type="line"/>
      <point x="140.1" y="500.0" type="line"/>
      <point x="300.4" y="500.0" type="line"/>
      <point x="300.4" y="0.09999999999999964" type="line"/>
      <point x="150.7" y="-178.0" type="line"/>
    </contour>
  </outline>
</glyph>
<glyph name="la-tamil" format="2">
  <advance width="879.7"/>
  <unicode hex="0BB2"/>
  <note>
uni0BB2
</note>
  <anchor x="439.5" y="0.0" name="bottom"/>
  <anchor x="439.5" y="0.0" name="nukta"/>
  <anchor x="463.9" y="554.0" name="top"/>
  <anchor x="437.9" y="554.0" name="vedic"/>
  <outline>
    <contour>
      <point x="231.4" y="-4.7" type="curve" smooth="yes"/>
      <point x="326.1" y="-4.7"/>
      <point x="384.1" y="57.9"/>
      <point x="384.1" y="151.4" type="curve" smooth="yes"/>
      <point x="384.1" y="244.1"/>
      <point x="331.7" y="303.3"/>
      <point x="252.4" y="303.3" type="curve" smooth="yes"/>
      <point x="162.4" y="303.3"/>
      <point x="104.9" y="217.8"/>
      <point x="101.4" y="119.8" type="curve"/>
      <point x="130.0" y="93.5" type="line"/>
      <point x="131.1" y="174.5"/>
      <point x="169.6" y="236.0"/>
      <point x="223.1" y="236.0" type="curve" smooth="yes"/>
      <point x="275.7" y="236.0"/>
      <point x="297.0" y="190.3"/>
      <point x="297.0" y="146.0" type="curve" smooth="yes"/>
      <point x="297.0" y="91.3"/>
      <point x="272.0" y="49.0"/>
      <point x="215.8" y="49.0" type="curve" smooth="yes"/>
      <point x="152.2" y="49.0"/>
      <point x="103.0" y="113.9"/>
      <point x="103.0" y="244.3" type="curve" smooth="yes"/>
      <point x="103.0" y="407.9"/>
      <point x="179.4" y="505.0"/>
      <point x="308.2" y="505.0" type="curve" smooth="yes"/>
      <point x="419.2" y="505.0"/>
      <point x="476.5" y="432.1"/>
      <point x="476.5" y="320.0" type="curve" smooth="yes"/>
      <point x="476.5" y="166.0" type="line" smooth="yes"/>
      <point x="476.5" y="52.4"/>
      <point x="539.2" y="0.0"/>
      <point x="625.3" y="0.0" type="curve" smooth="yes"/>
      <point x="748.7" y="0.0"/>
      <point x="827.9" y="116.3"/>
      <point x="827.9" y="279.0" type="curve" smooth="yes"/>
      <point x="827.9" y="384.8"/>
      <point x="804.4" y="466.5"/>
      <point x="739.4" y="559.0" type="curve"/>
      <point x="695.4" y="529.0" type="line"/>
      <point x="749.9" y="452.8"/>
      <point x="774.6" y="372.8"/>
      <point x="774.6" y="289.0" type="curve" smooth="yes"/>
      <point x="774.6" y="151.8"/>
      <point x="720.2" y="59.0"/>
      <point x="641.2" y="59.0" type="curve" smooth="yes"/>
      <point x="591.0" y="59.0"/>
      <point x="568.0" y="90.5"/>
      <point x="568.0" y="165.0" type="curve" smooth="yes"/>
      <point x="568.0" y="320.1" type="line" smooth="yes"/>
      <point x="568.0" y="468.3"/>
      <point x="470.3" y="559.0"/>
      <point x="319.3" y="559.0" type="curve" smooth="yes"/>
      <point x="154.7" y="559.0"/>
      <point x="48.5" y="442.1"/>
      <point x="48.5" y="245.9" type="curve" smooth="yes"/>
      <point x="48.5" y="81.2"/>
      <point x="129.2" y="-4.7"/>
    </contour>
  </outline>
</glyph>
<glyph name="lla-tamil" format="2">
  <advance width="1036.3"/>
  <unicode hex="0BB3"/>
  <note>
uni0BB3
</note>
  <anchor x="537.8" y="0.0" name="bottom"/>
  <anchor x="940.1" y="554.0" name="imatra"/>
  <anchor x="541.3" y="0.0" name="nukta"/>
  <anchor x="572.1" y="554.0" name="top"/>
  <anchor x="534.5" y="554.0" name="vedic"/>
  <outline>
    <contour>
      <point x="231.1" y="-4.7" type="curve" smooth="yes"/>
      <point x="326.1" y="-4.7"/>
      <point x="384.1" y="57.9"/>
      <point x="384.1" y="151.4" type="curve" smooth="yes"/>
      <point x="384.1" y="244.1"/>
      <point x="331.7" y="303.3"/>
      <point x="252.4" y="303.3" type="curve" smooth="yes"/>
      <point x="162.1" y="303.3"/>
      <point x="104.6" y="217.8"/>
      <point x="101.1" y="119.8" type="curve"/>
      <point x="129.7" y="93.5" type="line"/>
      <point x="131.5" y="174.5"/>
      <point x="169.3" y="236.0"/>
      <point x="223.1" y="236.0" type="curve" smooth="yes"/>
      <point x="275.4" y="236.0"/>
      <point x="296.7" y="190.3"/>
      <point x="296.7" y="146.0" type="curve" smooth="yes"/>
      <point x="296.7" y="91.3"/>
      <point x="271.7" y="49.0"/>
      <point x="215.5" y="49.0" type="curve" smooth="yes"/>
      <point x="151.3" y="49.0"/>
      <point x="103.0" y="115.7"/>
      <point x="103.0" y="249.7" type="curve" smooth="yes"/>
      <point x="103.0" y="415.0"/>
      <point x="184.9" y="505.0"/>
      <point x="316.1" y="505.0" type="curve" smooth="yes"/>
      <point x="436.6" y="505.0"/>
      <point x="523.7" y="430.5"/>
      <point x="523.7" y="275.3" type="curve"/>
      <point x="577.6" y="280.0" type="line"/>
      <point x="568.4" y="472.5"/>
      <point x="463.2" y="559.0"/>
      <point x="313.0" y="559.0" type="curve" smooth="yes"/>
      <point x="157.7" y="559.0"/>
      <point x="48.5" y="454.0"/>
      <point x="48.5" y="250.7" type="curve" smooth="yes"/>
      <point x="48.5" y="83.0"/>
      <point x="127.7" y="-4.7"/>
    </contour>
    <contour>
      <point x="523.7" y="0.0" type="line"/>
      <point x="614.5" y="0.0" type="line"/>
      <point x="614.5" y="500.0" type="line"/>
      <point x="787.9" y="500.0" type="line"/>
      <point x="787.9" y="0.0" type="line"/>
      <point x="878.4" y="0.0" type="line"/>
      <point x="878.4" y="500.0" type="line"/>
      <point x="1014.5" y="500.0" type="line"/>
      <point x="1014.5" y="554.0" type="line"/>
      <point x="537.8" y="554.0" type="line"/>
      <point x="537.8" y="387.0" type="line"/>
      <point x="523.7" y="382.0" type="line"/>
    </contour>
  </outline>
</glyph>
<glyph name="llla-tamil" format="2">
  <advance width="758.8"/>
  <unicode hex="0BB4"/>
  <note>
uni0BB4
</note>
  <anchor x="374.5" y="0.0" name="bottom"/>
  <anchor x="373.8" y="-300.7" name="nukta"/>
  <anchor x="418.2" y="554.0" name="top"/>
  <anchor x="395.0" y="554.0" name="vedic"/>
  <anchor x="664.3" y="554.0" name="imatra"/>
  <outline>
    <contour>
      <point x="264.4" y="-325.9" type="curve" smooth="yes"/>
      <point x="439.3" y="-325.9"/>
      <point x="459.9" y="-157.7"/>
      <point x="591.1" y="-157.7" type="curve" smooth="yes"/>
      <point x="640.7" y="-157.7" type="line"/>
      <point x="640.7" y="-104.4" type="line"/>
      <point x="578.5" y="-104.4" type="line" smooth="yes"/>
      <point x="503.5" y="-104.4"/>
      <point x="458.2" y="-57.7"/>
      <point x="458.2" y="15.0" type="curve" smooth="yes"/>
      <point x="458.2" y="96.0" type="line"/>
      <point x="368.1" y="96.0" type="line"/>
      <point x="368.1" y="15.0" type="line" smooth="yes"/>
      <point x="368.1" y="-57.7"/>
      <point x="423.2" y="-121.4"/>
      <point x="486.9" y="-126.4" type="curve"/>
      <point x="486.9" y="-130.7" type="line"/>
      <point x="373.3" y="-142.4"/>
      <point x="351.1" y="-268.2"/>
      <point x="246.9" y="-268.2" type="curve" smooth="yes"/>
      <point x="195.9" y="-268.2"/>
      <point x="162.4" y="-236.5"/>
      <point x="162.4" y="-190.3" type="curve" smooth="yes"/>
      <point x="162.4" y="-145.0"/>
      <point x="191.7" y="-113.9"/>
      <point x="233.8" y="-113.9" type="curve" smooth="yes"/>
      <point x="260.5" y="-113.9"/>
      <point x="283.9" y="-125.2"/>
      <point x="304.7" y="-147.3" type="curve"/>
      <point x="338.7" y="-109.6" type="line"/>
      <point x="305.2" y="-74.9"/>
      <point x="273.0" y="-62.0"/>
      <point x="231.6" y="-62.0" type="curve" smooth="yes"/>
      <point x="158.3" y="-62.0"/>
      <point x="107.2" y="-116.8"/>
      <point x="107.2" y="-187.3" type="curve" smooth="yes"/>
      <point x="107.2" y="-273.3"/>
      <point x="172.0" y="-325.9"/>
    </contour>
    <component base="ma-tamil"/>
  </outline>
</glyph>
<glyph name="va-tamil" format="2">
  <advance width="949.6"/>
  <unicode hex="0BB5"/>
  <note>
uni0BB5
</note>
  <anchor x="510.2" y="0.0" name="bottom"/>
  <anchor x="789.2" y="554.0" name="imatra"/>
  <anchor x="510.2" y="0.0" name="nukta"/>
  <anchor x="477.3" y="554.0" name="top"/>
  <anchor x="459.3" y="554.0" name="vedic"/>
  <outline>
    <contour>
      <point x="231.4" y="-4.7" type="curve" smooth="yes"/>
      <point x="326.1" y="-4.7"/>
      <point x="384.1" y="57.9"/>
      <point x="384.1" y="151.4" type="curve" smooth="yes"/>
      <point x="384.1" y="244.1"/>
      <point x="331.7" y="303.3"/>
      <point x="252.4" y="303.3" type="curve" smooth="yes"/>
      <point x="162.4" y="303.3"/>
      <point x="104.9" y="217.8"/>
      <point x="101.4" y="119.8" type="curve"/>
      <point x="130.0" y="93.5" type="line"/>
      <point x="131.1" y="174.5"/>
      <point x="169.6" y="236.0"/>
      <point x="223.1" y="236.0" type="curve" smooth="yes"/>
      <point x="275.7" y="236.0"/>
      <point x="297.0" y="190.3"/>
      <point x="297.0" y="146.0" type="curve" smooth="yes"/>
      <point x="297.0" y="91.3"/>
      <point x="272.0" y="49.0"/>
      <point x="215.8" y="49.0" type="curve" smooth="yes"/>
      <point x="152.2" y="49.0"/>
      <point x="103.0" y="113.9"/>
      <point x="103.0" y="244.3" type="curve" smooth="yes"/>
      <point x="103.0" y="407.9"/>
      <point x="189.3" y="505.0"/>
      <point x="323.5" y="505.0" type="curve" smooth="yes"/>
      <point x="449.4" y="505.0"/>
      <point x="535.7" y="402.0"/>
      <point x="535.7" y="257.0" type="curve" smooth="yes"/>
      <point x="535.7" y="150.0"/>
      <point x="503.0" y="85.8"/>
      <point x="469.4" y="40.9" type="curve"/>
      <point x="484.6" y="0.0" type="line"/>
      <point x="867.3" y="0.0" type="line"/>
      <point x="867.3" y="554.0" type="line"/>
      <point x="775.8" y="554.0" type="line"/>
      <point x="775.8" y="54.0" type="line"/>
      <point x="546.5" y="54.0" type="line"/>
      <point x="586.7" y="101.9"/>
      <point x="624.7" y="166.1"/>
      <point x="624.7" y="264.5" type="curve" smooth="yes"/>
      <point x="624.7" y="442.4"/>
      <point x="504.7" y="559.0"/>
      <point x="337.2" y="559.0" type="curve" smooth="yes"/>
      <point x="167.6" y="559.0"/>
      <point x="48.5" y="440.7"/>
      <point x="48.5" y="245.9" type="curve" smooth="yes"/>
      <point x="48.5" y="81.2"/>
      <point x="129.2" y="-4.7"/>
    </contour>
  </outline>
</glyph>
<glyph name="sha-tamil" format="2">
  <advance width="936.4"/>
  <unicode hex="0BB6"/>
  <note>
uni0BB6
</note>
  <anchor x="477.3" y="0.0" name="bottom"/>
  <anchor x="722.9" y="554.0" name="imatra"/>
  <anchor x="477.3" y="0.0" name="nukta"/>
  <anchor x="478.9" y="554.0" name="top"/>
  <anchor x="481.5" y="554.0" name="vedic"/>
  <outline>
    <contour>
      <point x="249.1" y="-5.0" type="curve" smooth="yes"/>
      <point x="349.2" y="-5.0"/>
      <point x="423.9" y="42.8"/>
      <point x="423.9" y="191.8" type="curve" smooth="yes"/>
      <point x="423.9" y="500.0" type="line"/>
      <point x="536.3" y="500.0" type="line"/>
      <point x="536.3" y="151.1" type="line" smooth="yes"/>
      <point x="536.3" y="50.6"/>
      <point x="587.7" y="-5.0"/>
      <point x="672.4" y="-5.0" type="curve" smooth="yes"/>
      <point x="798.7" y="-5.0"/>
      <point x="885.0" y="122.0"/>
      <point x="885.0" y="324.0" type="curve" smooth="yes"/>
      <point x="885.0" y="479.6"/>
      <point x="849.7" y="554.0"/>
      <point x="748.5" y="554.0" type="curve" smooth="yes"/>
      <point x="367.0" y="554.0" type="line"/>
      <point x="367.0" y="193.2" type="line" smooth="yes"/>
      <point x="367.0" y="73.9"/>
      <point x="319.3" y="54.0"/>
      <point x="265.4" y="54.0" type="curve" smooth="yes"/>
      <point x="212.4" y="54.0"/>
      <point x="171.2" y="82.1"/>
      <point x="171.2" y="179.2" type="curve" smooth="yes"/>
      <point x="171.2" y="554.0" type="line"/>
      <point x="79.0" y="554.0" type="line"/>
      <point x="79.0" y="178.9" type="line" smooth="yes"/>
      <point x="79.0" y="44.4"/>
      <point x="152.2" y="-5.0"/>
    </contour>
    <contour>
      <point x="695.3" y="54.0" type="curve" smooth="yes"/>
      <point x="653.4" y="54.0"/>
      <point x="627.8" y="79.5"/>
      <point x="627.8" y="151.5" type="curve" smooth="yes"/>
      <point x="627.8" y="500.0" type="line"/>
      <point x="738.8" y="500.0" type="line" smooth="yes"/>
      <point x="817.7" y="500.0"/>
      <point x="829.6" y="430.0"/>
      <point x="829.6" y="326.0" type="curve" smooth="yes"/>
      <point x="829.6" y="144.0"/>
      <point x="758.7" y="54.0"/>
    </contour>
  </outline>
</glyph>
<glyph name="ssa-tamil" format="2">
  <advance width="1193.4"/>
  <unicode hex="0BB7"/>
  <note>
uni0BB7
</note>
  <anchor x="614.8" y="0.0" name="bottom"/>
  <anchor x="540.6" y="0.0" name="nukta"/>
  <anchor x="626.4" y="554.0" name="top"/>
  <anchor x="616.6" y="554.0" name="vedic"/>
  <outline>
    <contour>
      <point x="231.4" y="-4.7" type="curve" smooth="yes"/>
      <point x="326.1" y="-4.7"/>
      <point x="384.1" y="57.9"/>
      <point x="384.1" y="151.4" type="curve" smooth="yes"/>
      <point x="384.1" y="244.1"/>
      <point x="331.7" y="303.3"/>
      <point x="252.4" y="303.3" type="curve" smooth="yes"/>
      <point x="162.4" y="303.3"/>
      <point x="104.9" y="217.8"/>
      <point x="101.4" y="119.8" type="curve"/>
      <point x="130.0" y="93.5" type="line"/>
      <point x="131.1" y="174.5"/>
      <point x="169.6" y="236.0"/>
      <point x="223.1" y="236.0" type="curve" smooth="yes"/>
      <point x="275.7" y="236.0"/>
      <point x="297.0" y="190.3"/>
      <point x="297.0" y="146.0" type="curve" smooth="yes"/>
      <point x="297.0" y="91.3"/>
      <point x="272.0" y="49.0"/>
      <point x="215.8" y="49.0" type="curve" smooth="yes"/>
      <point x="152.2" y="49.0"/>
      <point x="103.0" y="113.9"/>
      <point x="103.0" y="244.3" type="curve" smooth="yes"/>
      <point x="103.0" y="407.9"/>
      <point x="187.9" y="505.0"/>
      <point x="323.5" y="505.0" type="curve" smooth="yes"/>
      <point x="449.4" y="505.0"/>
      <point x="535.7" y="402.0"/>
      <point x="535.7" y="257.0" type="curve" smooth="yes"/>
      <point x="535.7" y="150.0"/>
      <point x="503.0" y="85.8"/>
      <point x="469.4" y="40.9" type="curve"/>
      <point x="484.6" y="0.0" type="line"/>
      <point x="1140.2" y="0.0" type="line"/>
      <point x="1140.2" y="327.5" type="line"/>
      <point x="1047.7" y="276.5" type="line"/>
      <point x="1047.7" y="54.0" type="line"/>
      <point x="546.5" y="54.0" type="line"/>
      <point x="586.7" y="101.9"/>
      <point x="624.7" y="166.1"/>
      <point x="624.7" y="264.5" type="curve" smooth="yes"/>
      <point x="624.7" y="442.4"/>
      <point x="504.7" y="559.0"/>
      <point x="337.2" y="559.0" type="curve" smooth="yes"/>
      <point x="166.2" y="559.0"/>
      <point x="48.5" y="440.7"/>
      <point x="48.5" y="245.9" type="curve" smooth="yes"/>
      <point x="48.5" y="81.2"/>
      <point x="129.2" y="-4.7"/>
    </contour>
    <contour>
      <point x="849.0" y="-266.6" type="line"/>
      <point x="939.8" y="-266.6" type="line"/>
      <point x="939.8" y="434.8" type="line" smooth="yes"/>
      <point x="939.8" y="512.1"/>
      <point x="892.8" y="559.0"/>
      <point x="823.0" y="559.0" type="curve" smooth="yes"/>
      <point x="741.8" y="559.0"/>
      <point x="694.0" y="503.0"/>
      <point x="694.0" y="415.0" type="curve" smooth="yes"/>
      <point x="694.0" y="283.5"/>
      <point x="773.1" y="219.4"/>
      <point x="885.9" y="219.4" type="curve" smooth="yes"/>
      <point x="976.3" y="219.4"/>
      <point x="1052.8" y="244.0"/>
      <point x="1140.2" y="321.8" type="curve"/>
      <point x="1140.2" y="333.5" type="line"/>
      <point x="1107.6" y="361.2" type="line"/>
      <point x="1040.1" y="300.7"/>
      <point x="971.3" y="271.7"/>
      <point x="889.5" y="271.7" type="curve" smooth="yes"/>
      <point x="800.4" y="271.7"/>
      <point x="746.2" y="307.0"/>
      <point x="746.2" y="414.0" type="curve" smooth="yes"/>
      <point x="746.2" y="466.3"/>
      <point x="764.5" y="500.8"/>
      <point x="802.3" y="500.8" type="curve" smooth="yes"/>
      <point x="830.2" y="500.8"/>
      <point x="849.0" y="481.9"/>
      <point x="849.0" y="445.0" type="curve" smooth="yes"/>
    </contour>
  </outline>
</glyph>
<glyph name="sa-tamil" format="2">
  <advance width="1164.5"/>
  <unicode hex="0BB8"/>
  <note>
uni0BB8
</note>
  <anchor x="584.9" y="0.0" name="bottom"/>
  <anchor x="584.9" y="0.0" name="nukta"/>
  <anchor x="572.2" y="554.0" name="top"/>
  <anchor x="583.3" y="554.0" name="vedic"/>
  <outline>
    <contour>
      <point x="519.6" y="0.0" type="line"/>
      <point x="611.1" y="0.0" type="line"/>
      <point x="611.1" y="413.8" type="line" smooth="yes"/>
      <point x="611.1" y="469.3"/>
      <point x="636.5" y="504.0"/>
      <point x="687.5" y="504.0" type="curve" smooth="yes"/>
      <point x="733.7" y="504.0"/>
      <point x="758.3" y="473.8"/>
      <point x="758.3" y="424.7" type="curve" smooth="yes"/>
      <point x="758.3" y="167.5" type="line" smooth="yes"/>
      <point x="758.3" y="53.9"/>
      <point x="820.3" y="0.0"/>
      <point x="907.1" y="0.0" type="curve" smooth="yes"/>
      <point x="1033.8" y="0.0"/>
      <point x="1112.7" y="116.3"/>
      <point x="1112.7" y="279.0" type="curve" smooth="yes"/>
      <point x="1112.7" y="384.8"/>
      <point x="1087.7" y="466.8"/>
      <point x="1022.1" y="559.0" type="curve"/>
      <point x="976.6" y="528.1" type="line"/>
      <point x="1031.3" y="450.7"/>
      <point x="1056.4" y="372.8"/>
      <point x="1056.4" y="289.0" type="curve" smooth="yes"/>
      <point x="1056.4" y="151.8"/>
      <point x="1002.0" y="59.0"/>
      <point x="922.0" y="59.0" type="curve" smooth="yes"/>
      <point x="877.5" y="59.0"/>
      <point x="849.1" y="90.5"/>
      <point x="849.1" y="166.5" type="curve" smooth="yes"/>
      <point x="849.1" y="409.4" type="line" smooth="yes"/>
      <point x="849.1" y="507.8"/>
      <point x="788.7" y="559.0"/>
      <point x="704.3" y="559.0" type="curve" smooth="yes"/>
      <point x="610.3" y="559.0"/>
      <point x="559.4" y="495.3"/>
      <point x="559.4" y="420.5" type="curve" smooth="yes"/>
      <point x="559.4" y="339.8" type="line"/>
      <point x="519.6" y="339.8" type="line"/>
    </contour>
    <contour>
      <point x="233.3" y="-4.7" type="curve" smooth="yes"/>
      <point x="328.3" y="-4.7"/>
      <point x="387.0" y="57.9"/>
      <point x="387.0" y="151.4" type="curve" smooth="yes"/>
      <point x="387.0" y="244.1"/>
      <point x="334.6" y="303.3"/>
      <point x="254.6" y="303.3" type="curve" smooth="yes"/>
      <point x="165.0" y="303.3"/>
      <point x="108.2" y="217.8"/>
      <point x="104.7" y="119.8" type="curve"/>
      <point x="133.3" y="93.5" type="line"/>
      <point x="135.1" y="174.5"/>
      <point x="172.2" y="236.0"/>
      <point x="225.0" y="236.0" type="curve" smooth="yes"/>
      <point x="277.6" y="236.0"/>
      <point x="298.9" y="190.3"/>
      <point x="298.9" y="146.0" type="curve" smooth="yes"/>
      <point x="298.9" y="91.3"/>
      <point x="274.6" y="49.0"/>
      <point x="218.4" y="49.0" type="curve" smooth="yes"/>
      <point x="153.2" y="49.0"/>
      <point x="106.6" y="115.7"/>
      <point x="106.6" y="249.7" type="curve" smooth="yes"/>
      <point x="106.6" y="403.4"/>
      <point x="188.0" y="505.0"/>
      <point x="324.4" y="505.0" type="curve" smooth="yes"/>
      <point x="424.0" y="505.0"/>
      <point x="519.6" y="445.8"/>
      <point x="519.6" y="298.5" type="curve"/>
      <point x="574.7" y="303.5" type="line"/>
      <point x="571.8" y="480.5"/>
      <point x="458.1" y="559.0"/>
      <point x="328.6" y="559.0" type="curve" smooth="yes"/>
      <point x="161.7" y="559.0"/>
      <point x="51.8" y="440.1"/>
      <point x="51.8" y="250.7" type="curve" smooth="yes"/>
      <point x="51.8" y="83.0"/>
      <point x="130.6" y="-4.7"/>
    </contour>
  </outline>
</glyph>
<glyph name="ha-tamil" format="2">
  <advance width="1366.9"/>
  <unicode hex="0BB9"/>
  <note>
uni0BB9
</note>
  <anchor x="699.7" y="0.0" name="bottom"/>
  <anchor x="699.7" y="-152.0" name="nukta"/>
  <anchor x="699.6" y="554.0" name="top"/>
  <anchor x="682.7" y="554.0" name="vedic"/>
  <outline>
    <contour>
      <point x="190.2" y="-244.7" type="curve"/>
      <point x="190.2" y="-177.0"/>
      <point x="207.4" y="-137.3"/>
      <point x="287.1" y="-137.3" type="curve" smooth="yes"/>
      <point x="904.3" y="-137.3" type="line" smooth="yes"/>
      <point x="1182.3" y="-137.3"/>
      <point x="1314.4" y="-24.1"/>
      <point x="1314.4" y="241.5" type="curve" smooth="yes"/>
      <point x="1314.4" y="416.3"/>
      <point x="1252.8" y="559.0"/>
      <point x="1108.6" y="559.0" type="curve" smooth="yes"/>
      <point x="1029.5" y="559.0"/>
      <point x="986.5" y="515.4"/>
      <point x="967.5" y="478.7" type="curve"/>
      <point x="953.8" y="514.1"/>
      <point x="921.1" y="558.0"/>
      <point x="851.0" y="558.0" type="curve" smooth="yes"/>
      <point x="780.6" y="558.0"/>
      <point x="723.9" y="508.9"/>
      <point x="723.9" y="414.9" type="curve" smooth="yes"/>
      <point x="723.9" y="54.0" type="line"/>
      <point x="546.5" y="54.0" type="line"/>
      <point x="586.7" y="101.9"/>
      <point x="624.7" y="166.1"/>
      <point x="624.7" y="264.5" type="curve" smooth="yes"/>
      <point x="624.7" y="442.4"/>
      <point x="504.7" y="559.0"/>
      <point x="337.2" y="559.0" type="curve" smooth="yes"/>
      <point x="167.6" y="559.0"/>
      <point x="48.5" y="440.7"/>
      <point x="48.5" y="245.9" type="curve" smooth="yes"/>
      <point x="48.5" y="81.2"/>
      <point x="129.2" y="-4.7"/>
      <point x="231.4" y="-4.7" type="curve" smooth="yes"/>
      <point x="326.1" y="-4.7"/>
      <point x="384.1" y="57.9"/>
      <point x="384.1" y="151.4" type="curve" smooth="yes"/>
      <point x="384.1" y="244.1"/>
      <point x="331.7" y="303.3"/>
      <point x="252.4" y="303.3" type="curve" smooth="yes"/>
      <point x="162.4" y="303.3"/>
      <point x="104.9" y="217.8"/>
      <point x="101.4" y="119.8" type="curve"/>
      <point x="130.0" y="93.5" type="line"/>
      <point x="131.8" y="174.5"/>
      <point x="169.6" y="236.0"/>
      <point x="223.1" y="236.0" type="curve" smooth="yes"/>
      <point x="275.7" y="236.0"/>
      <point x="297.0" y="190.3"/>
      <point x="297.0" y="146.0" type="curve" smooth="yes"/>
      <point x="297.0" y="91.3"/>
      <point x="272.0" y="49.0"/>
      <point x="215.8" y="49.0" type="curve" smooth="yes"/>
      <point x="152.2" y="49.0"/>
      <point x="103.0" y="113.9"/>
      <point x="103.0" y="244.3" type="curve" smooth="yes"/>
      <point x="103.0" y="407.9"/>
      <point x="189.3" y="505.0"/>
      <point x="323.5" y="505.0" type="curve" smooth="yes"/>
      <point x="449.4" y="505.0"/>
      <point x="535.7" y="402.0"/>
      <point x="535.7" y="257.0" type="curve" smooth="yes"/>
      <point x="535.7" y="150.0"/>
      <point x="503.0" y="85.8"/>
      <point x="469.4" y="40.9" type="curve"/>
      <point x="484.6" y="0.0" type="line"/>
      <point x="781.4" y="0.0" type="line"/>
      <point x="781.4" y="414.2" type="line" smooth="yes"/>
      <point x="781.4" y="474.6"/>
      <point x="807.2" y="504.0"/>
      <point x="851.4" y="504.0" type="curve" smooth="yes"/>
      <point x="898.4" y="504.0"/>
      <point x="923.7" y="467.1"/>
      <point x="923.7" y="405.4" type="curve" smooth="yes"/>
      <point x="923.7" y="0.0" type="line"/>
      <point x="1015.2" y="0.0" type="line"/>
      <point x="1015.2" y="404.4" type="line" smooth="yes"/>
      <point x="1015.2" y="464.8"/>
      <point x="1053.4" y="505.0"/>
      <point x="1102.0" y="505.0" type="curve" smooth="yes"/>
      <point x="1170.3" y="505.0"/>
      <point x="1221.2" y="439.6"/>
      <point x="1221.2" y="248.3" type="curve" smooth="yes"/>
      <point x="1221.2" y="8.399999999999999"/>
      <point x="1125.5" y="-85.4"/>
      <point x="898.1" y="-85.4" type="curve" smooth="yes"/>
      <point x="252.4" y="-85.4" type="line" smooth="yes"/>
      <point x="177.7" y="-85.4"/>
      <point x="108.9" y="-102.7"/>
      <point x="108.9" y="-174.7" type="curve" smooth="yes"/>
      <point x="108.9" y="-223.7"/>
      <point x="140.6" y="-244.7"/>
    </contour>
  </outline>
</glyph>
<glyph name="aaMatra-tamil" format="2">
  <advance width="559.1"/>
  <unicode hex="0BBE"/>
  <note>
uni0BBE
</note>
  <anchor x="298.8" y="0.0" name="bottom"/>
  <anchor x="297.8" y="0.0" name="nukta"/>
  <anchor x="291.8" y="554.0" name="top"/>
  <anchor x="291.8" y="554.0" name="vedic"/>
  <outline>
    <contour>
      <point x="81.9" y="0.0" type="line"/>
      <point x="140.1" y="0.0" type="line"/>
      <point x="140.1" y="500.0" type="line"/>
      <point x="310.0" y="500.0" type="line"/>
      <point x="310.0" y="0.0" type="line"/>
      <point x="401.2" y="0.0" type="line"/>
      <point x="401.2" y="500.0" type="line"/>
      <point x="537.3" y="500.0" type="line"/>
      <point x="537.3" y="554.0" type="line"/>
      <point x="81.9" y="554.0" type="line"/>
    </contour>
  </outline>
</glyph>
<glyph name="iMatra-tamil" format="2">
  <advance width="188.6"/>
  <unicode hex="0BBF"/>
  <note>
uni0BBF
</note>
  <anchor x="-108.6" y="820.7" name="top"/>
  <outline>
    <contour>
      <point x="52.7" y="0.0" type="line"/>
      <point x="109.5" y="0.0" type="line"/>
      <point x="109.5" y="567.9" type="line" smooth="yes"/>
      <point x="109.5" y="733.9"/>
      <point x="23.400000000000002" y="820.7"/>
      <point x="-108.6" y="820.7" type="curve" smooth="yes"/>
      <point x="-219.4" y="820.7"/>
      <point x="-292.4" y="746.7"/>
      <point x="-292.4" y="645.7" type="curve" smooth="yes"/>
      <point x="-292.4" y="556.7"/>
      <point x="-239.8" y="500.0"/>
      <point x="-157.8" y="500.0" type="curve" smooth="yes"/>
      <point x="-152.8" y="500.0" type="line"/>
      <point x="-152.8" y="554.0" type="line"/>
      <point x="-157.8" y="554.0" type="line" smooth="yes"/>
      <point x="-200.8" y="554.0"/>
      <point x="-231.6" y="582.1"/>
      <point x="-231.6" y="632.0" type="curve" smooth="yes"/>
      <point x="-231.6" y="696.4"/>
      <point x="-181.1" y="733.4"/>
      <point x="-112.8" y="733.4" type="curve" smooth="yes"/>
      <point x="-9.299999999999997" y="733.4"/>
      <point x="52.7" y="675.9"/>
      <point x="52.7" y="537.9" type="curve" smooth="yes"/>
    </contour>
  </outline>
</glyph>
<glyph name="iiMatra-tamil" format="2">
  <unicode hex="0BC0"/>
  <note>
uni0BC0
</note>
  <anchor x="0.0" y="554.0" name="_imatra"/>
  <anchor x="2.200000000000001" y="882.0" name="top"/>
  <outline>
    <contour>
      <point x="-23.3" y="505.0" type="curve" smooth="yes"/>
      <point x="0.0" y="505.0" type="line"/>
      <point x="0.0" y="554.0" type="line"/>
      <point x="-21.2" y="554.0" type="line" smooth="yes"/>
      <point x="-86.9" y="554.0"/>
      <point x="-130.0" y="604.0"/>
      <point x="-130.0" y="684.0" type="curve" smooth="yes"/>
      <point x="-130.0" y="770.0"/>
      <point x="-92.2" y="828.0"/>
      <point x="-2.5" y="828.0" type="curve" smooth="yes"/>
      <point x="58.5" y="828.0"/>
      <point x="96.9" y="792.0"/>
      <point x="96.9" y="730.0" type="curve" smooth="yes"/>
      <point x="96.9" y="684.2"/>
      <point x="72.3" y="656.0"/>
      <point x="35.7" y="656.0" type="curve" smooth="yes"/>
      <point x="-35.5" y="656.0"/>
      <point x="-49.1" y="756.0"/>
      <point x="-8.6" y="851.0" type="curve"/>
      <point x="-50.9" y="855.0" type="line"/>
      <point x="-111.6" y="729.0"/>
      <point x="-71.5" y="602.0"/>
      <point x="46.900000000000006" y="602.0" type="curve" smooth="yes"/>
      <point x="124.5" y="602.0"/>
      <point x="174.3" y="659.5"/>
      <point x="174.3" y="727.1" type="curve" smooth="yes"/>
      <point x="174.3" y="822.2"/>
      <point x="108.6" y="882.0"/>
      <point x="2.200000000000001" y="882.0" type="curve" smooth="yes"/>
      <point x="-113.5" y="882.0"/>
      <point x="-185.2" y="802.1"/>
      <point x="-185.2" y="685.0" type="curve" smooth="yes"/>
      <point x="-185.2" y="576.0"/>
      <point x="-118.6" y="505.0"/>
    </contour>
  </outline>
</glyph>
<glyph name="uMatra-tamil" format="2">
  <advance width="454.6"/>
  <unicode hex="0BC1"/>
  <note>
uni0BC1
</note>
  <anchor x="190.7" y="554.0" name="top"/>
  <outline>
    <contour>
      <point x="276.1" y="214.0" type="curve" smooth="yes"/>
      <point x="361.0" y="214.0"/>
      <point x="433.5" y="265.5"/>
      <point x="433.5" y="372.5" type="curve" smooth="yes"/>
      <point x="433.5" y="554.0" type="line"/>
      <point x="-213.6" y="554.0" type="line"/>
      <point x="-173.0" y="500.0" type="line"/>
      <point x="342.7" y="500.0" type="line"/>
      <point x="342.7" y="364.9" type="line" smooth="yes"/>
      <point x="342.7" y="306.0"/>
      <point x="312.3" y="270.1"/>
      <point x="263.9" y="270.1" type="curve" smooth="yes"/>
      <point x="210.7" y="270.1"/>
      <point x="186.3" y="302.7"/>
      <point x="186.3" y="374.6" type="curve" smooth="yes"/>
      <point x="186.3" y="523.0" type="line"/>
      <point x="129.5" y="523.0" type="line"/>
      <point x="129.5" y="378.2" type="line" smooth="yes"/>
      <point x="129.5" y="268.2"/>
      <point x="187.7" y="214.0"/>
    </contour>
  </outline>
</glyph>
<glyph name="uuMatra-tamil" format="2">
  <advance width="741.1"/>
  <unicode hex="0BC2"/>
  <note>
uni0BC2
</note>
  <anchor x="386.6" y="780.0" name="top"/>
  <outline>
    <contour>
      <point x="320.8" y="0.0" type="curve" smooth="yes"/>
      <point x="558.1" y="0.0"/>
      <point x="694.2" y="169.0"/>
      <point x="694.2" y="411.0" type="curve" smooth="yes"/>
      <point x="694.2" y="611.0"/>
      <point x="581.0" y="780.0"/>
      <point x="386.6" y="780.0" type="curve" smooth="yes"/>
      <point x="205.4" y="780.0"/>
      <point x="134.0" y="648.7"/>
      <point x="134.0" y="525.1" type="curve" smooth="yes"/>
      <point x="134.0" y="382.7" type="line" smooth="yes"/>
      <point x="134.0" y="270.0"/>
      <point x="193.1" y="214.0"/>
      <point x="283.9" y="214.0" type="curve" smooth="yes"/>
      <point x="367.0" y="214.0"/>
      <point x="437.7" y="266.4"/>
      <point x="437.7" y="372.5" type="curve" smooth="yes"/>
      <point x="437.7" y="554.0" type="line"/>
      <point x="-213.9" y="554.0" type="line"/>
      <point x="-176.3" y="500.0" type="line"/>
      <point x="347.2" y="500.0" type="line"/>
      <point x="347.2" y="364.9" type="line" smooth="yes"/>
      <point x="347.2" y="306.0"/>
      <point x="316.1" y="270.1"/>
      <point x="268.4" y="270.1" type="curve" smooth="yes"/>
      <point x="214.60000000000002" y="270.1"/>
      <point x="190.8" y="305.4"/>
      <point x="190.8" y="379.1" type="curve" smooth="yes"/>
      <point x="190.8" y="525.1" type="line" smooth="yes"/>
      <point x="190.8" y="630.7"/>
      <point x="249.2" y="727.0"/>
      <point x="372.1" y="727.0" type="curve" smooth="yes"/>
      <point x="544.8" y="727.0"/>
      <point x="602.0" y="570.0"/>
      <point x="602.0" y="425.0" type="curve" smooth="yes"/>
      <point x="602.0" y="210.7"/>
      <point x="515.5" y="54.0"/>
      <point x="320.4" y="54.0" type="curve" smooth="yes"/>
      <point x="216.2" y="54.0"/>
      <point x="137.3" y="93.0"/>
      <point x="71.7" y="192.5" type="curve"/>
      <point x="29.200000000000003" y="160.8" type="line"/>
      <point x="99.4" y="59.0"/>
      <point x="188.3" y="0.0"/>
    </contour>
  </outline>
</glyph>
<glyph name="eMatra-tamil" format="2">
  <advance width="717.7"/>
  <unicode hex="0BC6"/>
  <note>
uni0BC6
</note>
  <outline>
    <contour>
      <point x="284.1" y="-4.7" type="curve" smooth="yes"/>
      <point x="378.8" y="-4.7"/>
      <point x="436.8" y="57.9"/>
      <point x="436.8" y="153.5" type="curve" smooth="yes"/>
      <point x="436.8" y="249.1"/>
      <point x="384.4" y="308.3"/>
      <point x="302.9" y="308.3" type="curve" smooth="yes"/>
      <point x="212.1" y="308.3"/>
      <point x="150.3" y="218.5"/>
      <point x="148.3" y="110.9" type="curve"/>
      <point x="179.0" y="84.6" type="line"/>
      <point x="179.3" y="175.2"/>
      <point x="219.3" y="241.0"/>
      <point x="274.3" y="241.0" type="curve" smooth="yes"/>
      <point x="327.7" y="241.0"/>
      <point x="349.4" y="195.3"/>
      <point x="349.4" y="147.4" type="curve" smooth="yes"/>
      <point x="349.4" y="91.3"/>
      <point x="324.4" y="49.0"/>
      <point x="268.2" y="49.0" type="curve" smooth="yes"/>
      <point x="152.4" y="49.0"/>
      <point x="108.0" y="212.9"/>
      <point x="108.0" y="382.3" type="curve" smooth="yes"/>
      <point x="108.0" y="598.3"/>
      <point x="205.8" y="729.2"/>
      <point x="369.9" y="729.2" type="curve" smooth="yes"/>
      <point x="514.7" y="729.2"/>
      <point x="581.8" y="648.6"/>
      <point x="581.8" y="455.1" type="curve" smooth="yes"/>
      <point x="581.8" y="0.0" type="line"/>
      <point x="638.6" y="0.0" type="line"/>
      <point x="638.6" y="467.0" type="line" smooth="yes"/>
      <point x="638.6" y="707.8"/>
      <point x="547.3" y="819.2"/>
      <point x="373.2" y="819.2" type="curve" smooth="yes"/>
      <point x="175.6" y="819.2"/>
      <point x="53.2" y="638.4"/>
      <point x="53.2" y="388.0" type="curve" smooth="yes"/>
      <point x="53.2" y="192.7"/>
      <point x="120.2" y="-4.7"/>
    </contour>
  </outline>
</glyph>
<glyph name="eeMatra-tamil" format="2">
  <advance width="537.9"/>
  <unicode hex="0BC7"/>
  <note>
uni0BC7
</note>
  <outline>
    <contour>
      <point x="328.1" y="-5.0" type="curve" smooth="yes"/>
      <point x="423.1" y="-5.0"/>
      <point x="488.8" y="52.7"/>
      <point x="488.8" y="153.5" type="curve" smooth="yes"/>
      <point x="488.8" y="250.9"/>
      <point x="435.8" y="308.9"/>
      <point x="354.9" y="308.9" type="curve" smooth="yes"/>
      <point x="263.5" y="308.9"/>
      <point x="203.7" y="216.4"/>
      <point x="199.7" y="95.3" type="curve"/>
      <point x="234.2" y="70.2" type="line"/>
      <point x="236.7" y="174.8"/>
      <point x="273.1" y="241.6"/>
      <point x="326.8" y="241.6" type="curve" smooth="yes"/>
      <point x="379.4" y="241.6"/>
      <point x="400.7" y="195.9"/>
      <point x="400.7" y="147.4" type="curve" smooth="yes"/>
      <point x="400.7" y="86.1"/>
      <point x="368.0" y="49.0"/>
      <point x="311.8" y="49.0" type="curve" smooth="yes"/>
      <point x="214.7" y="49.0"/>
      <point x="108.0" y="203.3"/>
      <point x="108.0" y="406.4" type="curve" smooth="yes"/>
      <point x="108.0" y="609.1"/>
      <point x="214.7" y="765.9"/>
      <point x="311.8" y="765.9" type="curve" smooth="yes"/>
      <point x="368.0" y="765.9"/>
      <point x="400.7" y="728.1"/>
      <point x="400.7" y="666.8" type="curve" smooth="yes"/>
      <point x="400.7" y="618.3"/>
      <point x="379.4" y="573.3"/>
      <point x="326.8" y="573.3" type="curve" smooth="yes"/>
      <point x="273.1" y="573.3"/>
      <point x="236.7" y="639.7"/>
      <point x="234.2" y="744.7" type="curve"/>
      <point x="199.7" y="719.9" type="line"/>
      <point x="203.7" y="598.5"/>
      <point x="263.5" y="505.6"/>
      <point x="354.9" y="505.6" type="curve" smooth="yes"/>
      <point x="435.8" y="505.6"/>
      <point x="488.8" y="564.0"/>
      <point x="488.8" y="661.4" type="curve" smooth="yes"/>
      <point x="488.8" y="761.5"/>
      <point x="423.1" y="819.2"/>
      <point x="328.1" y="819.2" type="curve" smooth="yes"/>
      <point x="179.9" y="819.2"/>
      <point x="53.2" y="638.2"/>
      <point x="53.2" y="407.8" type="curve" smooth="yes"/>
      <point x="53.2" y="177.4"/>
      <point x="179.9" y="-5.0"/>
    </contour>
  </outline>
</glyph>
<glyph name="aiMatra-tamil" format="2">
  <advance width="1081.0"/>
  <unicode hex="0BC8"/>
  <note>
uni0BC8
</note>
  <outline>
    <contour>
      <point x="880.3" y="-7.1" type="line"/>
      <point x="977.7" y="53.2"/>
      <point x="1032.8" y="139.8"/>
      <point x="1032.8" y="267.7" type="curve" smooth="yes"/>
      <point x="1032.8" y="442.8"/>
      <point x="923.1" y="559.0"/>
      <point x="745.8" y="559.0" type="curve" smooth="yes"/>
      <point x="548.5" y="559.0"/>
      <point x="442.6" y="388.1"/>
      <point x="442.6" y="192.3" type="curve" smooth="yes"/>
      <point x="442.6" y="67.8"/>
      <point x="492.7" y="-5.0"/>
      <point x="586.4" y="-5.0" type="curve" smooth="yes"/>
      <point x="679.5" y="-5.0"/>
      <point x="742.7" y="65.8"/>
      <point x="742.7" y="187.0" type="curve" smooth="yes"/>
      <point x="742.7" y="404.3"/>
      <point x="590.8" y="559.0"/>
      <point x="371.7" y="559.0" type="curve" smooth="yes"/>
      <point x="196.8" y="559.0"/>
      <point x="48.5" y="452.0"/>
      <point x="48.5" y="245.9" type="curve" smooth="yes"/>
      <point x="48.5" y="81.2"/>
      <point x="128.5" y="-4.7"/>
      <point x="230.0" y="-4.7" type="curve" smooth="yes"/>
      <point x="324.7" y="-4.7"/>
      <point x="383.4" y="57.9"/>
      <point x="383.4" y="151.4" type="curve" smooth="yes"/>
      <point x="383.4" y="244.1"/>
      <point x="331.0" y="303.3"/>
      <point x="251.0" y="303.3" type="curve" smooth="yes"/>
      <point x="161.7" y="303.3"/>
      <point x="104.9" y="217.8"/>
      <point x="101.4" y="119.8" type="curve"/>
      <point x="130.0" y="93.5" type="line"/>
      <point x="131.8" y="174.5"/>
      <point x="168.9" y="236.0"/>
      <point x="221.7" y="236.0" type="curve" smooth="yes"/>
      <point x="274.3" y="236.0"/>
      <point x="295.6" y="190.3"/>
      <point x="295.6" y="146.0" type="curve" smooth="yes"/>
      <point x="295.6" y="91.3"/>
      <point x="271.3" y="49.0"/>
      <point x="215.1" y="49.0" type="curve" smooth="yes"/>
      <point x="150.8" y="49.0"/>
      <point x="103.0" y="113.9"/>
      <point x="103.0" y="244.3" type="curve" smooth="yes"/>
      <point x="103.0" y="414.7"/>
      <point x="218.6" y="505.0"/>
      <point x="364.0" y="505.0" type="curve" smooth="yes"/>
      <point x="533.8" y="505.0"/>
      <point x="650.3" y="392.0"/>
      <point x="650.3" y="187.3" type="curve" smooth="yes"/>
      <point x="650.3" y="99.0"/>
      <point x="623.9" y="49.0"/>
      <point x="572.6" y="49.0" type="curve" smooth="yes"/>
      <point x="524.0" y="49.0"/>
      <point x="497.2" y="99.1"/>
      <point x="497.2" y="188.3" type="curve" smooth="yes"/>
      <point x="497.2" y="351.4"/>
      <point x="571.0" y="505.0"/>
      <point x="737.4" y="505.0" type="curve" smooth="yes"/>
      <point x="863.1" y="505.0"/>
      <point x="942.4" y="414.5"/>
      <point x="942.4" y="257.2" type="curve" smooth="yes"/>
      <point x="942.4" y="165.8"/>
      <point x="916.5" y="94.0"/>
      <point x="854.1" y="29.1" type="curve"/>
    </contour>
  </outline>
</glyph>
<glyph name="halant-tamil" format="2">
  <unicode hex="0BCD"/>
  <note>
uni0BCD
</note>
  <anchor x="0.0" y="554.0" name="_top"/>
  <outline>
    <contour>
      <point x="0.0" y="628.6" type="curve" smooth="yes"/>
      <point x="31.9" y="628.6"/>
      <point x="57.5" y="654.5"/>
      <point x="57.5" y="684.4" type="curve" smooth="yes"/>
      <point x="57.5" y="714.3"/>
      <point x="31.9" y="740.9"/>
      <point x="0.0" y="740.9" type="curve" smooth="yes"/>
      <point x="-31.9" y="740.9"/>
      <point x="-57.5" y="714.3"/>
      <point x="-57.5" y="684.4" type="curve" smooth="yes"/>
      <point x="-57.5" y="654.5"/>
      <point x="-31.9" y="628.6"/>
    </contour>
  </outline>
</glyph>
<glyph name="om-tamil" format="2">
  <advance width="834.9"/>
  <unicode hex="0BD0"/>
  <note>
uni0BD0
</note>
  <outline>
    <contour>
      <point x="295.9" y="-357.9" type="curve" smooth="yes"/>
      <point x="515.4" y="-357.9"/>
      <point x="519.9" y="-138.3"/>
      <point x="658.7" y="-138.3" type="curve" smooth="yes"/>
      <point x="700.0" y="-138.3" type="line"/>
      <point x="700.0" y="-84.6" type="line"/>
      <point x="651.7" y="-84.6" type="line" smooth="yes"/>
      <point x="523.4" y="-84.6"/>
      <point x="421.0" y="36.400000000000006"/>
      <point x="509.3" y="193.3" type="curve"/>
      <point x="515.0" y="190.0" type="line"/>
      <point x="488.0" y="88.5"/>
      <point x="514.7" y="-5.0"/>
      <point x="626.7" y="-5.0" type="curve" smooth="yes"/>
      <point x="716.5" y="-5.0"/>
      <point x="786.7" y="72.0"/>
      <point x="786.7" y="195.4" type="curve" smooth="yes"/>
      <point x="786.7" y="422.3"/>
      <point x="614.9" y="559.0"/>
      <point x="397.4" y="559.0" type="curve" smooth="yes"/>
      <point x="205.8" y="559.0"/>
      <point x="48.5" y="426.2"/>
      <point x="48.5" y="243.3" type="curve" smooth="yes"/>
      <point x="48.5" y="82.0"/>
      <point x="128.3" y="5.0"/>
      <point x="231.1" y="5.0" type="curve" smooth="yes"/>
      <point x="326.1" y="5.0"/>
      <point x="384.1" y="67.6"/>
      <point x="384.1" y="161.4" type="curve" smooth="yes"/>
      <point x="384.1" y="254.1"/>
      <point x="331.7" y="313.0"/>
      <point x="252.4" y="313.0" type="curve" smooth="yes"/>
      <point x="162.1" y="313.0"/>
      <point x="104.6" y="220.8"/>
      <point x="101.1" y="122.5" type="curve"/>
      <point x="129.7" y="96.2" type="line"/>
      <point x="130.8" y="177.2"/>
      <point x="169.3" y="246.0"/>
      <point x="223.1" y="246.0" type="curve" smooth="yes"/>
      <point x="275.4" y="246.0"/>
      <point x="296.7" y="200.3"/>
      <point x="296.7" y="156.0" type="curve" smooth="yes"/>
      <point x="296.7" y="101.3"/>
      <point x="271.7" y="59.0"/>
      <point x="215.5" y="59.0" type="curve" smooth="yes"/>
      <point x="151.6" y="59.0"/>
      <point x="103.0" y="114.3"/>
      <point x="103.0" y="241.7" type="curve" smooth="yes"/>
      <point x="103.0" y="400.1"/>
      <point x="241.5" y="505.0"/>
      <point x="397.6" y="505.0" type="curve" smooth="yes"/>
      <point x="571.3" y="505.0"/>
      <point x="696.6" y="396.4"/>
      <point x="696.6" y="205.4" type="curve" smooth="yes"/>
      <point x="696.6" y="113.0"/>
      <point x="663.4" y="48.7"/>
      <point x="609.5" y="48.7" type="curve" smooth="yes"/>
      <point x="535.6" y="48.7"/>
      <point x="535.8" y="152.9"/>
      <point x="579.9" y="253.7" type="curve"/>
      <point x="518.3" y="285.8" type="line"/>
      <point x="365.6" y="87.2"/>
      <point x="441.2" y="-59.3"/>
      <point x="553.1" y="-107.3" type="curve"/>
      <point x="553.1" y="-112.3" type="line"/>
      <point x="448.8" y="-133.3"/>
      <point x="455.7" y="-296.4"/>
      <point x="273.8" y="-296.4" type="curve" smooth="yes"/>
      <point x="192.4" y="-296.4"/>
      <point x="134.3" y="-254.4"/>
      <point x="150.0" y="-165.8" type="curve"/>
      <point x="97.9" y="-155.9" type="line"/>
      <point x="73.6" y="-285.9"/>
      <point x="174.3" y="-357.9"/>
    </contour>
    <contour>
      <point x="193.4" y="-230.7" type="line"/>
      <point x="233.9" y="-230.7" type="line"/>
      <point x="233.9" y="-78.7" type="line"/>
      <point x="193.4" y="-78.7" type="line"/>
    </contour>
    <contour>
      <point x="208.2" y="-230.7" type="line"/>
      <point x="370.5" y="-230.7" type="line"/>
      <point x="370.5" y="-192.1" type="line"/>
      <point x="208.2" y="-192.1" type="line"/>
    </contour>
    <contour>
      <point x="270.9" y="-230.7" type="line"/>
      <point x="309.1" y="-230.7" type="line"/>
      <point x="309.1" y="-138.5" type="line" smooth="yes"/>
      <point x="309.1" y="-124.3"/>
      <point x="315.0" y="-115.0"/>
      <point x="329.1" y="-115.0" type="curve" smooth="yes"/>
      <point x="342.8" y="-115.0"/>
      <point x="348.4" y="-124.3"/>
      <point x="348.4" y="-138.5" type="curve" smooth="yes"/>
      <point x="348.4" y="-230.7" type="line"/>
      <point x="390.3" y="-230.7" type="line"/>
      <point x="390.3" y="-142.7" type="line" smooth="yes"/>
      <point x="390.3" y="-92.8"/>
      <point x="361.0" y="-76.0"/>
      <point x="329.1" y="-76.0" type="curve" smooth="yes"/>
      <point x="297.9" y="-76.0"/>
      <point x="270.9" y="-92.8"/>
      <point x="270.9" y="-142.7" type="curve" smooth="yes"/>
    </contour>
    <contour>
      <point x="287.2" y="-67.0" type="curve" smooth="yes"/>
      <point x="304.1" y="-67.0"/>
      <point x="317.7" y="-53.1"/>
      <point x="317.7" y="-37.5" type="curve" smooth="yes"/>
      <point x="317.7" y="-22.200000000000003"/>
      <point x="304.1" y="-8.3"/>
      <point x="287.2" y="-8.3" type="curve" smooth="yes"/>
      <point x="270.3" y="-8.3"/>
      <point x="256.7" y="-22.200000000000003"/>
      <point x="256.7" y="-37.5" type="curve" smooth="yes"/>
      <point x="256.7" y="-53.1"/>
      <point x="270.3" y="-67.0"/>
    </contour>
  </outline>
</glyph>
<glyph name="zero-tamil" format="2">
  <advance width="518.5"/>
  <unicode hex="0BE6"/>
  <note>
uni0BE6
</note>
  <outline>
    <contour>
      <point x="259.3" y="-5.0" type="curve" smooth="yes"/>
      <point x="386.2" y="-5.0"/>
      <point x="468.9" y="100.0"/>
      <point x="468.9" y="277.0" type="curve" smooth="yes"/>
      <point x="468.9" y="449.0"/>
      <point x="389.0" y="559.0"/>
      <point x="260.7" y="559.0" type="curve" smooth="yes"/>
      <point x="124.3" y="559.0"/>
      <point x="49.9" y="446.0"/>
      <point x="49.9" y="277.0" type="curve" smooth="yes"/>
      <point x="49.9" y="108.0"/>
      <point x="122.9" y="-5.0"/>
    </contour>
    <contour>
      <point x="243.1" y="60.9" type="curve" smooth="yes"/>
      <point x="148.2" y="60.9"/>
      <point x="108.8" y="157.1"/>
      <point x="108.8" y="277.0" type="curve" smooth="yes"/>
      <point x="108.8" y="391.9"/>
      <point x="148.2" y="493.1"/>
      <point x="243.1" y="493.1" type="curve" smooth="yes"/>
      <point x="331.7" y="493.1"/>
      <point x="377.8" y="411.9"/>
      <point x="377.8" y="277.0" type="curve" smooth="yes"/>
      <point x="377.8" y="137.1"/>
      <point x="328.9" y="60.9"/>
    </contour>
  </outline>
</glyph>
<glyph name="one-tamil" format="2">
  <advance width="710.3"/>
  <unicode hex="0BE7"/>
  <note>
uni0BE7
</note>
  <outline>
    <contour>
      <point x="231.8" y="-4.3" type="curve" smooth="yes"/>
      <point x="361.2" y="-4.3"/>
      <point x="430.0" y="70.9"/>
      <point x="430.0" y="200.0" type="curve" smooth="yes"/>
      <point x="430.0" y="263.0" type="line"/>
      <point x="462.7" y="263.0" type="line" smooth="yes"/>
      <point x="526.1" y="263.0"/>
      <point x="568.4" y="229.0"/>
      <point x="568.4" y="154.0" type="curve" smooth="yes"/>
      <point x="568.4" y="86.7"/>
      <point x="532.1" y="51.0"/>
      <point x="484.8" y="51.0" type="curve" smooth="yes"/>
      <point x="444.7" y="51.0"/>
      <point x="415.1" y="70.5"/>
      <point x="386.5" y="106.8" type="curve"/>
      <point x="357.6" y="61.5" type="line"/>
      <point x="397.7" y="15.4"/>
      <point x="437.7" y="-5.0"/>
      <point x="498.4" y="-5.0" type="curve" smooth="yes"/>
      <point x="584.9" y="-5.0"/>
      <point x="658.5" y="47.7"/>
      <point x="658.5" y="151.0" type="curve" smooth="yes"/>
      <point x="658.5" y="259.0"/>
      <point x="582.9" y="317.0"/>
      <point x="461.7" y="317.0" type="curve" smooth="yes"/>
      <point x="430.0" y="317.0" type="line"/>
      <point x="430.0" y="500.0" type="line"/>
      <point x="566.5" y="500.0" type="line"/>
      <point x="566.5" y="554.0" type="line"/>
      <point x="161.4" y="554.0" type="line"/>
      <point x="161.4" y="286.0" type="line"/>
      <point x="218.2" y="286.0" type="line"/>
      <point x="218.2" y="500.0" type="line"/>
      <point x="338.5" y="500.0" type="line"/>
      <point x="338.5" y="317.0" type="line"/>
      <point x="202.6" y="317.0" type="line" smooth="yes"/>
      <point x="112.5" y="317.0"/>
      <point x="51.8" y="257.5"/>
      <point x="51.8" y="161.7" type="curve" smooth="yes"/>
      <point x="51.8" y="62.4"/>
      <point x="120.2" y="-4.3"/>
    </contour>
    <contour>
      <point x="223.1" y="49.0" type="curve" smooth="yes"/>
      <point x="154.4" y="49.0"/>
      <point x="111.0" y="87.4"/>
      <point x="111.0" y="160.0" type="curve" smooth="yes"/>
      <point x="111.0" y="223.3"/>
      <point x="142.9" y="263.0"/>
      <point x="208.4" y="263.0" type="curve" smooth="yes"/>
      <point x="338.5" y="263.0" type="line"/>
      <point x="338.5" y="189.0" type="line" smooth="yes"/>
      <point x="338.5" y="87.8"/>
      <point x="285.9" y="49.0"/>
    </contour>
  </outline>
</glyph>
<glyph name="two-tamil" format="2">
  <advance width="779.6"/>
  <unicode hex="0BE8"/>
  <note>
uni0BE8
</note>
  <outline>
    <contour>
      <point x="140.7" y="0.0" type="curve" smooth="yes"/>
      <point x="759.8" y="0.0" type="line"/>
      <point x="759.8" y="54.0" type="line"/>
      <point x="140.4" y="54.0" type="line" smooth="yes"/>
      <point x="120.8" y="54.0"/>
      <point x="102.1" y="69.0"/>
      <point x="102.1" y="94.0" type="curve" smooth="yes"/>
      <point x="102.1" y="120.0"/>
      <point x="120.8" y="135.0"/>
      <point x="140.4" y="135.0" type="curve" smooth="yes"/>
      <point x="326.0" y="135.0" type="line" smooth="yes"/>
      <point x="446.3" y="135.0"/>
      <point x="545.4" y="209.2"/>
      <point x="545.4" y="338.8" type="curve" smooth="yes"/>
      <point x="545.4" y="485.8"/>
      <point x="438.2" y="559.0"/>
      <point x="310.3" y="559.0" type="curve" smooth="yes"/>
      <point x="190.8" y="559.0"/>
      <point x="95.7" y="490.0"/>
      <point x="95.7" y="347.0" type="curve" smooth="yes"/>
      <point x="95.7" y="208.0"/>
      <point x="198.9" y="149.0"/>
      <point x="308.2" y="149.0" type="curve"/>
      <point x="308.2" y="188.0" type="line"/>
      <point x="206.6" y="188.0"/>
      <point x="154.7" y="247.0"/>
      <point x="154.7" y="347.0" type="curve" smooth="yes"/>
      <point x="154.7" y="450.0"/>
      <point x="212.7" y="505.0"/>
      <point x="304.3" y="505.0" type="curve" smooth="yes"/>
      <point x="392.1" y="505.0"/>
      <point x="454.6" y="450.7"/>
      <point x="454.6" y="347.0" type="curve" smooth="yes"/>
      <point x="454.6" y="246.6"/>
      <point x="400.5" y="188.0"/>
      <point x="308.5" y="188.0" type="curve" smooth="yes"/>
      <point x="140.7" y="188.0" type="line" smooth="yes"/>
      <point x="89.3" y="188.0"/>
      <point x="48.3" y="154.0"/>
      <point x="48.3" y="94.0" type="curve" smooth="yes"/>
      <point x="48.3" y="35.0"/>
      <point x="89.3" y="0.0"/>
    </contour>
  </outline>
</glyph>
<glyph name="three-tamil" format="2">
  <advance width="742.0"/>
  <unicode hex="0BE9"/>
  <note>
uni0BE9
</note>
  <outline>
    <contour>
      <point x="81.9" y="0.0" type="line"/>
      <point x="138.7" y="0.0" type="line"/>
      <point x="138.7" y="500.0" type="line"/>
      <point x="266.0" y="500.0" type="line"/>
      <point x="266.0" y="196.0" type="line"/>
      <point x="354.7" y="196.0" type="line"/>
      <point x="354.7" y="234.9" type="line" smooth="yes"/>
      <point x="354.7" y="282.6"/>
      <point x="380.7" y="313.9"/>
      <point x="417.3" y="313.9" type="curve" smooth="yes"/>
      <point x="458.3" y="313.9"/>
      <point x="486.8" y="279.3"/>
      <point x="486.8" y="210.0" type="curve" smooth="yes"/>
      <point x="486.8" y="94.4"/>
      <point x="413.2" y="54.0"/>
      <point x="356.0" y="54.0" type="curve" smooth="yes"/>
      <point x="266.0" y="54.0" type="line"/>
      <point x="266.0" y="0.0" type="line"/>
      <point x="720.9" y="0.0" type="line"/>
      <point x="720.9" y="54.0" type="line"/>
      <point x="461.3" y="54.0" type="line"/>
      <point x="514.2" y="72.8"/>
      <point x="574.9" y="131.0"/>
      <point x="574.9" y="226.0" type="curve" smooth="yes"/>
      <point x="574.9" y="317.8"/>
      <point x="525.8" y="379.0"/>
      <point x="452.1" y="379.0" type="curve" smooth="yes"/>
      <point x="396.7" y="379.0"/>
      <point x="366.1" y="345.0"/>
      <point x="356.1" y="320.1" type="curve"/>
      <point x="356.1" y="500.0" type="line"/>
      <point x="491.9" y="500.0" type="line"/>
      <point x="491.9" y="554.0" type="line"/>
      <point x="81.9" y="554.0" type="line"/>
    </contour>
  </outline>
</glyph>
<glyph name="five-tamil" format="2">
  <advance width="929.5"/>
  <unicode hex="0BEB"/>
  <note>
uni0BEB
</note>
  <outline>
    <contour>
      <point x="454.9" y="-296.0" type="curve" smooth="yes"/>
      <point x="695.1" y="-296.0"/>
      <point x="817.8" y="-116.0"/>
      <point x="817.8" y="112.0" type="curve" smooth="yes"/>
      <point x="817.8" y="245.0"/>
      <point x="763.3" y="345.0"/>
      <point x="662.6" y="345.0" type="curve" smooth="yes"/>
      <point x="588.4" y="345.0"/>
      <point x="541.0" y="283.1"/>
      <point x="541.0" y="193.4" type="curve" smooth="yes"/>
      <point x="541.0" y="138.0" type="line"/>
      <point x="569.0" y="138.0" type="line"/>
      <point x="569.0" y="193.5" type="line" smooth="yes"/>
      <point x="569.0" y="240.9"/>
      <point x="594.1" y="284.6"/>
      <point x="638.0" y="284.6" type="curve" smooth="yes"/>
      <point x="702.3" y="284.6"/>
      <point x="724.6" y="202.0"/>
      <point x="724.6" y="102.0" type="curve" smooth="yes"/>
      <point x="724.6" y="-99.0"/>
      <point x="648.5" y="-243.0"/>
      <point x="447.9" y="-243.0" type="curve" smooth="yes"/>
      <point x="219.1" y="-243.0"/>
      <point x="109.5" y="-12.0"/>
      <point x="109.5" y="264.0" type="curve" smooth="yes"/>
      <point x="109.5" y="549.0"/>
      <point x="231.0" y="739.0"/>
      <point x="475.4" y="739.0" type="curve" smooth="yes"/>
      <point x="676.8" y="739.0"/>
      <point x="794.2" y="621.0"/>
      <point x="810.5" y="396.0" type="curve"/>
      <point x="869.4" y="396.0" type="line"/>
      <point x="849.6" y="666.8"/>
      <point x="698.8" y="829.0"/>
      <point x="473.3" y="829.0" type="curve" smooth="yes"/>
      <point x="196.0" y="829.0"/>
      <point x="53.4" y="584.0"/>
      <point x="53.4" y="264.0" type="curve" smooth="yes"/>
      <point x="53.4" y="-38.0"/>
      <point x="190.4" y="-296.0"/>
    </contour>
    <contour>
      <point x="281.5" y="0.0" type="line"/>
      <point x="338.6" y="0.0" type="line"/>
      <point x="338.6" y="500.0" type="line"/>
      <point x="477.5" y="500.0" type="line"/>
      <point x="477.5" y="0.0" type="line"/>
      <point x="569.0" y="0.0" type="line"/>
      <point x="569.0" y="500.0" type="line"/>
      <point x="705.5" y="500.0" type="line"/>
      <point x="705.5" y="554.0" type="line"/>
      <point x="281.5" y="554.0" type="line"/>
    </contour>
  </outline>
</glyph>
<glyph name="six-tamil" format="2">
  <advance width="936.0"/>
  <unicode hex="0BEC"/>
  <note>
uni0BEC
</note>
  <outline>
    <contour>
      <point x="231.8" y="-4.0" type="curve" smooth="yes"/>
      <point x="364.7" y="-4.0"/>
      <point x="430.0" y="70.9"/>
      <point x="430.0" y="200.0" type="curve" smooth="yes"/>
      <point x="430.0" y="263.0" type="line"/>
      <point x="496.9" y="263.0" type="line" smooth="yes"/>
      <point x="523.7" y="263.0"/>
      <point x="538.9" y="246.0"/>
      <point x="538.9" y="214.0" type="curve" smooth="yes"/>
      <point x="538.9" y="0.0" type="line"/>
      <point x="625.3" y="0.0" type="line"/>
      <point x="625.3" y="214.0" type="line" smooth="yes"/>
      <point x="625.3" y="246.0"/>
      <point x="640.2" y="263.0"/>
      <point x="667.3" y="263.0" type="curve" smooth="yes"/>
      <point x="890.8" y="263.0" type="line"/>
      <point x="890.8" y="317.0" type="line"/>
      <point x="658.0" y="317.0" type="line" smooth="yes"/>
      <point x="618.3" y="317.0"/>
      <point x="588.4" y="297.8"/>
      <point x="582.1" y="261.6" type="curve"/>
      <point x="575.8" y="297.8"/>
      <point x="545.9" y="317.0"/>
      <point x="505.2" y="317.0" type="curve" smooth="yes"/>
      <point x="430.0" y="317.0" type="line"/>
      <point x="430.0" y="500.0" type="line"/>
      <point x="566.5" y="500.0" type="line"/>
      <point x="566.5" y="554.0" type="line"/>
      <point x="161.4" y="554.0" type="line"/>
      <point x="161.4" y="286.0" type="line"/>
      <point x="218.2" y="286.0" type="line"/>
      <point x="218.2" y="500.0" type="line"/>
      <point x="338.5" y="500.0" type="line"/>
      <point x="338.5" y="317.0" type="line"/>
      <point x="204.1" y="317.0" type="line" smooth="yes"/>
      <point x="112.2" y="317.0"/>
      <point x="51.8" y="256.0"/>
      <point x="51.8" y="162.0" type="curve" smooth="yes"/>
      <point x="51.8" y="61.8"/>
      <point x="120.5" y="-4.0"/>
    </contour>
    <contour>
      <point x="223.1" y="49.0" type="curve" smooth="yes"/>
      <point x="154.7" y="49.0"/>
      <point x="111.0" y="86.8"/>
      <point x="111.0" y="160.0" type="curve" smooth="yes"/>
      <point x="111.0" y="223.0"/>
      <point x="142.9" y="263.0"/>
      <point x="211.4" y="263.0" type="curve" smooth="yes"/>
      <point x="338.5" y="263.0" type="line"/>
      <point x="338.5" y="189.0" type="line" smooth="yes"/>
      <point x="338.5" y="87.2"/>
      <point x="289.4" y="49.0"/>
    </contour>
    <contour>
      <point x="731.4" y="0.0" type="line"/>
      <point x="818.8" y="0.0" type="line"/>
      <point x="818.8" y="288.0" type="line"/>
      <point x="731.4" y="288.0" type="line"/>
    </contour>
  </outline>
</glyph>
<glyph name="eight-tamil" format="2">
  <advance width="1081.7"/>
  <unicode hex="0BEE"/>
  <note>
uni0BEE
</note>
  <outline>
    <contour>
      <point x="908.6" y="-189.7" type="line"/>
      <point x="999.4" y="-189.7" type="line"/>
      <point x="999.4" y="554.0" type="line"/>
      <point x="908.6" y="554.0" type="line"/>
      <point x="908.6" y="171.0" type="line"/>
      <point x="108.4" y="171.0" type="line" smooth="yes"/>
      <point x="59.9" y="171.0"/>
      <point x="35.5" y="143.0"/>
      <point x="35.5" y="99.0" type="curve" smooth="yes"/>
      <point x="35.5" y="4.0"/>
      <point x="167.1" y="-122.0"/>
      <point x="373.1" y="-122.0" type="curve" smooth="yes"/>
      <point x="624.8" y="-122.0"/>
      <point x="788.2" y="14.2"/>
      <point x="788.2" y="257.2" type="curve" smooth="yes"/>
      <point x="788.2" y="442.9"/>
      <point x="687.8" y="559.0"/>
      <point x="535.1" y="559.0" type="curve" smooth="yes"/>
      <point x="403.2" y="559.0"/>
      <point x="316.9" y="464.1"/>
      <point x="316.9" y="324.0" type="curve" smooth="yes"/>
      <point x="316.9" y="256.0"/>
      <point x="337.3" y="195.0"/>
      <point x="380.4" y="138.0" type="curve"/>
      <point x="440.9" y="138.0" type="line"/>
      <point x="392.2" y="196.0"/>
      <point x="370.8" y="252.0"/>
      <point x="370.8" y="314.0" type="curve" smooth="yes"/>
      <point x="370.8" y="432.6"/>
      <point x="432.8" y="505.0"/>
      <point x="524.6" y="505.0" type="curve" smooth="yes"/>
      <point x="630.8" y="505.0"/>
      <point x="697.1" y="405.1"/>
      <point x="697.1" y="260.0" type="curve" smooth="yes"/>
      <point x="697.1" y="56.3"/>
      <point x="570.5" y="-68.0"/>
      <point x="368.9" y="-68.0" type="curve" smooth="yes"/>
      <point x="200.8" y="-68.0"/>
      <point x="91.7" y="29.0"/>
      <point x="91.7" y="91.0" type="curve" smooth="yes"/>
      <point x="91.7" y="107.0"/>
      <point x="98.0" y="117.0"/>
      <point x="119.4" y="117.0" type="curve" smooth="yes"/>
      <point x="908.6" y="117.0" type="line"/>
    </contour>
  </outline>
</glyph>
<glyph name="nine-tamil" format="2">
  <advance width="1037.5"/>
  <unicode hex="0BEF"/>
  <note>
uni0BEF
</note>
  <outline>
    <contour>
      <point x="866.5" y="-20.0" type="line"/>
      <point x="939.1" y="21.9"/>
      <point x="995.5" y="82.6"/>
      <point x="995.5" y="188.1" type="curve" smooth="yes"/>
      <point x="995.5" y="331.5"/>
      <point x="888.2" y="423.0"/>
      <point x="749.7" y="423.0" type="curve" smooth="yes"/>
      <point x="612.4" y="423.0"/>
      <point x="511.4" y="324.4"/>
      <point x="511.4" y="175.5" type="curve" smooth="yes"/>
      <point x="511.4" y="74.9"/>
      <point x="557.4" y="-5.0"/>
      <point x="660.1" y="-5.0" type="curve" smooth="yes"/>
      <point x="742.0" y="-5.0"/>
      <point x="802.8" y="52.0"/>
      <point x="802.8" y="141.9" type="curve" smooth="yes"/>
      <point x="802.8" y="255.3"/>
      <point x="717.6" y="317.0"/>
      <point x="595.8" y="317.0" type="curve" smooth="yes"/>
      <point x="430.0" y="317.0" type="line"/>
      <point x="430.0" y="500.0" type="line"/>
      <point x="566.5" y="500.0" type="line"/>
      <point x="566.5" y="554.0" type="line"/>
      <point x="161.4" y="554.0" type="line"/>
      <point x="161.4" y="286.0" type="line"/>
      <point x="218.2" y="286.0" type="line"/>
      <point x="218.2" y="500.0" type="line"/>
      <point x="338.5" y="500.0" type="line"/>
      <point x="338.5" y="317.0" type="line"/>
      <point x="204.1" y="317.0" type="line" smooth="yes"/>
      <point x="112.2" y="317.0"/>
      <point x="51.8" y="256.0"/>
      <point x="51.8" y="162.0" type="curve" smooth="yes"/>
      <point x="51.8" y="61.8"/>
      <point x="120.5" y="-4.0"/>
      <point x="231.8" y="-4.0" type="curve" smooth="yes"/>
      <point x="361.2" y="-4.0"/>
      <point x="430.0" y="70.9"/>
      <point x="430.0" y="200.0" type="curve" smooth="yes"/>
      <point x="430.0" y="263.0" type="line"/>
      <point x="592.3" y="263.0" type="line" smooth="yes"/>
      <point x="666.0" y="263.0"/>
      <point x="713.0" y="217.9"/>
      <point x="713.0" y="134.9" type="curve" smooth="yes"/>
      <point x="713.0" y="85.8"/>
      <point x="691.0" y="49.0"/>
      <point x="645.6" y="49.0" type="curve" smooth="yes"/>
      <point x="595.5" y="49.0"/>
      <point x="566.1" y="104.9"/>
      <point x="566.1" y="169.2" type="curve" smooth="yes"/>
      <point x="566.1" y="288.7"/>
      <point x="628.4" y="370.0"/>
      <point x="736.4" y="370.0" type="curve" smooth="yes"/>
      <point x="840.9" y="370.0"/>
      <point x="905.4" y="302.4"/>
      <point x="905.4" y="180.0" type="curve" smooth="yes"/>
      <point x="905.4" y="120.0"/>
      <point x="888.2" y="54.9"/>
      <point x="840.3" y="16.0" type="curve"/>
    </contour>
    <contour>
      <point x="223.1" y="49.0" type="curve" smooth="yes"/>
      <point x="154.7" y="49.0"/>
      <point x="111.0" y="86.8"/>
      <point x="111.0" y="160.0" type="curve" smooth="yes"/>
      <point x="111.0" y="223.0"/>
      <point x="142.9" y="263.0"/>
      <point x="211.4" y="263.0" type="curve" smooth="yes"/>
      <point x="338.5" y="263.0" type="line"/>
      <point x="338.5" y="189.0" type="line" smooth="yes"/>
      <point x="338.5" y="87.2"/>
      <point x="285.9" y="49.0"/>
    </contour>
  </outline>
</glyph>
<glyph name="ten-tamil" format="2">
  <advance width="709.2"/>
  <unicode hex="0BF0"/>
  <note>
uni0BF0
</note>
  <outline>
    <contour>
      <point x="426.0" y="-5.0" type="curve" smooth="yes"/>
      <point x="564.9" y="-5.0"/>
      <point x="647.9" y="140.0"/>
      <point x="647.9" y="326.0" type="curve" smooth="yes"/>
      <point x="647.9" y="590.0"/>
      <point x="517.5" y="765.0"/>
      <point x="270.4" y="796.0" type="curve"/>
      <point x="266.8" y="742.0" type="line"/>
      <point x="488.3" y="717.0"/>
      <point x="592.5" y="538.3"/>
      <point x="592.5" y="336.0" type="curve" smooth="yes"/>
      <point x="592.5" y="160.0"/>
      <point x="527.4" y="49.0"/>
      <point x="440.0" y="49.0" type="curve" smooth="yes"/>
      <point x="406.0" y="49.0"/>
      <point x="388.0" y="70.2"/>
      <point x="388.0" y="106.4" type="curve" smooth="yes"/>
      <point x="388.0" y="554.0" type="line"/>
      <point x="297.4" y="554.0" type="line"/>
      <point x="297.4" y="129.6" type="line" smooth="yes"/>
      <point x="297.4" y="56.7"/>
      <point x="335.0" y="-5.0"/>
    </contour>
    <contour>
      <point x="207.3" y="-5.0" type="curve" smooth="yes"/>
      <point x="278.8" y="-5.0"/>
      <point x="332.7" y="36.6"/>
      <point x="332.7" y="150.9" type="curve" smooth="yes"/>
      <point x="332.7" y="207.0" type="line"/>
      <point x="297.4" y="207.0" type="line"/>
      <point x="297.4" y="147.6" type="line" smooth="yes"/>
      <point x="297.4" y="87.2"/>
      <point x="274.8" y="49.0"/>
      <point x="231.7" y="49.0" type="curve" smooth="yes"/>
      <point x="192.3" y="49.0"/>
      <point x="173.9" y="68.5"/>
      <point x="173.9" y="124.3" type="curve" smooth="yes"/>
      <point x="173.9" y="554.0" type="line"/>
      <point x="81.0" y="554.0" type="line"/>
      <point x="81.0" y="135.6" type="line" smooth="yes"/>
      <point x="81.0" y="41.2"/>
      <point x="130.6" y="-5.0"/>
    </contour>
  </outline>
</glyph>
<glyph name="onehundred-tamil" format="2">
  <advance width="746.2"/>
  <unicode hex="0BF1"/>
  <note>
uni0BF1
</note>
  <outline>
    <contour>
      <point x="259.5" y="0.0" type="line"/>
      <point x="316.0" y="0.0" type="line"/>
      <point x="316.0" y="500.0" type="line"/>
      <point x="486.6" y="500.0" type="line"/>
      <point x="486.6" y="0.0" type="line"/>
      <point x="577.1" y="0.0" type="line"/>
      <point x="577.1" y="500.0" type="line"/>
      <point x="713.9" y="500.0" type="line"/>
      <point x="713.9" y="554.0" type="line"/>
      <point x="259.5" y="554.0" type="line"/>
    </contour>
    <contour>
      <point x="67.1" y="0.0" type="line"/>
      <point x="125.3" y="0.0" type="line"/>
      <point x="125.3" y="422.0" type="line" smooth="yes"/>
      <point x="125.3" y="476.0"/>
      <point x="147.2" y="505.0"/>
      <point x="191.9" y="505.0" type="curve" smooth="yes"/>
      <point x="234.6" y="505.0"/>
      <point x="259.5" y="472.9"/>
      <point x="259.5" y="414.9" type="curve"/>
      <point x="288.0" y="414.9" type="line"/>
      <point x="288.0" y="502.9"/>
      <point x="247.3" y="559.0"/>
      <point x="177.0" y="559.0" type="curve" smooth="yes"/>
      <point x="109.3" y="559.0"/>
      <point x="67.1" y="507.4"/>
      <point x="67.1" y="424.1" type="curve" smooth="yes"/>
    </contour>
  </outline>
</glyph>
<glyph name="onethousand-tamil" format="2">
  <advance width="955.5"/>
  <unicode hex="0BF2"/>
  <note>
uni0BF2
</note>
  <outline>
    <contour>
      <point x="218.8" y="-4.0" type="curve" smooth="yes"/>
      <point x="348.5" y="-4.0"/>
      <point x="417.0" y="70.9"/>
      <point x="417.0" y="200.0" type="curve" smooth="yes"/>
      <point x="417.0" y="500.0" type="line"/>
      <point x="553.8" y="500.0" type="line"/>
      <point x="553.8" y="554.0" type="line"/>
      <point x="148.4" y="554.0" type="line"/>
      <point x="148.4" y="286.0" type="line"/>
      <point x="205.2" y="286.0" type="line"/>
      <point x="205.2" y="500.0" type="line"/>
      <point x="325.5" y="500.0" type="line"/>
      <point x="325.5" y="189.0" type="line" smooth="yes"/>
      <point x="325.5" y="87.2"/>
      <point x="273.6" y="49.0"/>
      <point x="210.1" y="49.0" type="curve" smooth="yes"/>
      <point x="142.0" y="49.0"/>
      <point x="98.7" y="86.8"/>
      <point x="98.7" y="160.0" type="curve" smooth="yes"/>
      <point x="98.7" y="223.0"/>
      <point x="130.9" y="263.0"/>
      <point x="198.4" y="263.0" type="curve" smooth="yes"/>
      <point x="850.7" y="263.0" type="line"/>
      <point x="850.7" y="317.0" type="line"/>
      <point x="191.1" y="317.0" type="line" smooth="yes"/>
      <point x="99.5" y="317.0"/>
      <point x="39.1" y="256.0"/>
      <point x="39.1" y="162.0" type="curve" smooth="yes"/>
      <point x="39.1" y="61.8"/>
      <point x="107.5" y="-4.0"/>
    </contour>
    <contour>
      <point x="429.3" y="-276.6" type="curve"/>
      <point x="429.3" y="-209.6"/>
      <point x="446.5" y="-170.6"/>
      <point x="526.2" y="-170.6" type="curve" smooth="yes"/>
      <point x="667.2" y="-170.6" type="line" smooth="yes"/>
      <point x="810.1" y="-170.6"/>
      <point x="916.4" y="-123.9"/>
      <point x="916.4" y="18.0" type="curve" smooth="yes"/>
      <point x="916.4" y="126.3"/>
      <point x="846.8" y="188.0"/>
      <point x="736.4" y="188.0" type="curve" smooth="yes"/>
      <point x="593.9" y="188.0" type="line" smooth="yes"/>
      <point x="524.9" y="188.0"/>
      <point x="471.1" y="145.9"/>
      <point x="471.1" y="68.3" type="curve" smooth="yes"/>
      <point x="471.1" y="-4.7"/>
      <point x="521.2" y="-56.0"/>
      <point x="594.9" y="-56.0" type="curve" smooth="yes"/>
      <point x="686.8" y="-56.0"/>
      <point x="739.0" y="5.0"/>
      <point x="739.0" y="95.0" type="curve" smooth="yes"/>
      <point x="739.0" y="291.0" type="line"/>
      <point x="657.4" y="291.0" type="line"/>
      <point x="657.4" y="87.1" type="line" smooth="yes"/>
      <point x="657.4" y="24.1"/>
      <point x="630.3" y="-2.0"/>
      <point x="589.0" y="-2.0" type="curve" smooth="yes"/>
      <point x="554.3" y="-2.0"/>
      <point x="527.9" y="21.0"/>
      <point x="527.9" y="66.3" type="curve" smooth="yes"/>
      <point x="527.9" y="113.6"/>
      <point x="555.6" y="134.0"/>
      <point x="598.8" y="134.0" type="curve" smooth="yes"/>
      <point x="737.1" y="134.0" type="line" smooth="yes"/>
      <point x="805.0" y="134.0"/>
      <point x="835.4" y="89.0"/>
      <point x="835.4" y="18.0" type="curve" smooth="yes"/>
      <point x="835.4" y="-82.0"/>
      <point x="764.2" y="-116.6"/>
      <point x="652.5" y="-116.6" type="curve" smooth="yes"/>
      <point x="492.2" y="-116.6" type="line" smooth="yes"/>
      <point x="416.8" y="-116.6"/>
      <point x="349.4" y="-134.6"/>
      <point x="349.4" y="-207.3" type="curve" smooth="yes"/>
      <point x="349.4" y="-255.6"/>
      <point x="378.0" y="-276.6"/>
    </contour>
  </outline>
</glyph>
<glyph name="day-tamil" format="2">
  <advance width="756.0"/>
  <unicode hex="0BF3"/>
  <note>
uni0BF3
</note>
  <outline>
    <contour>
      <point x="222.3" y="-4.7" type="curve" smooth="yes"/>
      <point x="314.2" y="-4.7"/>
      <point x="372.2" y="57.9"/>
      <point x="372.2" y="151.4" type="curve" smooth="yes"/>
      <point x="372.2" y="244.1"/>
      <point x="320.5" y="303.3"/>
      <point x="243.3" y="303.3" type="curve" smooth="yes"/>
      <point x="153.3" y="303.3"/>
      <point x="100.0" y="217.8"/>
      <point x="96.5" y="119.8" type="curve"/>
      <point x="125.1" y="93.5" type="line"/>
      <point x="126.2" y="174.5"/>
      <point x="161.2" y="236.0"/>
      <point x="214.0" y="236.0" type="curve" smooth="yes"/>
      <point x="263.8" y="236.0"/>
      <point x="285.1" y="190.3"/>
      <point x="285.1" y="146.0" type="curve" smooth="yes"/>
      <point x="285.1" y="91.3"/>
      <point x="260.1" y="49.0"/>
      <point x="207.4" y="49.0" type="curve" smooth="yes"/>
      <point x="146.6" y="49.0"/>
      <point x="103.0" y="113.9"/>
      <point x="103.0" y="244.3" type="curve" smooth="yes"/>
      <point x="103.0" y="407.9"/>
      <point x="180.9" y="505.0"/>
      <point x="310.9" y="505.0" type="curve" smooth="yes"/>
      <point x="438.2" y="505.0"/>
      <point x="514.7" y="401.3"/>
      <point x="514.7" y="264.0" type="curve" smooth="yes"/>
      <point x="514.7" y="157.0"/>
      <point x="484.8" y="92.8"/>
      <point x="449.1" y="40.9" type="curve"/>
      <point x="464.3" y="0.0" type="line"/>
      <point x="744.0" y="0.0" type="line"/>
      <point x="744.0" y="54.0" type="line"/>
      <point x="526.2" y="54.0" type="line"/>
      <point x="567.8" y="108.2"/>
      <point x="604.4" y="173.1"/>
      <point x="604.4" y="270.8" type="curve" smooth="yes"/>
      <point x="604.4" y="441.7"/>
      <point x="493.5" y="559.0"/>
      <point x="325.3" y="559.0" type="curve" smooth="yes"/>
      <point x="158.5" y="559.0"/>
      <point x="48.5" y="440.7"/>
      <point x="48.5" y="245.9" type="curve" smooth="yes"/>
      <point x="48.5" y="81.2"/>
      <point x="120.80000000000001" y="-4.7"/>
    </contour>
  </outline>
</glyph>
<glyph name="month-tamil" format="2">
  <advance width="942.0"/>
  <unicode hex="0BF4"/>
  <note>
uni0BF4
</note>
  <anchor x="379.8" y="0.0" name="bottom"/>
  <anchor x="664.3" y="554.0" name="imatra"/>
  <anchor x="380.8" y="0.0" name="nukta"/>
  <anchor x="414.0" y="554.0" name="top"/>
  <anchor x="393.6" y="554.0" name="vedic"/>
  <outline>
    <contour>
      <point x="614.8" y="468.0" type="curve"/>
      <point x="634.4" y="493.0" type="line"/>
      <point x="595.9" y="539.0"/>
      <point x="574.3" y="576.0"/>
      <point x="574.3" y="647.0" type="curve" smooth="yes"/>
      <point x="574.3" y="735.0"/>
      <point x="618.0" y="786.0"/>
      <point x="691.2" y="786.0" type="curve" smooth="yes"/>
      <point x="741.4" y="786.0"/>
      <point x="777.7" y="748.0"/>
      <point x="777.7" y="686.0" type="curve" smooth="yes"/>
      <point x="777.7" y="645.0"/>
      <point x="758.6" y="620.0"/>
      <point x="728.0" y="620.0" type="curve" smooth="yes"/>
      <point x="686.7" y="620.0"/>
      <point x="670.2" y="667.0"/>
      <point x="670.2" y="730.0" type="curve" smooth="yes"/>
      <point x="670.2" y="828.0"/>
      <point x="719.5" y="887.0"/>
      <point x="794.5" y="887.0" type="curve" smooth="yes"/>
      <point x="855.8" y="887.0"/>
      <point x="903.8" y="853.0"/>
      <point x="903.8" y="773.0" type="curve" smooth="yes"/>
      <point x="903.8" y="571.0" type="line"/>
      <point x="982.0" y="571.0" type="line"/>
      <point x="982.0" y="798.0" type="line" smooth="yes"/>
      <point x="982.0" y="857.0"/>
      <point x="1000.2" y="900.0"/>
      <point x="1051.9" y="892.0" type="curve"/>
      <point x="1058.0" y="936.0" type="line"/>
      <point x="983.0" y="940.7"/>
      <point x="951.0" y="898.7"/>
      <point x="943.5" y="842.7" type="curve"/>
      <point x="939.9" y="842.7" type="line"/>
      <point x="920.5" y="899.7"/>
      <point x="860.8" y="936.0"/>
      <point x="796.1" y="936.0" type="curve" smooth="yes"/>
      <point x="688.2" y="936.0"/>
      <point x="623.3" y="849.0"/>
      <point x="623.3" y="727.0" type="curve" smooth="yes"/>
      <point x="623.3" y="636.0"/>
      <point x="662.1" y="566.0"/>
      <point x="740.8" y="566.0" type="curve" smooth="yes"/>
      <point x="801.3" y="566.0"/>
      <point x="849.5" y="610.0"/>
      <point x="849.5" y="682.0" type="curve" smooth="yes"/>
      <point x="849.5" y="782.6"/>
      <point x="784.1" y="837.0"/>
      <point x="687.1" y="837.0" type="curve" smooth="yes"/>
      <point x="588.0" y="837.0"/>
      <point x="525.3" y="754.0"/>
      <point x="525.3" y="659.0" type="curve" smooth="yes"/>
      <point x="525.3" y="584.0"/>
      <point x="549.2" y="534.0"/>
    </contour>
    <component base="ma-tamil"/>
  </outline>
</glyph>
<glyph name="year-tamil" format="2">
  <advance width="1813.8"/>
  <unicode hex="0BF5"/>
  <note>
uni0BF5
</note>
  <anchor x="728.4" y="0.0" name="bottom"/>
  <anchor x="1130.7" y="554.0" name="imatra"/>
  <anchor x="731.9" y="0.0" name="nukta"/>
  <anchor x="762.7" y="554.0" name="top"/>
  <anchor x="725.1" y="554.0" name="vedic"/>
  <outline>
    <contour>
      <point x="691.9" y="-266.6" type="curve" smooth="yes"/>
      <point x="1024.0" y="-266.6"/>
      <point x="1308.0" y="-148.5"/>
      <point x="1308.0" y="142.0" type="curve" smooth="yes"/>
      <point x="1308.0" y="264.0"/>
      <point x="1255.3" y="345.0"/>
      <point x="1162.0" y="345.0" type="curve" smooth="yes"/>
      <point x="1085.7" y="345.0"/>
      <point x="1039.0" y="281.0"/>
      <point x="1039.0" y="185.0" type="curve" smooth="yes"/>
      <point x="1039.0" y="138.0" type="line"/>
      <point x="1063.9" y="138.0" type="line"/>
      <point x="1063.9" y="183.0" type="line" smooth="yes"/>
      <point x="1063.9" y="232.5"/>
      <point x="1087.2" y="283.2"/>
      <point x="1132.5" y="283.2" type="curve" smooth="yes"/>
      <point x="1191.2" y="283.2"/>
      <point x="1213.7" y="224.0"/>
      <point x="1213.7" y="136.0" type="curve" smooth="yes"/>
      <point x="1213.7" y="-117.0"/>
      <point x="980.5" y="-212.9"/>
      <point x="691.9" y="-212.9" type="curve" smooth="yes"/>
      <point x="360.0" y="-212.9"/>
      <point x="108.2" y="-56.8"/>
      <point x="108.2" y="271.1" type="curve" smooth="yes"/>
      <point x="108.2" y="581.4"/>
      <point x="342.0" y="775.0"/>
      <point x="745.5" y="775.0" type="curve" smooth="yes"/>
      <point x="1152.8" y="775.0"/>
      <point x="1406.2" y="596.4"/>
      <point x="1406.2" y="311.3" type="curve" smooth="yes"/>
      <point x="1406.2" y="166.0" type="line" smooth="yes"/>
      <point x="1406.2" y="53.9"/>
      <point x="1467.1" y="0.0"/>
      <point x="1554.7" y="0.0" type="curve" smooth="yes"/>
      <point x="1681.4" y="0.0"/>
      <point x="1760.6" y="116.3"/>
      <point x="1760.6" y="279.0" type="curve" smooth="yes"/>
      <point x="1760.6" y="384.8"/>
      <point x="1735.6" y="466.8"/>
      <point x="1669.7" y="559.0" type="curve"/>
      <point x="1624.2" y="528.1" type="line"/>
      <point x="1679.6" y="451.9"/>
      <point x="1704.3" y="372.8"/>
      <point x="1704.3" y="289.0" type="curve" smooth="yes"/>
      <point x="1704.3" y="151.8"/>
      <point x="1649.9" y="59.0"/>
      <point x="1570.6" y="59.0" type="curve" smooth="yes"/>
      <point x="1524.6" y="59.0"/>
      <point x="1497.4" y="90.5"/>
      <point x="1497.4" y="165.0" type="curve" smooth="yes"/>
      <point x="1497.4" y="311.4" type="line" smooth="yes"/>
      <point x="1497.4" y="636.8"/>
      <point x="1194.6" y="829.0"/>
      <point x="746.2" y="829.0" type="curve" smooth="yes"/>
      <point x="287.1" y="829.0"/>
      <point x="53.2" y="601.4"/>
      <point x="53.2" y="271.1" type="curve" smooth="yes"/>
      <point x="53.2" y="-84.9"/>
      <point x="327.8" y="-266.6"/>
    </contour>
    <component base="lla-tamil" xOffset="190.6"/>
  </outline>
</glyph>
<glyph name="debit-tamil" format="2">
  <advance width="982.8"/>
  <unicode hex="0BF6"/>
  <note>
uni0BF6
</note>
  <outline>
    <contour>
      <point x="322.9" y="-317.9" type="curve" smooth="yes"/>
      <point x="525.1" y="-317.9"/>
      <point x="660.3" y="-217.7"/>
      <point x="660.3" y="-8.399999999999999" type="curve" smooth="yes"/>
      <point x="660.3" y="554.0" type="line"/>
      <point x="568.1" y="554.0" type="line"/>
      <point x="568.1" y="-8.799999999999997" type="line" smooth="yes"/>
      <point x="568.1" y="-183.3"/>
      <point x="477.5" y="-263.9"/>
      <point x="315.6" y="-263.9" type="curve" smooth="yes"/>
      <point x="194.6" y="-263.9"/>
      <point x="95.9" y="-210.2"/>
      <point x="95.9" y="-140.8" type="curve" smooth="yes"/>
      <point x="95.9" y="-126.2"/>
      <point x="102.2" y="-116.9"/>
      <point x="123.6" y="-116.9" type="curve" smooth="yes"/>
      <point x="900.5" y="-116.9" type="line"/>
      <point x="900.5" y="554.0" type="line"/>
      <point x="808.3" y="554.0" type="line"/>
      <point x="808.3" y="-63.6" type="line"/>
      <point x="111.2" y="-63.6" type="line" smooth="yes"/>
      <point x="62.7" y="-63.6"/>
      <point x="39.0" y="-89.5"/>
      <point x="39.0" y="-133.5" type="curve" smooth="yes"/>
      <point x="39.0" y="-230.9"/>
      <point x="154.7" y="-317.9"/>
    </contour>
    <contour>
      <point x="81.9" y="15.0" type="line"/>
      <point x="612.7" y="15.0" type="line"/>
      <point x="612.7" y="68.0" type="line"/>
      <point x="173.1" y="68.0" type="line"/>
      <point x="173.1" y="554.0" type="line"/>
      <point x="81.9" y="554.0" type="line"/>
    </contour>
  </outline>
</glyph>
<glyph name="credit-tamil" format="2">
  <advance width="1276.9"/>
  <unicode hex="0BF7"/>
  <note>
uni0BF7
</note>
  <anchor x="406.4" y="0.0" name="bottom"/>
  <anchor x="407.4" y="0.0" name="nukta"/>
  <anchor x="408.8" y="554.0" name="top"/>
  <anchor x="409.4" y="554.0" name="vedic"/>
  <outline>
    <contour>
      <point x="823.7" y="-5.0" type="curve" smooth="yes"/>
      <point x="902.8" y="-5.0"/>
      <point x="963.7" y="52.7"/>
      <point x="963.7" y="144.0" type="curve" smooth="yes"/>
      <point x="963.7" y="253.3"/>
      <point x="896.6" y="317.0"/>
      <point x="793.4" y="317.0" type="curve" smooth="yes"/>
      <point x="701.1" y="317.0"/>
      <point x="620.0" y="261.6"/>
      <point x="565.0" y="172.0" type="curve"/>
      <point x="565.0" y="103.3" type="line"/>
      <point x="613.0" y="191.3"/>
      <point x="688.4" y="264.0"/>
      <point x="774.1" y="264.0" type="curve" smooth="yes"/>
      <point x="841.5" y="264.0"/>
      <point x="880.1" y="213.3"/>
      <point x="880.1" y="137.0" type="curve" smooth="yes"/>
      <point x="880.1" y="83.0"/>
      <point x="854.3" y="49.0"/>
      <point x="809.6" y="49.0" type="curve" smooth="yes"/>
      <point x="758.8" y="49.0"/>
      <point x="735.0" y="107.0"/>
      <point x="735.0" y="172.0" type="curve" smooth="yes"/>
      <point x="735.0" y="295.0"/>
      <point x="804.6" y="370.0"/>
      <point x="907.7" y="370.0" type="curve" smooth="yes"/>
      <point x="1010.1" y="370.0"/>
      <point x="1080.2" y="301.0"/>
      <point x="1080.2" y="185.0" type="curve" smooth="yes"/>
      <point x="1080.2" y="137.0"/>
      <point x="1059.9" y="77.9"/>
      <point x="1025.8" y="40.9" type="curve"/>
      <point x="1040.3" y="0.0" type="line"/>
      <point x="1255.8" y="0.0" type="line"/>
      <point x="1255.8" y="54.0" type="line"/>
      <point x="1086.7" y="54.0" type="line"/>
      <point x="1096.6" y="44.0" type="line"/>
      <point x="1134.8" y="79.7"/>
      <point x="1166.8" y="131.1"/>
      <point x="1166.8" y="195.9" type="curve" smooth="yes"/>
      <point x="1166.8" y="339.9"/>
      <point x="1057.4" y="423.0"/>
      <point x="921.7" y="423.0" type="curve" smooth="yes"/>
      <point x="792.1" y="423.0"/>
      <point x="681.2" y="329.3"/>
      <point x="681.2" y="179.0" type="curve" smooth="yes"/>
      <point x="681.2" y="77.0"/>
      <point x="722.4" y="-5.0"/>
    </contour>
    <component base="e-tamil" xOffset="1.5"/>
  </outline>
</glyph>
<glyph name="asabove-tamil" format="2">
  <advance width="1597.7"/>
  <unicode hex="0BF8"/>
  <note>
uni0BF8
</note>
  <outline>
    <contour>
      <point x="606.3" y="-5.3" type="curve" smooth="yes"/>
      <point x="699.4" y="-5.3"/>
      <point x="783.0" y="70.1"/>
      <point x="783.0" y="237.6" type="curve" smooth="yes"/>
      <point x="783.0" y="474.6"/>
      <point x="634.2" y="657.3"/>
      <point x="399.8" y="657.3" type="curve" smooth="yes"/>
      <point x="174.0" y="657.3"/>
      <point x="48.5" y="467.0"/>
      <point x="48.5" y="250.7" type="curve" smooth="yes"/>
      <point x="48.5" y="83.0"/>
      <point x="127.0" y="-4.7"/>
      <point x="229.7" y="-4.7" type="curve" smooth="yes"/>
      <point x="324.7" y="-4.7"/>
      <point x="381.9" y="57.9"/>
      <point x="381.9" y="151.4" type="curve" smooth="yes"/>
      <point x="381.9" y="244.1"/>
      <point x="331.0" y="303.3"/>
      <point x="251.0" y="303.3" type="curve" smooth="yes"/>
      <point x="161.4" y="303.3"/>
      <point x="104.6" y="217.8"/>
      <point x="101.1" y="119.8" type="curve"/>
      <point x="129.7" y="93.5" type="line"/>
      <point x="130.8" y="174.5"/>
      <point x="168.6" y="236.0"/>
      <point x="221.7" y="236.0" type="curve" smooth="yes"/>
      <point x="274.0" y="236.0"/>
      <point x="295.3" y="190.3"/>
      <point x="295.3" y="146.0" type="curve" smooth="yes"/>
      <point x="295.3" y="91.3"/>
      <point x="271.0" y="49.0"/>
      <point x="214.8" y="49.0" type="curve" smooth="yes"/>
      <point x="149.9" y="49.0"/>
      <point x="103.0" y="115.7"/>
      <point x="103.0" y="249.7" type="curve" smooth="yes"/>
      <point x="103.0" y="432.1"/>
      <point x="202.9" y="603.3"/>
      <point x="400.6" y="603.3" type="curve" smooth="yes"/>
      <point x="605.8" y="603.3"/>
      <point x="691.9" y="471.8"/>
      <point x="691.9" y="241.0" type="curve" smooth="yes"/>
      <point x="691.9" y="108.5"/>
      <point x="647.4" y="56.6"/>
      <point x="592.0" y="56.6" type="curve" smooth="yes"/>
      <point x="541.3" y="56.6"/>
      <point x="500.5" y="99.5"/>
      <point x="500.5" y="196.2" type="curve" smooth="yes"/>
      <point x="500.5" y="334.8"/>
      <point x="566.2" y="505.0"/>
      <point x="745.1" y="505.0" type="curve" smooth="yes"/>
      <point x="879.9" y="505.0"/>
      <point x="953.0" y="400.8"/>
      <point x="953.0" y="260.3" type="curve" smooth="yes"/>
      <point x="953.0" y="163.2"/>
      <point x="921.8" y="95.1"/>
      <point x="878.7" y="43.3" type="curve"/>
      <point x="894.4" y="0.0" type="line"/>
      <point x="1583.6" y="0.0" type="line"/>
      <point x="1583.6" y="56.7" type="line"/>
      <point x="931.4" y="56.7" type="line"/>
      <point x="944.3" y="41.4" type="line"/>
      <point x="1001.0" y="96.4"/>
      <point x="1042.7" y="166.5"/>
      <point x="1042.7" y="265.7" type="curve" smooth="yes"/>
      <point x="1042.7" y="436.1"/>
      <point x="930.4" y="559.0"/>
      <point x="753.5" y="559.0" type="curve" smooth="yes"/>
      <point x="536.0" y="559.0"/>
      <point x="445.0" y="371.6"/>
      <point x="445.0" y="200.5" type="curve" smooth="yes"/>
      <point x="445.0" y="67.6"/>
      <point x="508.5" y="-5.3"/>
    </contour>
    <contour>
      <point x="1366.6" y="-266.6" type="line"/>
      <point x="1457.4" y="-266.6" type="line"/>
      <point x="1457.4" y="403.9" type="line" smooth="yes"/>
      <point x="1457.4" y="504.3"/>
      <point x="1402.9" y="554.0"/>
      <point x="1311.4" y="554.0" type="curve" smooth="yes"/>
      <point x="1202.2" y="554.0"/>
      <point x="1133.1" y="454.2"/>
      <point x="1133.1" y="298.0" type="curve" smooth="yes"/>
      <point x="1133.1" y="151.0"/>
      <point x="1200.9" y="13.0"/>
      <point x="1346.8" y="13.0" type="curve"/>
      <point x="1346.8" y="54.0" type="line"/>
      <point x="1247.5" y="54.0"/>
      <point x="1187.6" y="165.0"/>
      <point x="1187.6" y="292.0" type="curve" smooth="yes"/>
      <point x="1187.6" y="413.0"/>
      <point x="1230.1" y="495.0"/>
      <point x="1296.3" y="495.0" type="curve" smooth="yes"/>
      <point x="1343.6" y="495.0"/>
      <point x="1366.6" y="465.8"/>
      <point x="1366.6" y="411.8" type="curve" smooth="yes"/>
    </contour>
  </outline>
</glyph>
<glyph name="rupee-tamil" format="2">
  <advance width="883.8"/>
  <unicode hex="0BF9"/>
  <note>
uni0BF9
</note>
  <outline>
    <contour>
      <point x="462.6" y="-296.0" type="curve" smooth="yes"/>
      <point x="703.6" y="-296.0"/>
      <point x="832.1" y="-124.4"/>
      <point x="832.1" y="112.0" type="curve" smooth="yes"/>
      <point x="832.1" y="246.4"/>
      <point x="783.2" y="345.0"/>
      <point x="677.6" y="345.0" type="curve" smooth="yes"/>
      <point x="605.5" y="345.0"/>
      <point x="556.7" y="290.8"/>
      <point x="556.7" y="192.0" type="curve" smooth="yes"/>
      <point x="556.7" y="158.3" type="line"/>
      <point x="580.2" y="158.3" type="line"/>
      <point x="580.2" y="189.3" type="line" smooth="yes"/>
      <point x="580.2" y="243.0"/>
      <point x="606.3" y="286.0"/>
      <point x="650.2" y="286.0" type="curve" smooth="yes"/>
      <point x="716.6" y="286.0"/>
      <point x="738.9" y="203.4"/>
      <point x="738.9" y="102.0" type="curve" smooth="yes"/>
      <point x="738.9" y="-107.4"/>
      <point x="650.7" y="-243.0"/>
      <point x="456.3" y="-243.0" type="curve" smooth="yes"/>
      <point x="229.8" y="-243.0"/>
      <point x="113.8" y="-5.0"/>
      <point x="113.8" y="295.0" type="curve" smooth="yes"/>
      <point x="113.8" y="604.0"/>
      <point x="216.7" y="798.0"/>
      <point x="338.8" y="798.0" type="curve" smooth="yes"/>
      <point x="408.1" y="798.0"/>
      <point x="431.0" y="746.0"/>
      <point x="431.0" y="714.0" type="curve" smooth="yes"/>
      <point x="431.0" y="676.0"/>
      <point x="413.5" y="659.0"/>
      <point x="389.4" y="659.0" type="curve" smooth="yes"/>
      <point x="363.2" y="659.0"/>
      <point x="347.2" y="692.0"/>
      <point x="347.2" y="728.0" type="curve" smooth="yes"/>
      <point x="347.2" y="810.0"/>
      <point x="392.7" y="850.0"/>
      <point x="458.9" y="850.0" type="curve" smooth="yes"/>
      <point x="528.5" y="850.0"/>
      <point x="569.9" y="801.8"/>
      <point x="569.9" y="745.5" type="curve" smooth="yes"/>
      <point x="569.9" y="709.3"/>
      <point x="554.6" y="677.0"/>
      <point x="529.4" y="651.0" type="curve"/>
      <point x="544.4" y="610.0" type="line"/>
      <point x="716.3" y="610.0" type="line"/>
      <point x="716.3" y="664.0" type="line"/>
      <point x="569.1" y="664.0" type="line"/>
      <point x="569.9" y="633.0" type="line"/>
      <point x="609.7" y="660.1"/>
      <point x="641.7" y="699.6"/>
      <point x="641.7" y="754.8" type="curve" smooth="yes"/>
      <point x="641.7" y="842.8"/>
      <point x="571.7" y="904.0"/>
      <point x="477.7" y="904.0" type="curve" smooth="yes"/>
      <point x="370.8" y="904.0"/>
      <point x="295.9" y="836.0"/>
      <point x="295.9" y="733.0" type="curve" smooth="yes"/>
      <point x="295.9" y="657.0"/>
      <point x="334.3" y="605.0"/>
      <point x="399.4" y="605.0" type="curve" smooth="yes"/>
      <point x="457.8" y="605.0"/>
      <point x="502.1" y="646.0"/>
      <point x="502.1" y="714.0" type="curve" smooth="yes"/>
      <point x="502.1" y="797.1"/>
      <point x="436.7" y="852.0"/>
      <point x="348.9" y="852.0" type="curve" smooth="yes"/>
      <point x="167.3" y="852.0"/>
      <point x="56.0" y="628.0"/>
      <point x="56.0" y="295.0" type="curve" smooth="yes"/>
      <point x="56.0" y="-31.0"/>
      <point x="198.7" y="-296.0"/>
    </contour>
    <contour>
      <point x="293.0" y="0.0" type="line"/>
      <point x="349.1" y="0.0" type="line"/>
      <point x="349.1" y="500.0" type="line"/>
      <point x="488.3" y="500.0" type="line"/>
      <point x="488.3" y="0.0" type="line"/>
      <point x="580.2" y="0.0" type="line"/>
      <point x="580.2" y="500.0" type="line"/>
      <point x="716.3" y="500.0" type="line"/>
      <point x="716.3" y="554.0" type="line"/>
      <point x="293.0" y="554.0" type="line"/>
    </contour>
  </outline>
</glyph>
<glyph name="number-tamil" format="2">
  <advance width="781.8"/>
  <unicode hex="0BFA"/>
  <note>
uni0BFA
</note>
  <anchor x="330.0" y="0.0" name="bottom"/>
  <anchor x="467.0" y="554.0" name="imatra"/>
  <anchor x="354.2" y="-181.0" name="nukta"/>
  <anchor x="333.1" y="554.0" name="top"/>
  <anchor x="343.4" y="554.0" name="vedic"/>
  <outline>
    <contour>
      <point x="620.5" y="500.0" type="line"/>
      <point x="781.9" y="500.0" type="line"/>
      <point x="781.9" y="554.0" type="line"/>
      <point x="655.7" y="554.0" type="line"/>
      <point x="662.1" y="528.0" type="line"/>
      <point x="723.0" y="585.7"/>
      <point x="762.0" y="652.1"/>
      <point x="762.0" y="735.3" type="curve" smooth="yes"/>
      <point x="762.0" y="860.7"/>
      <point x="680.8" y="939.0"/>
      <point x="578.4" y="939.0" type="curve" smooth="yes"/>
      <point x="471.4" y="939.0"/>
      <point x="405.1" y="850.3"/>
      <point x="405.1" y="744.9" type="curve" smooth="yes"/>
      <point x="405.1" y="656.6"/>
      <point x="444.9" y="599.2"/>
      <point x="522.9" y="599.2" type="curve" smooth="yes"/>
      <point x="583.4" y="599.2"/>
      <point x="626.3" y="649.3"/>
      <point x="626.3" y="710.3" type="curve" smooth="yes"/>
      <point x="626.3" y="808.0"/>
      <point x="555.8" y="858.2"/>
      <point x="470.8" y="858.2" type="curve" smooth="yes"/>
      <point x="373.9" y="858.2"/>
      <point x="301.6" y="791.2"/>
      <point x="301.6" y="683.5" type="curve" smooth="yes"/>
      <point x="301.6" y="590.5"/>
      <point x="363.5" y="517.0"/>
      <point x="448.1" y="512.0" type="curve"/>
      <point x="462.3" y="554.0" type="line"/>
      <point x="397.5" y="554.0"/>
      <point x="355.4" y="609.5"/>
      <point x="355.4" y="679.5" type="curve" smooth="yes"/>
      <point x="355.4" y="762.5"/>
      <point x="396.8" y="804.2"/>
      <point x="467.1" y="804.2" type="curve" smooth="yes"/>
      <point x="517.8" y="804.2"/>
      <point x="555.3" y="772.7"/>
      <point x="555.3" y="714.0" type="curve" smooth="yes"/>
      <point x="555.3" y="675.2"/>
      <point x="538.4" y="653.2"/>
      <point x="509.5" y="653.2" type="curve" smooth="yes"/>
      <point x="474.3" y="653.2"/>
      <point x="456.9" y="690.5"/>
      <point x="456.9" y="736.9" type="curve" smooth="yes"/>
      <point x="456.9" y="810.3"/>
      <point x="487.8" y="885.0"/>
      <point x="570.0" y="885.0" type="curve" smooth="yes"/>
      <point x="648.2" y="885.0"/>
      <point x="691.7" y="821.4"/>
      <point x="691.7" y="727.8" type="curve" smooth="yes"/>
      <point x="691.7" y="648.3"/>
      <point x="663.6" y="601.1"/>
      <point x="605.2" y="541.3" type="curve"/>
    </contour>
    <component base="na-tamil"/>
  </outline>
</glyph>
<glyph name="doubleSvarita-vedic" format="2">
  <unicode hex="1CDA"/>
  <note>
uni1CDA
</note>
  <anchor x="0.0" y="554.0" name="_vedic"/>
  <outline>
    <contour>
      <point x="-76.4" y="915.5" type="line"/>
      <point x="-24.9" y="915.5" type="line"/>
      <point x="-24.9" y="1110.5" type="line"/>
      <point x="-76.4" y="1110.5" type="line"/>
    </contour>
    <contour>
      <point x="24.9" y="915.5" type="line"/>
      <point x="76.4" y="915.5" type="line"/>
      <point x="76.4" y="1110.5" type="line"/>
      <point x="24.9" y="1110.5" type="line"/>
    </contour>
  </outline>
</glyph>
<glyph name="endash" format="2">
  <advance width="500.0"/>
  <unicode hex="2013"/>
  <outline>
    <contour>
      <point x="-4.3" y="241.8" type="line"/>
      <point x="504.3" y="241.8" type="line"/>
      <point x="504.3" y="295.2" type="line"/>
      <point x="-4.3" y="295.2" type="line"/>
    </contour>
  </outline>
</glyph>
<glyph name="emdash" format="2">
  <advance width="1000.0"/>
  <unicode hex="2014"/>
  <outline>
    <contour>
      <point x="-4.3" y="241.8" type="line"/>
      <point x="1004.3" y="241.8" type="line"/>
      <point x="1004.3" y="295.2" type="line"/>
      <point x="-4.3" y="295.2" type="line"/>
    </contour>
  </outline>
</glyph>
<glyph name="quoteleft" format="2">
  <advance width="218.5"/>
  <unicode hex="2018"/>
  <outline>
    <contour>
      <point x="115.5" y="434.1" type="curve" smooth="yes"/>
      <point x="147.6" y="434.1"/>
      <point x="172.1" y="454.4"/>
      <point x="172.1" y="492.4" type="curve" smooth="yes"/>
      <point x="172.1" y="552.0"/>
      <point x="109.6" y="543.0"/>
      <point x="109.6" y="583.0" type="curve"/>
      <point x="109.6" y="622.0"/>
      <point x="135.4" y="652.7"/>
      <point x="189.9" y="673.7" type="curve"/>
      <point x="189.9" y="715.0" type="line"/>
      <point x="87.0" y="680.0"/>
      <point x="47.6" y="604.0"/>
      <point x="47.6" y="519.0" type="curve" smooth="yes"/>
      <point x="47.6" y="463.7"/>
      <point x="78.0" y="434.1"/>
    </contour>
  </outline>
</glyph>
<glyph name="quoteright" format="2">
  <advance width="218.5"/>
  <unicode hex="2019"/>
  <outline>
    <contour>
      <point x="27.9" y="433.1" type="line"/>
      <point x="130.8" y="468.1"/>
      <point x="170.2" y="544.1"/>
      <point x="170.2" y="629.1" type="curve" smooth="yes"/>
      <point x="170.2" y="683.7"/>
      <point x="139.8" y="714.0"/>
      <point x="102.3" y="714.0" type="curve" smooth="yes"/>
      <point x="70.2" y="714.0"/>
      <point x="45.7" y="693.0"/>
      <point x="45.7" y="655.7" type="curve" smooth="yes"/>
      <point x="45.7" y="595.4"/>
      <point x="108.2" y="605.1"/>
      <point x="108.2" y="565.1" type="curve"/>
      <point x="108.2" y="526.1"/>
      <point x="81.7" y="494.7"/>
      <point x="27.9" y="473.7" type="curve"/>
    </contour>
  </outline>
</glyph>
<glyph name="quotedblleft" format="2">
  <advance width="389.8"/>
  <unicode hex="201C"/>
  <outline>
    <contour>
      <point x="277.0" y="434.1" type="curve" smooth="yes"/>
      <point x="309.1" y="434.1"/>
      <point x="333.6" y="454.4"/>
      <point x="333.6" y="492.4" type="curve" smooth="yes"/>
      <point x="333.6" y="552.0"/>
      <point x="271.1" y="543.0"/>
      <point x="271.1" y="583.0" type="curve"/>
      <point x="271.1" y="622.0"/>
      <point x="296.9" y="652.7"/>
      <point x="351.4" y="673.7" type="curve"/>
      <point x="351.4" y="715.0" type="line"/>
      <point x="247.8" y="680.0"/>
      <point x="209.1" y="604.0"/>
      <point x="209.1" y="519.0" type="curve" smooth="yes"/>
      <point x="209.1" y="463.7"/>
      <point x="239.5" y="434.1"/>
    </contour>
    <contour>
      <point x="127.4" y="434.1" type="curve" smooth="yes"/>
      <point x="158.8" y="434.1"/>
      <point x="183.3" y="454.4"/>
      <point x="183.3" y="492.4" type="curve" smooth="yes"/>
      <point x="183.3" y="552.0"/>
      <point x="120.8" y="543.0"/>
      <point x="120.8" y="583.0" type="curve"/>
      <point x="120.8" y="622.0"/>
      <point x="146.6" y="652.7"/>
      <point x="201.1" y="673.7" type="curve"/>
      <point x="201.1" y="715.0" type="line"/>
      <point x="98.2" y="680.0"/>
      <point x="58.8" y="604.0"/>
      <point x="58.8" y="519.0" type="curve" smooth="yes"/>
      <point x="58.8" y="463.7"/>
      <point x="89.2" y="434.1"/>
    </contour>
  </outline>
</glyph>
<glyph name="quotedblright" format="2">
  <advance width="389.8"/>
  <unicode hex="201D"/>
  <outline>
    <contour>
      <point x="188.7" y="433.1" type="line"/>
      <point x="292.3" y="468.1"/>
      <point x="331.0" y="544.1"/>
      <point x="331.0" y="629.1" type="curve" smooth="yes"/>
      <point x="331.0" y="683.7"/>
      <point x="300.6" y="714.0"/>
      <point x="263.1" y="714.0" type="curve" smooth="yes"/>
      <point x="231.7" y="714.0"/>
      <point x="207.2" y="693.0"/>
      <point x="207.2" y="655.7" type="curve" smooth="yes"/>
      <point x="207.2" y="595.4"/>
      <point x="269.0" y="605.1"/>
      <point x="269.0" y="565.1" type="curve"/>
      <point x="269.0" y="526.1"/>
      <point x="243.9" y="494.7"/>
      <point x="188.7" y="473.7" type="curve"/>
    </contour>
    <contour>
      <point x="39.1" y="433.1" type="line"/>
      <point x="142.7" y="468.1"/>
      <point x="182.1" y="544.1"/>
      <point x="182.1" y="629.1" type="curve" smooth="yes"/>
      <point x="182.1" y="683.7"/>
      <point x="151.0" y="714.0"/>
      <point x="113.5" y="714.0" type="curve" smooth="yes"/>
      <point x="81.4" y="714.0"/>
      <point x="56.9" y="693.0"/>
      <point x="56.9" y="655.7" type="curve" smooth="yes"/>
      <point x="56.9" y="595.4"/>
      <point x="119.4" y="605.1"/>
      <point x="119.4" y="565.1" type="curve"/>
      <point x="119.4" y="526.1"/>
      <point x="93.6" y="494.7"/>
      <point x="39.1" y="473.7" type="curve"/>
    </contour>
  </outline>
</glyph>
